SplineFontDB: 3.0
FontName: RWGaramond-Bold
FullName: RW Garamond Bold
FamilyName: RW Garamond
Weight: Bold
Copyright: RW Garamond is a modified version of URW Garamond No. 8. and GaramondX, with changes being made to support OpenType.\n(c) 2000, 2014, (URW)++ Design & Development.\n(c) 2005, Ralf Stubner. \n(c) 2009, Gael Varoquaux.\n(c) 2012-2017, Michael Sharpe.\n(c) 2019, Daniel Benjamin Miller.\nUsage of this font is subject to the Aladdin Free Public License.
Version: 2.00
ItalicAngle: 0
UnderlinePosition: -960
UnderlineWidth: 196
Ascent: 1509
Descent: 539
InvalidEm: 0
LayerCount: 2
Layer: 0 0 "Back" 1
Layer: 1 0 "Fore" 0
OS2Version: 0
OS2_WeightWidthSlopeOnly: 0
OS2_UseTypoMetrics: 0
CreationTime: 1482005346
ModificationTime: 1556710866
OS2TypoAscent: 0
OS2TypoAOffset: 1
OS2TypoDescent: 0
OS2TypoDOffset: 1
OS2TypoLinegap: 0
OS2WinAscent: 0
OS2WinAOffset: 1
OS2WinDescent: 0
OS2WinDOffset: 1
HheadAscent: 0
HheadAOffset: 1
HheadDescent: 0
HheadDOffset: 1
OS2Vendor: 'PfEd'
Lookup: 1 0 0 "supsSuperscriptlookup" { "supsSuperscriptlookup subtable" ("superior") } ['sups' ('latn' <'dflt' > 'grek' <'dflt' > 'DFLT' <'dflt' > ) ]
Lookup: 1 0 0 "smcpLowercasetoSmallCapitalslookup" { "smcpLowercasetoSmallCapitalslookup subtable"  } ['smcp' ('latn' <'dflt' > 'grek' <'dflt' > 'DFLT' <'dflt' > ) ]
Lookup: 1 0 0 "swshSwashlookup" { "swshSwashlookup subtable" ("swash") } ['swsh' ('latn' <'dflt' > 'grek' <'dflt' > 'DFLT' <'dflt' > ) ]
Lookup: 1 0 0 "cv01CharacterVariants01" { "cv01CharacterVariants01 subtable"  } ['cv01' ('latn' <'dflt' > 'grek' <'dflt' > 'DFLT' <'dflt' > ) ]
Lookup: 1 0 0 "cv02CharacterVariants02" { "cv02CharacterVariants02 subtable"  } ['cv02' ('latn' <'dflt' > 'grek' <'dflt' > 'DFLT' <'dflt' > ) ]
Lookup: 1 0 0 "cv03CharacterVariants03" { "cv03CharacterVariants03 subtable"  } ['cv03' ('latn' <'dflt' > 'grek' <'dflt' > 'DFLT' <'dflt' > ) ]

StartChar: exclam
Encoding: 33 33 1
Width: 565
GlyphClass: 2
Flags: HW
HStem: -37 338<234 328> 1380 41G<241 334>
VStem: 113 338<86 179> 131 313<1268 1318 1260 1321> 248 63<485 485>
LayerCount: 2
Fore
SplineSet
248 485 m 2xc8
 147 1118 l 2
 141 1153 131 1258 131 1278 c 0
 131 1364 195 1421 287 1421 c 0
 381 1421 444 1362 444 1274 c 0xd0
 444 1245 434 1157 428 1118 c 2
 311 485 l 2
 305 454 305 453 289 453 c 2
 272 453 l 2
 254 453 254 452 248 485 c 2xc8
281 301 m 0
 375 301 451 227 451 133 c 0
 451 37 375 -37 281 -37 c 0
 189 -37 113 39 113 133 c 0xe0
 113 225 189 301 281 301 c 0
EndSplineSet
EndChar

StartChar: quotedbl
Encoding: 34 34 2
Width: 831
GlyphClass: 2
Flags: HW
HStem: 909 567<240 250 250 279 580 590 590 618>
VStem: 150 231<1367 1401 1367 1401> 215 98<946 946> 489 229<1364 1401 1364 1401> 555 98<946 946>
LayerCount: 2
Fore
SplineSet
215 946 m 2xa0
 156 1315 l 2
 152 1338 150 1356 150 1372 c 0
 150 1429 203 1477 264 1477 c 0
 327 1477 381 1429 381 1372 c 0xc0
 381 1362 379 1342 375 1315 c 2
 313 946 l 2
 309 921 299 909 279 909 c 2
 250 909 l 2
 230 909 221 921 215 946 c 2xa0
555 946 m 2x88
 494 1315 l 2
 492 1338 489 1352 489 1372 c 0
 489 1429 543 1477 604 1477 c 0
 665 1477 719 1429 719 1372 c 0x90
 719 1356 717 1338 713 1315 c 2
 653 946 l 2
 649 921 636 909 618 909 c 2
 590 909 l 2
 570 909 559 921 555 946 c 2x88
EndSplineSet
EndChar

StartChar: numbersign
Encoding: 35 35 3
Width: 1019
GlyphClass: 2
Flags: HMW
HStem: -31 43G<92 98 98 147 447 453 453 500> 414 168<65 256 115 205 115 305 356 561 707 784> 770 168<175 365 231 313 231 412 463 670 817 891> 1341 41G
LayerCount: 2
Fore
SplineSet
205 414 m 1
 72 414 l 2
 58 414 45 426 45 438 c 0
 45 444 47 455 49 463 c 2
 76 547 l 2
 82 567 99 582 115 582 c 2
 256 582 l 1
 313 770 l 1
 184 770 l 2
 166 770 156 781 156 797 c 0
 156 803 156 809 158 815 c 2
 186 905 l 2
 192 925 211 938 231 938 c 2
 365 938 l 1
 487 1350 l 2
 495 1377 502 1382 514 1382 c 2
 575 1382 l 2
 585 1382 590 1378 590 1366 c 0
 590 1360 590 1354 588 1346 c 2
 463 938 l 1
 723 938 l 1
 846 1341 l 2
 856 1374 863 1382 877 1382 c 2
 926 1382 l 2
 938 1382 944 1376 944 1364 c 0
 944 1358 942 1349 940 1339 c 2
 817 938 l 1
 948 938 l 2
 962 938 971 927 971 915 c 0
 971 911 971 907 969 905 c 2
 934 791 l 2
 930 777 918 770 891 770 c 2
 766 770 l 1
 707 582 l 1
 840 582 l 2
 854 582 862 577 862 569 c 0
 862 563 860 557 858 549 c 2
 827 451 l 2
 819 424 807 414 784 414 c 2
 655 414 l 1
 530 0 l 2
 522 -27 518 -31 500 -31 c 2
 453 -31 l 2
 443 -31 432 -22 432 -14 c 0
 432 -12 434 -6 436 2 c 2
 561 414 l 1
 305 414 l 1
 180 0 l 2
 172 -25 165 -31 147 -31 c 2
 98 -31 l 2
 86 -31 80 -24 80 -10 c 0
 80 -4 80 -2 82 2 c 2
 205 414 l 1
356 582 m 1
 612 582 l 1
 670 770 l 1
 412 770 l 1
 356 582 l 1
EndSplineSet
EndChar

StartChar: dollar
Encoding: 36 36 4
Width: 1019
GlyphClass: 2
Flags: HW
HStem: 0 84<555 555> 1294 90<467 467>
VStem: 106 233 121 201<1064 1123> 467 88<-102 0 92 553 887 1292 1384 1495> 727 201<268 464>
LayerCount: 2
Fore
SplineSet
467 92 m 1xec
 467 604 l 1
 207 751 121 856 121 1028 c 0xdc
 121 1218 246 1347 467 1384 c 1
 467 1495 l 2
 467 1513 475 1522 489 1522 c 2
 530 1522 l 2
 544 1522 555 1511 555 1495 c 2
 555 1384 l 1
 735 1376 872 1294 872 1192 c 0
 872 1137 827 1094 766 1094 c 0
 721 1094 699 1113 668 1174 c 0
 635 1233 612 1257 555 1292 c 1
 555 844 l 1
 748 733 754 729 793 698 c 0
 883 626 928 528 928 399 c 0
 928 278 883 178 793 102 c 0
 732 49 674 25 555 0 c 1
 555 -104 l 2
 555 -127 546 -139 530 -139 c 2
 487 -139 l 2
 471 -139 467 -131 467 -102 c 2
 467 0 l 1
 358 6 299 23 236 66 c 0
 158 117 106 194 106 264 c 0
 106 327 160 383 223 383 c 0
 252 383 281 367 299 340 c 0
 313 320 313 320 340 236 c 0
 360 175 406 125 467 92 c 1xec
555 553 m 1
 555 84 l 1
 618 96 649 110 676 141 c 0
 709 178 727 235 727 301 c 0
 727 358 711 422 686 453 c 0
 668 480 645 496 555 553 c 1
467 887 m 1
 467 1294 l 1
 373 1276 322 1210 322 1106 c 0
 322 1022 356 971 467 887 c 1
EndSplineSet
EndChar

StartChar: percent
Encoding: 37 37 5
Width: 1699
GlyphClass: 2
Flags: HW
HStem: -31 88<1245 1335 1245 1383> 610 88<1247 1337> 655 88<350 440 350 488> 1294 88<352 443>
VStem: 72 182<932 1109 932 1123> 541 180<938 1107> 967 182<247 423 247 438> 1436 180<252 422>
LayerCount: 2
Fore
SplineSet
1290 698 m 0xdf
 1474 698 1616 539 1616 334 c 0
 1616 129 1474 -31 1292 -31 c 0
 1106 -31 967 129 967 338 c 0
 967 539 1110 698 1290 698 c 0xdf
1294 610 m 0
 1200 610 1149 512 1149 334 c 0
 1149 160 1200 57 1290 57 c 0
 1380 57 1436 166 1436 338 c 0
 1436 506 1380 610 1294 610 c 0
485 14 m 2
 1090 1356 l 2
 1100 1379 1104 1382 1124 1382 c 2
 1190 1382 l 2
 1202 1382 1214 1374 1214 1364 c 0
 1214 1358 1210 1349 1206 1339 c 2
 608 10 l 2
 592 -29 589 -31 571 -31 c 2
 504 -31 l 2
 490 -31 475 -22 475 -14 c 0
 475 -10 479 0 485 14 c 2
397 1382 m 0
 579 1382 721 1225 721 1020 c 0
 721 815 579 655 397 655 c 0xbf
 211 655 72 813 72 1024 c 0
 72 1223 215 1382 397 1382 c 0
399 1294 m 0
 305 1294 254 1198 254 1020 c 0
 254 844 305 743 395 743 c 0
 485 743 541 852 541 1024 c 0
 541 1190 487 1294 399 1294 c 0
EndSplineSet
Substitution2: "cv04CharacterVariants04 subtable" percent.cv01
EndChar

StartChar: ampersand
Encoding: 38 38 6
Width: 1736
GlyphClass: 2
Flags: HW
HStem: -37 174<1277 1476> -37 193<359 677> 950 84 1288 72<518 595>
VStem: 86 231<383 418> 248 184<1104 1146> 690 184<1081 1146>
LayerCount: 2
Fore
SplineSet
1620 242 m 1xb6
 1677 215 l 1
 1642 133 1616 96 1569 55 c 0
 1499 -4 1411 -37 1319 -37 c 0xb6
 1235 -37 1116 -15 1085 8 c 0
 1052 33 1049 37 967 221 c 2
 950 260 l 1
 926 231 l 2
 813 100 772 58 715 23 c 0
 649 -16 571 -37 477 -37 c 0
 241 -37 86 107 86 324 c 0x7a
 86 512 178 637 422 778 c 1
 281 895 248 948 248 1057 c 0
 248 1235 389 1360 586 1360 c 0
 758 1360 874 1270 874 1135 c 0
 874 1029 826 964 668 868 c 1
 840 762 922 686 1047 522 c 1
 1133 641 l 2
 1199 733 1231 811 1231 874 c 0
 1231 933 1204 948 1102 950 c 0
 1088 952 1083 958 1083 981 c 2
 1083 1010 l 2
 1083 1028 1090 1034 1106 1034 c 0
 1114 1034 1129 1032 1145 1030 c 0
 1174 1028 1327 1020 1376 1020 c 0
 1413 1020 1534 1026 1567 1030 c 0
 1581 1032 1598 1034 1604 1034 c 0
 1616 1034 1618 1030 1618 1010 c 2
 1618 981 l 2
 1618 954 1616 952 1593 952 c 0
 1476 948 1442 928 1360 809 c 2
 1102 455 l 1
 1229 211 1305 137 1438 137 c 0
 1514 137 1538 152 1620 242 c 1xb6
612 911 m 1
 671 960 690 999 690 1081 c 0
 690 1210 637 1288 553 1288 c 0
 483 1288 432 1229 432 1147 c 0
 432 1061 477 999 612 911 c 1
911 342 m 1
 821 485 731 567 481 731 c 1
 366 668 317 588 317 467 c 0
 317 299 461 156 631 156 c 0x7a
 723 156 788 199 911 342 c 1
EndSplineSet
EndChar

StartChar: quoteright
Encoding: 8217 8217 7
Width: 528
GlyphClass: 2
Flags: HMW
HStem: 870 80<133 133> 1178 244
VStem: 297 164<1068 1265>
LayerCount: 2
Fore
SplineSet
260 1421 m 0
 377 1421 461 1329 461 1200 c 0
 461 1091 393 992 270 922 c 0
 219 891 162 870 133 870 c 0
 115 870 98 895 98 924 c 0
 98 936 102 940 135 950 c 0
 233 985 297 1043 297 1094 c 0
 297 1139 275 1158 203 1178 c 0
 146 1192 115 1235 115 1296 c 0
 115 1370 174 1421 260 1421 c 0
EndSplineSet
EndChar

StartChar: parenleft
Encoding: 40 40 8
Width: 641
GlyphClass: 2
Flags: HMW
VStem: 74 213<375 660 311 677>
LayerCount: 2
Fore
SplineSet
594 1391 m 1
 539 1319 l 2
 367 1090 287 828 287 494 c 0
 287 129 395 -170 612 -406 c 1
 602 -431 590 -444 559 -469 c 1
 426 -360 360 -286 266 -139 c 0
 129 70 74 254 74 496 c 0
 74 858 227 1174 555 1479 c 1
 584 1463 600 1446 614 1421 c 1
 594 1391 l 1
EndSplineSet
EndChar

StartChar: parenright
Encoding: 41 41 9
Width: 641
GlyphClass: 2
Flags: HMW
VStem: 365 213<376 616>
LayerCount: 2
Fore
SplineSet
57 1391 m 1
 37 1421 l 1
 53 1448 67 1463 96 1479 c 1
 422 1176 578 858 578 496 c 0
 578 256 522 70 385 -139 c 0
 291 -284 225 -358 92 -469 c 1
 63 -446 49 -429 39 -406 c 1
 260 -160 365 129 365 494 c 0
 365 740 326 926 238 1110 c 0
 187 1219 174 1235 57 1391 c 1
EndSplineSet
EndChar

StartChar: asterisk
Encoding: 42 42 10
Width: 1019
GlyphClass: 2
Flags: HW
HStem: 872 248<850 889> 881 41G<532 549> 1085 250<254 254> 1386 41G<563 634>
VStem: 477 248<653 695 653 701> 504 248<1298 1345 1298 1351>
LayerCount: 2
Fore
SplineSet
864 1120 m 0x90
 917 1120 950 1076 950 1004 c 0
 950 924 915 872 862 872 c 0
 827 872 822 874 670 946 c 0
 619 971 604 983 604 1006 c 0
 604 1029 619 1039 672 1059 c 0
 832 1120 835 1120 864 1120 c 0x90
594 1427 m 0
 674 1427 752 1372 752 1317 c 0
 752 1280 739 1261 641 1159 c 0
 578 1091 574 1087 551 1087 c 0
 535 1087 520 1100 516 1118 c 0
 512 1141 504 1258 504 1311 c 0x14
 504 1391 533 1427 594 1427 c 0
360 1057 m 2
 254 1085 l 2
 166 1110 135 1135 135 1184 c 0
 135 1250 213 1335 270 1335 c 0x30
 305 1335 329 1315 362 1264 c 0
 405 1194 453 1101 453 1083 c 0
 453 1060 435 1045 412 1047 c 0
 398 1049 378 1051 360 1057 c 2
401 985 m 0
 426 983 442 968 442 948 c 0
 442 930 375 817 324 754 c 0
 297 719 277 707 248 707 c 0
 189 707 117 792 117 864 c 0
 117 895 137 924 172 938 c 0
 211 954 372 987 401 985 c 0
541 922 m 0x54
 557 922 573 909 602 872 c 0
 625 843 647 815 672 786 c 0
 711 737 725 709 725 682 c 0
 725 625 653 578 569 578 c 0
 506 578 477 610 477 682 c 0x98
 477 721 494 858 504 891 c 0
 508 909 525 922 541 922 c 0x54
EndSplineSet
EndChar

StartChar: plus
Encoding: 43 43 11
Width: 1699
GlyphClass: 2
Flags: HMW
HStem: -6 43G<779 786 786 911> 438 166<339 766 348 766 932 1350>
VStem: 766 166<20 438 604 1020>
LayerCount: 2
Fore
SplineSet
766 604 m 1
 766 1020 l 2
 766 1038 772 1047 786 1047 c 2
 911 1047 l 2
 925 1047 932 1038 932 1020 c 2
 932 604 l 1
 1350 604 l 2
 1366 604 1374 598 1374 584 c 2
 1374 459 l 2
 1374 445 1366 438 1350 438 c 2
 932 438 l 1
 932 20 l 2
 932 2 925 -6 911 -6 c 2
 786 -6 l 2
 772 -6 766 2 766 20 c 2
 766 438 l 1
 348 438 l 2
 330 438 322 445 322 459 c 2
 322 584 l 2
 322 598 330 604 348 604 c 2
 766 604 l 1
EndSplineSet
EndChar

StartChar: comma
Encoding: 44 44 12
Width: 565
GlyphClass: 2
Flags: HMW
HStem: -332 82 39 264
VStem: 324 152<-126 120>
LayerCount: 2
Fore
SplineSet
256 303 m 0
 385 303 475 197 475 43 c 0
 475 -53 439 -143 371 -209 c 0
 297 -283 201 -332 135 -332 c 0
 119 -332 104 -310 104 -281 c 0
 104 -267 105 -266 162 -250 c 0
 271 -217 324 -164 324 -88 c 0
 324 -53 312 -24 289 -8 c 0
 269 10 268 10 186 39 c 0
 125 62 100 97 100 158 c 0
 100 244 164 303 256 303 c 0
EndSplineSet
EndChar

StartChar: hyphen
Encoding: 45 45 13
Width: 565
GlyphClass: 2
Flags: HMW
HStem: 397 217<69 483 78 483>
VStem: 45 471<422 590 416 596>
LayerCount: 2
Fore
SplineSet
45 422 m 2
 45 590 l 2
 45 602 60 614 78 614 c 2
 483 614 l 2
 501 614 516 602 516 590 c 2
 516 422 l 2
 516 410 501 397 483 397 c 2
 78 397 l 2
 60 397 45 410 45 422 c 2
EndSplineSet
EndChar

StartChar: period
Encoding: 46 46 14
Width: 565
GlyphClass: 2
Flags: HMW
HStem: -37 338<237 330>
VStem: 115 338<86 179>
LayerCount: 2
Fore
SplineSet
283 301 m 0
 377 301 453 227 453 133 c 0
 453 37 377 -37 283 -37 c 0
 191 -37 115 39 115 133 c 0
 115 225 191 301 283 301 c 0
EndSplineSet
EndChar

StartChar: slash
Encoding: 47 47 15
Width: 1019
GlyphClass: 2
Flags: HW
LayerCount: 2
Fore
SplineSet
954 1436 m 2
 295 -104 l 2
 291 -114 282 -119 266 -119 c 2
 139 -119 l 2
 125 -119 117 -114 117 -106 c 0
 117 -102 119 -94 123 -86 c 2
 782 1448 l 2
 792 1473 801 1479 821 1479 c 2
 934 1479 l 2
 952 1479 963 1470 963 1458 c 0
 963 1454 962 1450 954 1436 c 2
EndSplineSet
EndChar

StartChar: zero
Encoding: 48 48 16
Width: 1019
GlyphClass: 2
Flags: HMW
HStem: -25 254<449 580> 1130 254<451 556>
VStem: 96 90<614 787> 829 92<549 768>
LayerCount: 2
Fore
SplineSet
510 1384 m 0
 627 1384 717 1339 780 1251 c 0
 872 1122 922 924 922 664 c 0
 922 435 885 260 815 139 c 0
 752 30 651 -25 508 -25 c 0
 367 -25 264 29 201 133 c 0
 160 201 133 276 119 362 c 0
 105 450 96 548 96 657 c 0
 96 917 141 1114 229 1241 c 0
 297 1337 391 1384 510 1384 c 0
508 1130 m 0
 295 1130 186 981 186 684 c 0
 186 545 211 436 256 358 c 0
 305 272 389 229 508 229 c 0
 723 229 829 381 829 684 c 0
 829 852 797 970 731 1044 c 0
 680 1101 604 1130 508 1130 c 0
EndSplineSet
Substitution2: "onumOldstyleFigureslookup subtable" zero.onum
Substitution2: "supsSuperscriptlookup subtable" zerosuperior
EndChar

StartChar: one
Encoding: 49 49 17
Width: 1019
GlyphClass: 2
Flags: HMW
HStem: -14 70 1333 41G<573 645 645 652>
VStem: 444 229<242 1092>
LayerCount: 2
Fore
SplineSet
444 1157 m 1
 346 1081 274 1034 227 1016 c 1
 209 1032 192 1052 182 1081 c 1
 190 1087 203 1098 213 1104 c 0
 363 1204 461 1285 514 1346 c 0
 526 1360 539 1368 547 1370 c 0
 553 1372 561 1374 573 1374 c 2
 645 1374 l 2
 659 1374 670 1372 674 1368 c 0
 678 1364 680 1353 680 1339 c 2
 674 1092 l 1
 674 233 l 2
 674 165 678 122 684 106 c 0
 698 73 741 55 813 53 c 0
 819 53 825 53 827 51 c 0
 829 51 831 43 831 33 c 2
 831 8 l 2
 831 -2 829 -8 827 -10 c 0
 823 -12 815 -14 805 -14 c 0
 782 -14 747 -10 702 -6 c 0
 655 -2 610 0 571 0 c 0
 530 0 481 -4 418 -8 c 0
 369 -12 328 -14 301 -14 c 0
 287 -14 281 -6 281 8 c 2
 281 41 l 2
 281 47 285 53 289 55 c 0
 291 57 304 57 324 57 c 0
 373 57 406 73 424 100 c 0
 434 116 440 136 442 156 c 0
 444 176 444 205 444 242 c 2
 444 1157 l 1
EndSplineSet
Substitution2: "onumOldstyleFigureslookup subtable" one.onum
Substitution2: "cv01CharacterVariants01 subtable" one.cv01
Substitution2: "supsSuperscriptlookup subtable" onesuperior
EndChar

StartChar: two
Encoding: 50 50 18
Width: 1019
GlyphClass: 2
Flags: HMW
HStem: 0 217<315 424> 1171 203<400 608>
VStem: 655 262
LayerCount: 2
Fore
SplineSet
315 217 m 1
 413 215 494 215 553 215 c 0
 731 215 842 217 881 219 c 2
 891 219 l 2
 907 219 918 215 918 203 c 0
 918 195 906 170 883 135 c 2
 811 20 l 2
 799 2 790 -8 788 -10 c 0
 784 -12 778 -14 770 -14 c 0
 764 -14 753 -12 741 -12 c 0
 575 -4 459 0 389 0 c 0
 326 0 266 -2 209 -6 c 0
 141 -10 95 -14 68 -14 c 0
 58 -14 49 -10 47 -6 c 0
 45 0 43 16 43 39 c 0
 43 55 47 68 51 76 c 0
 55 84 70 95 90 111 c 0
 164 164 258 256 369 385 c 0
 459 489 526 579 571 653 c 0
 602 702 627 747 639 788 c 0
 651 829 655 873 655 922 c 0
 655 988 637 1043 602 1090 c 0
 559 1145 504 1171 434 1171 c 0
 366 1171 305 1145 248 1094 c 0
 238 1084 213 1059 178 1018 c 0
 172 1012 168 1008 164 1008 c 0
 160 1008 147 1014 133 1022 c 0
 119 1032 113 1045 113 1053 c 0
 113 1071 137 1110 184 1171 c 0
 227 1226 277 1270 330 1303 c 0
 406 1350 481 1374 561 1374 c 0
 655 1374 736 1347 797 1292 c 0
 873 1226 907 1135 907 1016 c 0
 907 895 858 774 758 655 c 0
 705 592 664 545 629 510 c 0
 594 475 498 389 344 246 c 2
 315 217 l 1
EndSplineSet
Substitution2: "onumOldstyleFigureslookup subtable" two.onum
Substitution2: "supsSuperscriptlookup subtable" twosuperior
EndChar

StartChar: three
Encoding: 51 51 19
Width: 1019
GlyphClass: 2
Flags: HW
HStem: -27 137<244 465> 1194 190<371 553>
VStem: 586 203<1006 1189> 639 258<338 540>
LayerCount: 2
Fore
SplineSet
612 854 m 1xe0
 671 836 721 807 760 774 c 0
 852 696 897 600 897 479 c 0
 897 385 866 295 803 213 c 0
 746 137 665 80 565 35 c 0
 473 -6 379 -27 283 -27 c 0
 205 -27 145 -11 106 20 c 0
 73 45 59 74 59 109 c 0
 59 134 69 154 92 172 c 0
 117 192 143 203 170 203 c 0
 190 203 228 189 279 158 c 0
 330 127 381 111 428 111 c 0
 502 111 555 135 588 184 c 0
 623 233 639 297 639 379 c 0xd0
 639 479 610 557 557 608 c 0
 537 626 512 643 477 657 c 0
 459 663 444 670 440 670 c 2
 328 664 l 2
 322 664 317 670 317 684 c 2
 317 709 l 2
 317 719 320 727 324 733 c 0
 330 741 375 780 459 848 c 0
 518 895 555 931 569 958 c 0
 579 978 586 998 586 1014 c 0
 586 1057 565 1096 524 1135 c 0
 483 1174 436 1194 389 1194 c 0
 352 1194 316 1167 279 1116 c 0
 271 1104 262 1100 256 1100 c 0
 250 1100 241 1104 233 1112 c 0
 219 1126 213 1141 213 1153 c 0
 213 1163 238 1198 283 1253 c 0
 355 1341 432 1384 520 1384 c 0
 586 1384 647 1364 700 1323 c 0
 759 1278 788 1223 788 1155 c 0
 788 1073 756 998 688 922 c 0
 670 899 643 877 612 854 c 1xe0
EndSplineSet
Substitution2: "onumOldstyleFigureslookup subtable" three.onum
Substitution2: "supsSuperscriptlookup subtable" threesuperior
EndChar

StartChar: four
Encoding: 52 52 20
Width: 1019
GlyphClass: 2
Flags: HMW
HStem: -14 43G<568 573 573 756> 381 182<111 549 274 549 274 549 782 918> 1333 41G<674 745 745 758>
VStem: 549 233<27 381 563 1063 1063 1063>
LayerCount: 2
Fore
SplineSet
549 381 m 1
 121 381 l 2
 101 381 88 381 84 385 c 0
 80 389 78 406 78 426 c 2
 78 508 l 2
 78 526 80 539 82 545 c 0
 82 549 93 563 111 590 c 2
 674 1374 l 1
 745 1374 l 2
 770 1374 782 1362 782 1337 c 2
 782 563 l 1
 918 563 l 2
 934 563 942 555 942 541 c 2
 942 406 l 2
 942 394 940 385 938 383 c 0
 936 381 928 381 918 381 c 2
 782 381 l 1
 782 27 l 2
 782 7 782 -6 780 -8 c 0
 778 -10 770 -14 756 -14 c 2
 573 -14 l 2
 563 -14 555 -12 553 -10 c 0
 551 -8 549 7 549 27 c 2
 549 381 l 1
549 1063 m 1
 264 651 l 2
 241 618 229 596 229 588 c 0
 229 572 243 563 274 563 c 2
 549 563 l 1
 549 1063 l 1
EndSplineSet
Substitution2: "onumOldstyleFigureslookup subtable" four.onum
Substitution2: "supsSuperscriptlookup subtable" foursuperior
EndChar

StartChar: five
Encoding: 53 53 21
Width: 1019
GlyphClass: 2
Flags: HMW
HStem: -27 111<270 445> 725 203<428 446> 1157 201<414 542>
VStem: 664 260<402 455>
LayerCount: 2
Fore
SplineSet
217 666 m 1
 143 684 l 1
 174 907 204 1106 233 1276 c 0
 237 1301 242 1315 242 1315 c 2
 244 1335 250 1350 254 1354 c 0
 260 1358 271 1362 287 1362 c 0
 301 1362 342 1360 414 1358 c 0
 443 1358 486 1356 537 1356 c 0
 623 1356 682 1358 713 1358 c 0
 787 1360 830 1362 844 1362 c 0
 856 1362 862 1356 862 1350 c 0
 862 1346 858 1337 854 1329 c 2
 782 1182 l 2
 774 1164 759 1151 743 1151 c 0
 735 1151 715 1153 688 1155 c 0
 651 1157 588 1157 496 1157 c 0
 416 1157 364 1155 346 1151 c 0
 336 1149 330 1147 326 1141 c 0
 324 1135 317 1122 315 1106 c 2
 291 948 l 2
 289 934 287 926 287 926 c 2
 287 918 291 911 299 911 c 0
 305 911 318 914 332 918 c 0
 359 924 400 928 457 928 c 0
 584 928 688 889 774 815 c 0
 821 774 858 725 885 666 c 0
 912 607 924 545 924 477 c 0
 924 327 858 207 731 117 c 0
 598 23 453 -27 297 -27 c 0
 244 -27 192 -16 147 4 c 0
 94 29 68 68 68 117 c 0
 68 148 78 172 96 195 c 0
 119 220 145 231 178 231 c 0
 201 231 224 223 244 213 c 0
 258 207 276 191 301 164 c 0
 352 111 393 84 426 84 c 0
 465 84 504 100 545 131 c 0
 625 192 664 287 664 412 c 0
 664 498 643 570 604 625 c 0
 559 691 491 725 401 725 c 0
 342 725 280 705 217 666 c 1
EndSplineSet
Substitution2: "onumOldstyleFigureslookup subtable" five.onum
Substitution2: "supsSuperscriptlookup subtable" fivesuperior
EndChar

StartChar: six
Encoding: 54 54 22
Width: 1019
GlyphClass: 2
Flags: HMW
HStem: -18 82<459 569 459 586> 625 137<492 680> 1352 41G<727 738>
VStem: 88 264<408 606> 678 260<328 391>
LayerCount: 2
Fore
SplineSet
352 606 m 1
 385 645 411 674 436 692 c 0
 495 737 561 762 637 762 c 0
 723 762 795 729 848 666 c 0
 907 596 938 502 938 387 c 0
 938 268 903 174 831 100 c 0
 755 20 651 -18 520 -18 c 0
 391 -18 293 18 221 96 c 0
 133 192 88 324 88 492 c 0
 88 715 172 920 336 1106 c 0
 432 1219 538 1305 651 1362 c 0
 692 1382 721 1393 733 1393 c 0
 743 1393 754 1386 760 1374 c 0
 768 1362 772 1352 772 1346 c 0
 772 1342 768 1335 764 1331 c 0
 762 1327 731 1307 674 1264 c 0
 479 1117 372 907 352 635 c 1
 352 606 l 1
348 512 m 1
 346 397 l 2
 344 174 401 63 516 63 c 0
 622 63 678 158 678 348 c 0
 678 434 664 502 635 553 c 0
 608 600 569 625 520 625 c 0
 463 625 405 588 348 512 c 1
EndSplineSet
Substitution2: "onumOldstyleFigureslookup subtable" six.onum
Substitution2: "supsSuperscriptlookup subtable" sixsuperior
EndChar

StartChar: seven
Encoding: 55 55 23
Width: 1019
GlyphClass: 2
Flags: HMW
HStem: -33 43G 1130 229<144 944 229 604>
LayerCount: 2
Fore
SplineSet
240 -33 m 1
 179 -10 135 14 115 37 c 1
 121 53 138 78 156 115 c 2
 614 911 l 2
 673 1013 702 1076 702 1094 c 0
 702 1119 670 1130 604 1130 c 2
 156 1130 l 2
 133 1130 121 1133 117 1135 c 0
 111 1139 106 1143 106 1149 c 0
 106 1155 111 1168 117 1184 c 2
 170 1325 l 2
 176 1345 184 1358 186 1358 c 0
 188 1360 204 1360 229 1360 c 2
 944 1360 l 2
 967 1360 983 1358 987 1354 c 0
 991 1350 995 1339 995 1329 c 0
 995 1315 989 1296 979 1276 c 2
 317 96 l 1
 289 49 l 2
 266 10 250 -19 240 -33 c 1
EndSplineSet
Substitution2: "onumOldstyleFigureslookup subtable" seven.onum
Substitution2: "supsSuperscriptlookup subtable" sevensuperior
EndChar

StartChar: eight
Encoding: 56 56 24
Width: 1019
GlyphClass: 2
Flags: HW
HStem: -25 80<473 535 473 561> 1303 82<490 544>
VStem: 98 190<275 334> 127 213<941 1145> 692 227<291 298> 700 190<1024 1082>
LayerCount: 2
Fore
SplineSet
373 641 m 1xe8
 209 745 127 871 127 1012 c 0
 127 1080 147 1143 188 1206 c 0
 227 1267 276 1315 342 1346 c 0
 397 1373 459 1384 522 1384 c 0
 624 1384 712 1355 782 1296 c 0
 856 1235 891 1159 891 1071 c 0xd4
 891 977 848 895 760 823 c 0
 737 805 702 785 657 758 c 1
 831 635 920 498 920 344 c 0
 920 238 881 150 803 78 c 0
 725 8 625 -25 498 -25 c 0
 385 -25 291 2 215 59 c 0
 137 116 98 195 98 289 c 0
 98 379 135 456 211 528 c 0
 242 557 295 596 373 641 c 1xe8
590 811 m 1
 664 860 700 940 700 1049 c 0
 700 1117 688 1172 659 1219 c 0
 624 1274 575 1303 512 1303 c 0
 459 1303 416 1284 385 1245 c 0
 356 1208 340 1167 340 1122 c 0
 340 1044 385 971 471 895 c 0
 491 877 520 854 555 831 c 0
 578 817 590 811 590 811 c 1
442 594 m 2
 438 592 432 586 426 582 c 0
 336 527 289 436 289 311 c 0
 289 239 307 180 342 135 c 0
 383 82 438 55 508 55 c 0
 561 55 604 76 639 115 c 0
 674 154 692 203 692 260 c 0
 692 336 661 405 598 471 c 0
 561 510 518 542 473 573 c 2
 442 594 l 2
EndSplineSet
Substitution2: "onumOldstyleFigureslookup subtable" eight.onum
Substitution2: "supsSuperscriptlookup subtable" eightsuperior
EndChar

StartChar: nine
Encoding: 57 57 25
Width: 1019
GlyphClass: 2
Flags: HMW
HStem: -33 61 594 135<364 529> 1313 80<456 548>
VStem: 76 250<963 1001> 659 260<850 965 965 978 806 1080>
LayerCount: 2
Fore
SplineSet
655 721 m 1
 626 682 600 655 575 639 c 0
 530 608 477 594 414 594 c 0
 314 594 231 628 170 700 c 0
 141 731 118 770 102 817 c 0
 86 866 76 916 76 965 c 0
 76 1039 92 1110 129 1180 c 0
 166 1252 221 1304 293 1343 c 0
 354 1376 420 1393 492 1393 c 0
 607 1393 702 1352 782 1270 c 0
 872 1176 920 1053 920 903 c 0
 920 708 856 522 731 344 c 0
 641 213 528 107 395 23 c 0
 350 -6 307 -25 264 -33 c 1
 248 -19 238 4 236 29 c 1
 259 45 299 78 365 123 c 0
 553 268 651 467 655 721 c 1
659 850 m 1
 659 965 l 2
 659 1196 605 1313 492 1313 c 0
 381 1313 326 1211 326 1006 c 0
 326 920 340 854 367 807 c 0
 398 756 441 729 498 729 c 0
 561 729 614 770 659 850 c 1
EndSplineSet
Substitution2: "onumOldstyleFigureslookup subtable" nine.onum
Substitution2: "supsSuperscriptlookup subtable" ninesuperior
EndChar

StartChar: colon
Encoding: 58 58 26
Width: 565
GlyphClass: 2
Flags: HMW
HStem: -37 338<234 328> 592 338<236 328 236 328>
VStem: 113 338<86 179 715 808>
LayerCount: 2
Fore
SplineSet
281 301 m 0
 375 301 451 227 451 133 c 0
 451 37 375 -37 281 -37 c 0
 189 -37 113 39 113 133 c 0
 113 225 189 301 281 301 c 0
281 930 m 0
 375 930 451 854 451 762 c 0
 451 668 375 592 281 592 c 0
 189 592 113 668 113 762 c 0
 113 854 191 930 281 930 c 0
EndSplineSet
EndChar

StartChar: semicolon
Encoding: 59 59 27
Width: 565
GlyphClass: 2
Flags: HW
HStem: -332 82 39 264 592 338<242 334 242 334>
VStem: 119 338<715 808> 324 152<-126 120>
LayerCount: 2
Fore
SplineSet
256 303 m 0xe8
 385 303 475 197 475 43 c 0
 475 -53 439 -143 371 -209 c 0
 297 -283 201 -332 135 -332 c 0
 119 -332 104 -310 104 -281 c 0
 104 -267 105 -266 162 -250 c 0
 271 -217 324 -164 324 -88 c 0
 324 -53 312 -24 289 -8 c 0
 269 10 268 10 186 39 c 0
 125 62 100 97 100 158 c 0
 100 244 164 303 256 303 c 0xe8
287 930 m 0
 381 930 457 854 457 762 c 0
 457 668 381 592 287 592 c 0
 195 592 119 668 119 762 c 0xf0
 119 854 197 930 287 930 c 0
EndSplineSet
EndChar

StartChar: less
Encoding: 60 60 28
Width: 2039
GlyphClass: 2
Flags: HW
LayerCount: 2
Fore
SplineSet
1632 1262 m 1
 1632 1069 l 1
 657 633 l 1
 1632 199 l 1
 1632 4 l 1
 408 555 l 1
 408 713 l 1
 1632 1262 l 1
EndSplineSet
EndChar

StartChar: equal
Encoding: 61 61 29
Width: 1699
GlyphClass: 2
Flags: HMW
HStem: 254 166<339 1346 348 1346> 584 166<339 1346 348 1346>
LayerCount: 2
Fore
SplineSet
322 274 m 2
 322 399 l 2
 322 413 330 420 348 420 c 2
 1346 420 l 2
 1364 420 1372 413 1372 399 c 2
 1372 274 l 2
 1372 260 1364 254 1346 254 c 2
 348 254 l 2
 330 254 322 260 322 274 c 2
322 604 m 2
 322 729 l 2
 322 743 330 750 348 750 c 2
 1346 750 l 2
 1364 750 1372 743 1372 729 c 2
 1372 604 l 2
 1372 590 1364 584 1346 584 c 2
 348 584 l 2
 330 584 322 590 322 604 c 2
EndSplineSet
EndChar

StartChar: greater
Encoding: 62 62 30
Width: 2039
GlyphClass: 2
Flags: HW
LayerCount: 2
Fore
SplineSet
408 1262 m 1
 1632 713 l 1
 1632 555 l 1
 408 4 l 1
 408 199 l 1
 1382 633 l 1
 408 1069 l 1
 408 1262 l 1
EndSplineSet
EndChar

StartChar: question
Encoding: 63 63 31
Width: 792
GlyphClass: 2
Flags: HW
HStem: -37 338<263 356 263 356> 1180 242<213 434>
VStem: 141 338<86 179> 264 68 580 111<817 1058>
LayerCount: 2
Fore
SplineSet
244 588 m 2xd8
 236 758 l 1
 236 770 l 2
 236 790 240 797 258 799 c 0
 453 819 580 903 580 1012 c 0
 580 1104 490 1180 379 1180 c 0
 363 1180 338 1178 307 1174 c 0
 280 1170 254 1167 238 1167 c 0
 160 1167 111 1214 111 1290 c 0
 111 1372 168 1421 258 1421 c 0
 373 1421 426 1395 528 1280 c 0
 645 1149 690 1036 690 874 c 0
 690 759 660 696 584 651 c 0
 541 624 518 617 389 578 c 0
 342 566 338 552 332 446 c 0
 330 407 328 406 283 406 c 0
 273 406 268 408 264 410 c 0
 254 420 246 502 244 588 c 2xd8
309 301 m 0
 403 301 479 225 479 133 c 0
 479 39 403 -37 309 -37 c 0
 215 -37 141 39 141 133 c 0xe8
 141 225 217 301 309 301 c 0
EndSplineSet
EndChar

StartChar: at
Encoding: 64 64 32
Width: 1699
GlyphClass: 2
Flags: HW
HStem: -322 156<774 897> -39 174<1161 1211 1161 1254> -18 113<681 722> 891 113<950 997 888 1015> 1163 156<866 1142>
VStem: -20 221<309 497 309 664> 387 217<193 262 174 361> 1534 164<614 823>
LayerCount: 2
Fore
SplineSet
1483 31 m 1xdf
 1575 -35 l 1
 1462 -125 1411 -158 1313 -203 c 0
 1147 -281 977 -322 817 -322 c 0
 629 -322 440 -266 293 -168 c 0
 88 -33 -20 170 -20 416 c 0
 -20 912 418 1319 950 1319 c 0
 1386 1319 1698 1049 1698 668 c 0
 1698 318 1401 -39 1108 -39 c 0xdf
 1024 -39 975 -4 944 84 c 1
 827 4 766 -18 678 -18 c 0xbf
 510 -18 387 107 387 279 c 0
 387 445 465 647 588 801 c 0
 694 932 823 1004 952 1004 c 0
 1042 1004 1100 966 1174 860 c 1
 1212 950 l 1
 1417 950 l 1
 1174 330 l 2
 1125 193 1124 192 1124 176 c 0
 1124 153 1147 135 1176 135 c 0
 1248 135 1347 201 1417 295 c 0
 1489 395 1534 545 1534 684 c 0
 1534 963 1303 1163 981 1163 c 0
 752 1163 547 1071 397 899 c 0
 266 747 201 586 201 408 c 0
 201 211 280 57 436 -47 c 0
 553 -125 698 -166 850 -166 c 0
 1051 -166 1237 -108 1483 31 c 1xdf
983 891 m 0
 917 891 852 836 786 721 c 0
 686 549 604 318 604 207 c 0
 604 141 650 94 713 94 c 0xbf
 776 94 850 155 913 264 c 0
 1017 442 1094 653 1094 770 c 0
 1094 840 1046 891 983 891 c 0
EndSplineSet
EndChar

StartChar: A
Encoding: 65 65 33
Width: 1548
GlyphClass: 2
Flags: HMW
HStem: -12 80 547 102<496 848 496 895 463 848>
LayerCount: 2
Fore
SplineSet
895 547 m 1
 463 547 l 1
 375 291 l 2
 352 221 340 173 340 150 c 0
 340 93 375 74 498 66 c 0
 512 66 514 59 514 39 c 2
 514 12 l 2
 514 -11 512 -12 492 -12 c 0
 476 -12 426 -10 381 -6 c 0
 332 -2 276 0 233 0 c 0
 188 0 164 -2 135 -4 c 0
 92 -8 55 -12 43 -12 c 0
 25 -12 20 -8 20 8 c 2
 20 41 l 2
 20 64 21 64 72 68 c 0
 185 82 187 86 324 475 c 2
 418 743 l 1
 555 1147 l 2
 569 1188 594 1266 604 1307 c 0
 620 1362 624 1368 690 1415 c 2
 766 1470 l 2
 789 1484 789 1485 791 1485 c 0
 797 1485 801 1479 811 1452 c 2
 1298 250 l 2
 1364 94 1387 69 1475 63 c 0
 1506 63 1511 62 1511 39 c 2
 1511 12 l 2
 1511 -6 1504 -12 1481 -12 c 0
 1467 -12 1407 -8 1350 -4 c 0
 1307 -2 1258 0 1221 0 c 0
 1166 0 1120 -2 1059 -6 c 0
 998 -8 927 -12 913 -12 c 0
 895 -12 893 -8 893 12 c 2
 893 43 l 2
 893 68 895 68 938 70 c 0
 1008 72 1047 98 1047 143 c 0
 1047 170 1016 260 969 371 c 2
 895 547 l 1
848 649 m 1
 655 1114 l 1
 496 649 l 1
 848 649 l 1
EndSplineSet
EndChar

StartChar: B
Encoding: 66 66 34
Width: 1359
GlyphClass: 2
Flags: HW
HStem: -12 92<721 804 627 906> 711 92<506 571 506 569> 1333 92<676 731>
VStem: 233 272<272 328 328 711 803 1139 1139 1149> 899 297<1038 1155 1038 1171> 995 297<280 471 267 501>
LayerCount: 2
Fore
SplineSet
63 1366 m 2xf4
 63 1401 l 2
 63 1419 68 1423 78 1423 c 0
 103 1423 135 1421 174 1419 c 0
 229 1415 348 1411 391 1411 c 0
 428 1411 483 1413 557 1419 c 0
 614 1423 661 1425 690 1425 c 0
 833 1425 959 1398 1055 1343 c 0
 1149 1292 1196 1211 1196 1100 c 0xf8
 1196 977 1137 887 1022 836 c 0
 961 809 920 797 811 772 c 1
 940 743 967 737 1022 721 c 0
 1202 666 1292 555 1292 387 c 0
 1292 147 1071 -12 741 -12 c 0
 700 -12 623 -10 543 -6 c 0
 475 -2 420 0 377 0 c 0
 320 0 211 -4 174 -6 c 0
 131 -10 94 -12 78 -12 c 0
 66 -12 61 -8 61 10 c 2
 61 45 l 2
 61 68 61 68 96 70 c 0
 213 74 233 104 233 272 c 2
 233 1139 l 2
 233 1307 213 1337 98 1341 c 0
 63 1343 63 1343 63 1366 c 2xf4
506 803 m 1
 571 803 l 2
 794 803 899 892 899 1087 c 0
 899 1255 819 1333 643 1333 c 0
 530 1333 506 1301 506 1149 c 2
 506 803 l 1
506 711 m 1
 506 328 l 2
 506 135 549 80 705 80 c 0
 904 80 995 176 995 383 c 0xf4
 995 619 874 711 569 711 c 2
 506 711 l 1
EndSplineSet
EndChar

StartChar: C
Encoding: 67 67 35
Width: 1548
GlyphClass: 2
Flags: HMW
HStem: -37 100<881 1013> 1362 100<808 1006 808 1014>
VStem: 74 289<641 833> 1380 98
LayerCount: 2
Fore
SplineSet
1397 1327 m 1
 1434 1069 l 1
 1434 1059 l 2
 1434 1053 1433 1053 1417 1047 c 2
 1384 1038 l 2
 1372 1034 1368 1034 1364 1034 c 0
 1358 1034 1357 1034 1337 1067 c 0
 1196 1300 1108 1362 920 1362 c 0
 601 1362 362 1091 362 729 c 0
 362 553 424 381 535 254 c 0
 639 129 791 63 971 63 c 0
 1125 63 1218 108 1296 217 c 0
 1325 256 1325 256 1380 367 c 0
 1390 387 1395 391 1399 391 c 0
 1401 391 1413 387 1423 385 c 2
 1460 373 l 2
 1476 367 1479 364 1479 356 c 0
 1479 350 1479 351 1473 328 c 2
 1407 66 l 1
 1237 -8 1100 -37 926 -37 c 0
 416 -37 74 266 74 719 c 0
 74 946 164 1131 342 1270 c 0
 502 1395 704 1462 911 1462 c 0
 1099 1462 1278 1413 1397 1327 c 1
EndSplineSet
EndChar

StartChar: D
Encoding: 68 68 36
Width: 1699
GlyphClass: 2
Flags: HMW
HStem: -12 90<721 855> 1364 90<686 821 545 827>
VStem: 244 272<272 301 301 1126 1126 1176> 1325 297<602 806>
LayerCount: 2
Fore
SplineSet
244 272 m 2
 244 1126 l 2
 244 1312 237 1321 102 1321 c 0
 75 1321 74 1323 72 1343 c 2
 70 1368 l 1
 68 1380 l 2
 68 1415 391 1454 698 1454 c 0
 944 1454 1161 1401 1323 1303 c 0
 1516 1184 1622 975 1622 715 c 0
 1622 490 1544 315 1382 184 c 0
 1214 47 1007 -12 702 -12 c 0
 622 -12 538 -10 438 -4 c 0
 405 -2 381 0 367 0 c 0
 355 0 326 -2 285 -4 c 2
 201 -6 l 1
 137 -10 l 2
 108 -12 86 -12 74 -12 c 0
 62 -12 59 -8 59 10 c 2
 59 45 l 2
 59 68 59 68 94 70 c 0
 225 74 244 98 244 272 c 2
516 1176 m 2
 516 301 l 2
 516 209 524 176 553 143 c 0
 592 102 672 78 770 78 c 0
 1096 78 1325 338 1325 711 c 0
 1325 901 1264 1075 1155 1196 c 0
 1053 1311 917 1364 737 1364 c 0
 635 1364 568 1346 539 1307 c 0
 519 1282 516 1266 516 1176 c 2
EndSplineSet
EndChar

StartChar: E
Encoding: 69 69 37
Width: 1284
GlyphClass: 2
Flags: HW
HStem: -10 90 711 92<502 666 502 666> 1343 80 1384 41G<1078 1094>
VStem: 229 272<272 274 274 711 803 1141 1141 1143> 879 84<543 553 553 559> 1030 82
LayerCount: 2
Fore
SplineSet
502 803 m 1xde
 666 803 l 2
 826 803 858 823 885 942 c 0
 893 977 893 977 911 977 c 2
 934 977 l 2
 959 977 963 970 963 952 c 2
 963 942 l 2
 963 936 963 925 961 913 c 2
 961 840 l 2
 959 785 958 747 958 731 c 0
 958 711 959 685 961 662 c 2
 963 590 l 1
 963 553 l 1
 963 543 l 2
 963 523 963 520 934 520 c 2
 903 520 l 2
 880 520 879 526 879 559 c 0
 881 608 870 651 852 676 c 0
 829 707 807 711 666 711 c 2
 502 711 l 1
 502 274 l 2
 502 172 507 144 532 117 c 0
 563 88 594 80 694 80 c 2
 905 80 l 2
 1018 80 1031 86 1090 178 c 2
 1133 246 l 2
 1178 307 1178 307 1190 307 c 0
 1196 307 1204 305 1212 303 c 2
 1245 297 l 2
 1265 293 1270 289 1270 281 c 0
 1270 275 1269 275 1257 242 c 2
 1182 6 l 2
 1178 -10 1175 -12 1163 -12 c 0
 1157 -12 1136 -12 1118 -10 c 2
 858 -8 l 1
 600 -2 l 2
 534 0 484 0 449 0 c 0
 383 0 174 -6 123 -10 c 2
 59 -12 l 2
 47 -12 45 -8 45 10 c 2
 45 45 l 2
 45 70 45 70 80 70 c 0
 211 74 229 98 229 272 c 2
 229 1141 l 2
 229 1311 209 1339 88 1343 c 0
 53 1345 53 1346 53 1366 c 2
 53 1401 l 2
 53 1419 56 1423 68 1423 c 0
 80 1423 98 1423 123 1421 c 0
 158 1419 416 1411 471 1411 c 0
 504 1411 553 1411 614 1413 c 2
 762 1417 l 1
 1049 1423 l 2xee
 1063 1425 1075 1425 1081 1425 c 0
 1106 1425 1110 1422 1110 1389 c 2
 1108 1270 l 1
 1110 1161 l 2
 1112 1149 1112 1135 1112 1133 c 0
 1112 1113 1107 1110 1087 1110 c 2
 1055 1110 l 2
 1035 1110 1032 1112 1030 1147 c 0
 1026 1208 1010 1265 983 1294 c 0
 956 1323 916 1333 807 1333 c 2
 657 1333 l 2
 512 1333 502 1321 502 1143 c 2
 502 803 l 1xde
EndSplineSet
EndChar

StartChar: F
Encoding: 70 70 38
Width: 1284
GlyphClass: 2
Flags: HW
HStem: -12 82 709 92<535 805 535 805> 1341 80 1384 41G<1167 1184>
VStem: 262 272<272 709 801 1139 1139 1167> 1001 90<557 557> 1118 84
LayerCount: 2
Fore
SplineSet
535 709 m 1xde
 535 272 l 2
 535 96 553 74 692 70 c 0
 725 68 727 68 727 45 c 2
 727 10 l 2
 727 -6 723 -12 713 -12 c 0
 699 -12 672 -10 641 -8 c 0
 610 -4 460 0 397 0 c 0
 331 0 187 -4 156 -8 c 0
 127 -10 102 -12 88 -12 c 0
 78 -12 74 -6 74 10 c 2
 74 45 l 2
 74 68 76 68 109 70 c 0
 244 74 262 98 262 272 c 2
 262 1139 l 2
 262 1313 244 1337 109 1341 c 0
 76 1343 74 1343 74 1366 c 2
 74 1401 l 2
 74 1419 78 1423 90 1423 c 2
 156 1421 l 1
 373 1413 l 1
 498 1411 l 2
 510 1411 600 1413 715 1415 c 2
 956 1417 l 1
 1120 1421 l 2xee
 1140 1423 1162 1425 1174 1425 c 0
 1194 1425 1202 1417 1202 1401 c 2
 1198 1270 l 2
 1198 1256 1198 1237 1200 1204 c 2
 1202 1124 l 2
 1202 1106 1196 1100 1178 1100 c 2
 1151 1100 l 2
 1131 1100 1130 1100 1118 1139 c 0
 1071 1272 1055 1295 985 1313 c 0
 950 1321 829 1329 723 1329 c 0
 629 1329 578 1315 553 1280 c 0
 537 1260 535 1241 535 1167 c 2
 535 801 l 1
 805 801 l 2
 967 801 996 818 1012 922 c 0
 1016 957 1017 956 1040 956 c 2
 1065 956 l 2
 1085 956 1092 950 1092 930 c 0
 1092 920 1089 883 1085 840 c 0
 1083 817 1081 789 1081 756 c 0
 1081 699 1082 698 1092 557 c 1
 1092 545 l 2
 1092 527 1085 520 1069 520 c 2
 1040 520 l 2
 1011 520 1009 522 1001 557 c 0
 974 668 924 709 805 709 c 2
 535 709 l 1xde
EndSplineSet
EndChar

StartChar: G
Encoding: 71 71 39
Width: 1662
GlyphClass: 2
Flags: HMW
HStem: -37 100<828 964 828 1020> 555 82<973 981 981 999> 1362 100<834 1021 685 1022>
VStem: 80 297<618 786 618 909> 1223 229<351 436>
LayerCount: 2
Fore
SplineSet
1430 1329 m 1
 1440 1188 l 1
 1446 1116 l 1
 1448 1079 l 2
 1450 1071 1450 1063 1450 1059 c 0
 1450 1047 1443 1044 1427 1044 c 2
 1393 1044 l 2
 1375 1044 1374 1045 1343 1104 c 0
 1255 1280 1121 1362 924 1362 c 0
 744 1362 592 1288 504 1159 c 0
 424 1042 377 870 377 702 c 0
 377 534 424 391 514 268 c 0
 618 129 745 63 911 63 c 0
 1015 63 1104 94 1157 147 c 0
 1202 192 1223 265 1223 365 c 0
 1223 508 1175 557 1036 557 c 0
 1034 557 1017 557 999 555 c 2
 981 555 l 2
 958 555 950 562 950 582 c 2
 950 610 l 2
 950 633 956 637 989 637 c 0
 1012 637 1089 635 1128 633 c 0
 1208 631 1257 629 1282 629 c 2
 1548 637 l 2
 1560 639 1571 639 1577 639 c 0
 1595 639 1604 630 1604 610 c 2
 1604 582 l 2
 1604 557 1600 555 1571 555 c 0
 1475 557 1452 524 1452 385 c 0
 1452 317 1458 168 1462 88 c 1
 1296 4 1121 -37 920 -37 c 0
 412 -37 80 248 80 686 c 0
 80 1132 441 1462 930 1462 c 0
 1112 1462 1266 1421 1430 1329 c 1
EndSplineSet
EndChar

StartChar: H
Encoding: 72 72 40
Width: 1812
GlyphClass: 2
Flags: HMW
HStem: -12 82 698 104<516 1288 516 1288> 1341 82
VStem: 244 272<272 698 803 1139> 1288 272<272 698 698 698 803 1139>
LayerCount: 2
Fore
SplineSet
516 803 m 1
 1288 803 l 1
 1288 1139 l 2
 1288 1313 1270 1337 1139 1341 c 0
 1104 1343 1104 1343 1104 1366 c 2
 1104 1401 l 2
 1104 1419 1106 1423 1118 1423 c 0
 1130 1423 1186 1421 1329 1413 c 0
 1368 1411 1398 1411 1425 1411 c 0
 1439 1411 1522 1415 1667 1421 c 0
 1696 1423 1717 1423 1731 1423 c 0
 1743 1423 1745 1419 1745 1401 c 2
 1745 1366 l 2
 1745 1343 1745 1343 1710 1341 c 0
 1579 1339 1561 1313 1561 1139 c 2
 1561 272 l 2
 1561 98 1579 74 1710 70 c 0
 1745 68 1745 68 1745 45 c 2
 1745 10 l 2
 1745 -8 1743 -12 1731 -12 c 0
 1719 -12 1661 -10 1522 -2 c 0
 1483 0 1450 0 1425 0 c 0
 1409 0 1327 -4 1182 -10 c 0
 1153 -12 1132 -12 1118 -12 c 0
 1106 -12 1104 -8 1104 10 c 2
 1104 45 l 2
 1104 68 1104 68 1139 70 c 0
 1270 74 1288 98 1288 272 c 2
 1288 698 l 1
 516 698 l 1
 516 272 l 2
 516 98 535 74 666 70 c 0
 701 68 700 68 700 45 c 2
 700 10 l 2
 700 -8 698 -12 686 -12 c 0
 674 -12 614 -10 477 -2 c 0
 438 0 406 0 381 0 c 0
 365 0 282 -4 137 -10 c 0
 108 -12 88 -12 74 -12 c 0
 62 -12 59 -8 59 10 c 2
 59 45 l 2
 59 68 59 68 94 70 c 0
 225 74 244 98 244 272 c 2
 244 1139 l 2
 244 1313 225 1337 94 1341 c 0
 59 1343 59 1343 59 1366 c 2
 59 1401 l 2
 59 1419 62 1423 74 1423 c 0
 86 1423 144 1421 283 1413 c 0
 322 1411 354 1411 381 1411 c 0
 395 1411 478 1415 623 1421 c 0
 652 1423 672 1423 686 1423 c 0
 698 1423 700 1419 700 1401 c 2
 700 1366 l 2
 700 1343 701 1343 666 1341 c 0
 535 1337 516 1313 516 1139 c 2
 516 803 l 1
EndSplineSet
EndChar

StartChar: I
Encoding: 73 73 41
Width: 792
GlyphClass: 2
Flags: HMW
HStem: -12 82 1341 82<71 106>
VStem: 256 272<272 1139>
LayerCount: 2
Fore
SplineSet
256 272 m 2
 256 1139 l 2
 256 1311 235 1339 106 1341 c 0
 63 1341 63 1341 63 1366 c 2
 63 1401 l 2
 63 1419 66 1423 76 1423 c 0
 90 1423 197 1419 295 1413 c 0
 334 1411 366 1411 391 1411 c 0
 428 1411 438 1411 555 1417 c 0
 575 1417 606 1419 645 1421 c 0
 672 1423 693 1423 707 1423 c 0
 719 1423 721 1419 721 1401 c 2
 721 1366 l 2
 721 1341 721 1341 678 1341 c 0
 549 1339 528 1311 528 1139 c 2
 528 272 l 2
 528 96 547 74 686 70 c 0
 721 68 721 68 721 45 c 2
 721 10 l 2
 721 -8 719 -12 707 -12 c 0
 695 -12 587 -8 489 -2 c 0
 450 0 418 0 393 0 c 0
 377 0 294 -4 147 -10 c 0
 118 -12 94 -12 78 -12 c 0
 66 -12 63 -8 63 10 c 2
 63 45 l 2
 63 68 63 68 98 70 c 0
 237 72 256 96 256 272 c 2
EndSplineSet
EndChar

StartChar: J
Encoding: 74 74 42
Width: 755
GlyphClass: 2
Flags: HMW
HStem: -481 113<156 179 156 212> 1341 82
VStem: 248 272<-34 174 174 1139>
LayerCount: 2
Fore
SplineSet
520 1139 m 2
 520 174 l 2
 520 -242 355 -481 70 -481 c 0
 -57 -481 -135 -428 -135 -342 c 0
 -135 -272 -76 -213 -4 -213 c 0
 53 -213 72 -230 111 -322 c 0
 125 -355 143 -369 168 -369 c 0
 191 -369 213 -355 227 -332 c 0
 245 -301 248 -280 248 -188 c 2
 248 1139 l 2
 248 1315 229 1337 90 1341 c 0
 57 1343 55 1343 55 1366 c 2
 55 1401 l 2
 55 1419 60 1423 70 1423 c 0
 84 1423 110 1421 139 1419 c 0
 172 1415 326 1411 385 1411 c 0
 440 1411 600 1417 629 1419 c 0
 656 1421 680 1423 692 1423 c 0
 702 1423 705 1419 705 1401 c 2
 705 1366 l 2
 705 1343 705 1343 670 1341 c 0
 539 1337 520 1313 520 1139 c 2
EndSplineSet
EndChar

StartChar: K
Encoding: 75 75 43
Width: 1511
GlyphClass: 2
Flags: HMW
HStem: -12 82 1341 82
VStem: 238 272<272 662 778 1139>
LayerCount: 2
Fore
SplineSet
608 748 m 1
 510 662 l 1
 510 272 l 2
 510 102 530 74 651 70 c 0
 686 68 686 68 686 45 c 2
 686 10 l 2
 686 -6 684 -12 672 -12 c 0
 645 -12 612 -10 569 -8 c 0
 528 -4 408 0 373 0 c 0
 340 0 223 -4 178 -8 c 0
 133 -10 99 -12 70 -12 c 0
 60 -12 55 -8 55 10 c 2
 55 45 l 2
 55 68 55 68 90 70 c 0
 217 74 238 100 238 272 c 2
 238 1139 l 2
 238 1311 217 1337 92 1341 c 0
 57 1343 57 1343 57 1366 c 2
 57 1401 l 2
 57 1419 60 1423 72 1423 c 0
 99 1423 133 1421 178 1419 c 0
 223 1415 340 1411 373 1411 c 0
 408 1411 526 1415 569 1419 c 0
 614 1421 649 1423 676 1423 c 0
 686 1423 690 1419 690 1401 c 2
 690 1366 l 2
 690 1343 690 1343 655 1341 c 0
 530 1337 510 1311 510 1139 c 2
 510 778 l 1
 526 791 l 1
 563 823 l 2
 682 923 860 1106 946 1212 c 0
 971 1245 987 1276 987 1294 c 0
 987 1327 944 1341 854 1341 c 0
 827 1339 823 1343 823 1370 c 2
 823 1401 l 2
 823 1417 830 1423 844 1423 c 0
 852 1423 852 1423 948 1415 c 0
 991 1413 1030 1411 1053 1411 c 0
 1076 1411 1091 1411 1298 1421 c 0
 1312 1423 1327 1423 1329 1423 c 0
 1349 1423 1356 1417 1356 1401 c 2
 1356 1370 l 2
 1356 1339 1354 1337 1270 1339 c 0
 1196 1335 1172 1321 1090 1235 c 2
 819 946 l 1
 1292 223 l 2
 1372 98 1409 74 1511 68 c 0
 1523 68 1526 63 1526 45 c 2
 1526 16 l 2
 1526 -9 1524 -12 1501 -12 c 2
 1130 0 l 2
 1105 0 952 -8 905 -10 c 0
 893 -12 882 -12 874 -12 c 0
 854 -12 850 -9 850 16 c 2
 850 45 l 2
 850 70 856 72 915 72 c 0
 976 72 1001 84 1001 115 c 0
 1001 131 995 145 950 213 c 2
 608 748 l 1
EndSplineSet
EndChar

StartChar: L
Encoding: 76 76 44
Width: 1245
GlyphClass: 2
Flags: HMW
HStem: 0 82<507 885> 1341 82
VStem: 248 272<272 287 287 1139>
LayerCount: 2
Fore
SplineSet
248 272 m 2
 248 1139 l 2
 248 1317 229 1339 86 1341 c 0
 53 1343 51 1343 51 1366 c 2
 51 1401 l 2
 51 1419 56 1423 70 1423 c 0
 82 1423 110 1421 139 1419 c 0
 202 1415 309 1411 385 1411 c 0
 457 1411 578 1415 623 1419 c 0
 652 1421 680 1423 690 1423 c 0
 702 1423 707 1419 707 1401 c 2
 707 1366 l 2
 707 1343 705 1343 672 1341 c 0
 539 1337 520 1313 520 1139 c 2
 520 287 l 2
 520 187 528 156 557 127 c 0
 592 96 662 82 793 82 c 0
 977 82 1034 113 1114 254 c 2
 1143 305 l 2
 1153 323 1157 328 1163 328 c 0
 1167 328 1168 328 1186 324 c 2
 1214 315 l 2
 1241 309 1241 309 1241 299 c 0
 1241 287 1241 287 1210 168 c 2
 1169 12 l 2
 1165 -4 1163 -6 1149 -6 c 0
 1145 -6 1132 -6 1122 -4 c 0
 1089 -2 758 0 561 0 c 0
 452 0 256 -4 147 -10 c 0
 118 -12 92 -12 76 -12 c 0
 62 -12 59 -8 59 10 c 2
 59 45 l 2
 59 68 59 68 94 70 c 0
 229 72 248 96 248 272 c 2
EndSplineSet
EndChar

StartChar: M
Encoding: 77 77 45
Width: 1925
GlyphClass: 2
Flags: HMW
HStem: -12 80 1339 86<45 50 42 126>
VStem: 221 80 1415 264<307 862 862 956>
LayerCount: 2
Fore
SplineSet
952 463 m 1
 1321 1298 l 2
 1346 1355 1356 1384 1364 1425 c 1
 1403 1421 l 1
 1493 1415 l 2
 1522 1413 1558 1411 1597 1411 c 0
 1638 1411 1675 1413 1708 1415 c 0
 1755 1421 1794 1423 1819 1423 c 0
 1839 1423 1847 1415 1847 1395 c 2
 1847 1366 l 2
 1847 1343 1841 1339 1804 1339 c 0
 1761 1339 1726 1333 1708 1321 c 0
 1683 1305 1679 1286 1679 1198 c 2
 1679 272 l 2
 1679 98 1698 74 1833 70 c 0
 1868 68 1868 68 1868 45 c 2
 1868 10 l 2
 1868 -8 1865 -12 1853 -12 c 0
 1837 -12 1811 -10 1778 -8 c 0
 1741 -6 1562 0 1503 0 c 0
 1442 0 1376 -2 1292 -8 c 0
 1261 -10 1239 -12 1235 -12 c 0
 1219 -12 1217 -8 1217 8 c 2
 1217 33 l 2
 1217 64 1220 70 1243 68 c 0
 1315 66 1362 74 1380 92 c 0
 1405 117 1415 178 1415 307 c 2
 1415 862 l 2
 1415 1050 1413 1131 1409 1221 c 1
 1348 1087 l 2
 1213 806 1053 401 940 51 c 0
 909 -47 909 -47 874 -47 c 0
 841 -47 833 -45 827 -41 c 0
 821 -35 822 -35 795 47 c 0
 775 119 674 381 635 471 c 2
 348 1124 l 1
 305 342 l 2
 303 303 301 254 301 240 c 0
 301 138 346 86 446 76 c 0
 503 70 508 67 508 49 c 2
 508 12 l 2
 508 -8 502 -12 473 -12 c 0
 465 -12 434 -10 397 -6 c 0
 344 -2 305 0 291 0 c 2
 113 -8 l 2
 101 -10 90 -10 78 -10 c 0
 60 -12 51 -12 49 -12 c 0
 26 -12 18 -6 18 12 c 2
 18 41 l 2
 18 70 20 70 86 72 c 0
 133 74 172 86 184 104 c 0
 194 122 213 323 221 524 c 0
 231 831 233 868 233 868 c 1
 244 1157 l 2
 244 1292 196 1339 55 1339 c 0
 35 1339 33 1344 33 1364 c 2
 33 1401 l 2
 33 1419 37 1425 47 1425 c 0
 53 1425 88 1423 283 1411 c 0
 320 1411 336 1413 508 1425 c 1
 952 463 l 1
EndSplineSet
EndChar

StartChar: N
Encoding: 78 78 46
Width: 1736
GlyphClass: 2
Flags: HMW
HStem: -12 82<69 72 62 98> 1339 84<1234 1248 1232 1287 1680 1686>
VStem: 258 121<303 1022 1022 1057> 1401 121<551 1120>
LayerCount: 2
Fore
SplineSet
776 1106 m 1
 1393 393 l 1
 1399 430 1401 479 1401 551 c 2
 1401 1139 l 2
 1401 1248 1398 1265 1382 1294 c 0
 1364 1323 1318 1339 1255 1339 c 0
 1212 1339 1210 1339 1210 1366 c 2
 1210 1391 l 2
 1210 1416 1218 1423 1245 1423 c 0
 1251 1423 1364 1417 1507 1411 c 0
 1542 1411 1561 1413 1659 1421 c 0
 1669 1423 1677 1423 1683 1423 c 0
 1701 1423 1706 1418 1706 1391 c 2
 1706 1366 l 2
 1706 1343 1700 1339 1671 1339 c 0
 1550 1341 1522 1300 1522 1120 c 2
 1522 180 l 2
 1522 133 1522 45 1524 6 c 2
 1524 -25 l 2
 1524 -41 1517 -47 1499 -47 c 2
 1477 -47 l 2
 1426 -47 1418 -43 1393 -20 c 0
 1364 9 1329 47 1266 119 c 2
 438 1079 l 2
 413 1108 397 1122 391 1122 c 0
 383 1122 379 1106 379 1057 c 2
 379 303 l 2
 379 174 387 131 416 98 c 0
 443 71 459 70 559 68 c 0
 573 68 578 61 578 43 c 2
 578 12 l 2
 578 -8 573 -12 553 -12 c 0
 545 -12 534 -12 522 -10 c 0
 487 -8 352 0 340 0 c 0
 309 0 266 -2 203 -6 c 0
 148 -10 113 -12 84 -12 c 0
 53 -12 47 -7 47 18 c 2
 47 43 l 2
 47 63 54 70 72 70 c 0
 224 68 258 110 258 303 c 2
 258 1022 l 2
 258 1184 246 1257 213 1298 c 0
 190 1325 135 1341 72 1339 c 0
 31 1339 27 1341 27 1366 c 2
 27 1391 l 2
 27 1418 33 1425 53 1425 c 0
 61 1425 61 1425 133 1419 c 0
 188 1413 231 1411 254 1411 c 0
 270 1411 293 1413 453 1423 c 0
 465 1425 481 1425 487 1425 c 0
 516 1425 522 1421 551 1372 c 1
 776 1106 l 1
EndSplineSet
EndChar

StartChar: O
Encoding: 79 79 47
Width: 1775
GlyphClass: 2
Flags: HMW
HStem: -37 98<761 985 761 1090> 1364 98<698 926>
VStem: 78 297<592 918> 1389 297<552 734>
LayerCount: 2
Fore
SplineSet
881 1462 m 0
 1344 1462 1686 1155 1686 737 c 0
 1686 295 1329 -37 850 -37 c 0
 391 -37 78 262 78 700 c 0
 78 1134 424 1462 881 1462 c 0
844 1364 m 0
 553 1364 375 1151 375 805 c 0
 375 379 606 61 915 61 c 0
 1054 61 1188 127 1274 238 c 0
 1350 336 1389 469 1389 635 c 0
 1389 834 1335 1024 1245 1155 c 0
 1155 1288 1008 1364 844 1364 c 0
EndSplineSet
EndChar

StartChar: P
Encoding: 80 80 48
Width: 1284
GlyphClass: 2
Flags: HMW
HStem: -12 82 616 90 1362 90<631 675 494 740>
VStem: 250 272<272 1178 1178 1196> 913 297<928 1085 928 1125>
LayerCount: 2
Fore
SplineSet
250 272 m 2
 250 1178 l 2
 250 1315 236 1339 158 1339 c 2
 111 1337 l 2
 105 1335 96 1335 92 1335 c 0
 72 1335 63 1347 63 1382 c 0
 63 1394 66 1401 72 1405 c 0
 99 1425 397 1452 590 1452 c 0
 760 1452 919 1413 1034 1343 c 0
 1151 1273 1210 1159 1210 1012 c 0
 1210 844 1133 730 977 664 c 0
 903 635 809 616 721 616 c 0
 643 616 625 625 625 664 c 0
 625 705 631 709 674 707 c 0
 838 705 913 801 913 1012 c 0
 913 1239 823 1362 657 1362 c 0
 604 1362 565 1348 545 1323 c 0
 525 1298 522 1284 522 1196 c 2
 522 272 l 2
 522 94 539 74 686 70 c 0
 721 68 721 68 721 45 c 2
 721 10 l 2
 721 -8 717 -12 705 -12 c 2
 702 -12 l 1
 579 -4 469 0 387 0 c 0
 311 0 172 -4 141 -8 c 0
 116 -10 96 -12 84 -12 c 0
 74 -12 70 -8 70 10 c 2
 70 45 l 2
 70 68 69 68 104 70 c 0
 229 74 250 100 250 272 c 2
EndSplineSet
EndChar

StartChar: Q
Encoding: 81 81 49
Width: 1773
GlyphClass: 2
Flags: HMW
HStem: -406 82 -37 98<840 840> 1364 98<825 896>
VStem: 84 297<712 772> 1395 297<659 705>
LayerCount: 2
Fore
SplineSet
840 -37 m 1
 664 -35 510 14 381 102 c 0
 281 172 203 264 150 375 c 0
 105 469 84 573 84 688 c 0
 84 856 129 1004 217 1133 c 0
 303 1254 414 1344 555 1401 c 0
 655 1442 766 1462 885 1462 c 0
 1096 1462 1277 1403 1427 1286 c 0
 1603 1147 1692 964 1692 737 c 0
 1692 581 1651 442 1567 315 c 0
 1471 165 1327 63 1145 6 c 1
 1153 -25 1161 -45 1165 -57 c 0
 1239 -239 1401 -328 1647 -324 c 1
 1647 -389 l 1
 1581 -399 1510 -406 1434 -406 c 0
 1299 -406 1192 -381 1108 -332 c 0
 1059 -303 1012 -262 969 -209 c 0
 936 -168 901 -121 862 -68 c 2
 840 -37 l 1
850 1364 m 0
 748 1364 656 1335 578 1280 c 0
 447 1186 381 1028 381 805 c 0
 381 619 424 454 510 313 c 0
 612 145 750 61 922 61 c 0
 1020 61 1108 91 1188 150 c 0
 1325 250 1395 414 1395 635 c 0
 1395 774 1370 903 1323 1020 c 0
 1272 1147 1200 1237 1104 1294 c 0
 1028 1339 942 1364 850 1364 c 0
EndSplineSet
Substitution2: "swshSwashlookup subtable" Q.swsh
EndChar

StartChar: R
Encoding: 82 82 50
Width: 1511
GlyphClass: 2
Flags: HMW
HStem: -12 82<647 669 604 671> 709 92<516 688> 1329 96<626 894>
VStem: 244 272<272 297 297 709 803 1139 1139 1141> 905 297<1032 1147>
LayerCount: 2
Fore
SplineSet
516 709 m 1
 516 297 l 2
 516 137 557 70 651 70 c 0
 686 70 690 68 690 45 c 2
 690 20 l 2
 690 -11 686 -12 655 -12 c 0
 639 -12 590 -10 547 -6 c 0
 490 -2 443 0 416 0 c 0
 400 0 354 -2 293 -4 c 2
 197 -8 l 1
 137 -10 l 2
 106 -12 84 -12 66 -12 c 0
 56 -12 51 -8 51 10 c 2
 51 45 l 2
 51 68 53 68 86 70 c 0
 225 74 244 96 244 272 c 2
 244 1139 l 2
 244 1313 225 1337 92 1341 c 0
 57 1343 57 1343 57 1366 c 2
 57 1401 l 2
 57 1417 62 1423 72 1423 c 0
 76 1423 236 1417 336 1413 c 0
 373 1411 403 1411 432 1411 c 0
 473 1411 534 1413 610 1419 c 0
 671 1423 727 1425 766 1425 c 0
 1022 1425 1202 1284 1202 1085 c 0
 1202 979 1147 889 1051 840 c 0
 1002 815 965 800 877 780 c 1
 945 729 995 666 1077 539 c 2
 1264 242 l 2
 1336 121 1387 80 1483 68 c 0
 1518 68 1518 68 1518 45 c 2
 1518 6 l 2
 1518 -8 1515 -12 1503 -12 c 0
 1497 -12 1489 -12 1481 -10 c 0
 1440 -6 1333 0 1288 0 c 0
 1263 0 1237 -2 1208 -6 c 0
 1175 -10 1149 -12 1135 -12 c 0
 1092 -12 1079 0 1022 98 c 2
 758 561 l 2
 680 694 661 707 516 709 c 1
516 1141 m 2
 516 803 l 1
 547 801 561 801 586 801 c 0
 791 801 905 895 905 1065 c 0
 905 1229 809 1329 653 1329 c 0
 598 1329 557 1313 539 1284 c 0
 521 1257 516 1229 516 1141 c 2
EndSplineSet
EndChar

StartChar: S
Encoding: 83 83 51
Width: 1095
GlyphClass: 2
Flags: HW
HStem: -37 90<430 595 430 641> 1370 92<488 634>
VStem: 94 86 100 213<1091 1161> 801 213<272 350> 829 96
LayerCount: 2
Fore
SplineSet
926 1350 m 1xd4
 926 1133 l 2
 926 1100 923 1098 905 1098 c 2
 862 1098 l 2
 833 1098 833 1097 829 1126 c 0
 798 1282 704 1370 563 1370 c 0
 413 1370 313 1282 313 1151 c 0xd4
 313 1030 385 958 602 862 c 0
 770 788 854 739 911 680 c 0
 981 606 1014 517 1014 406 c 0
 1014 140 800 -37 481 -37 c 0
 348 -37 236 -10 121 45 c 1
 94 297 l 2
 92 317 97 322 117 322 c 2
 150 322 l 2
 173 322 174 319 180 303 c 0
 239 139 350 53 510 53 c 0
 680 53 801 150 801 285 c 0xe8
 801 416 736 483 496 592 c 0
 191 731 100 833 100 1038 c 0
 100 1284 295 1462 563 1462 c 0
 708 1462 846 1420 926 1350 c 1xd4
EndSplineSet
EndChar

StartChar: T
Encoding: 84 84 52
Width: 1359
GlyphClass: 2
Flags: HW
HStem: -12 82 1321 100<307 1030 350 551 823 823 823 1020>
VStem: 551 272<272 1321> 1194 94<1158 1163 1153 1171> 1255 86<1490 1511>
LayerCount: 2
Fore
SplineSet
551 1321 m 1xf0
 350 1321 l 2
 264 1321 244 1317 209 1286 c 0
 178 1259 152 1220 123 1163 c 0
 100 1118 98 1116 80 1116 c 0
 37 1116 20 1121 20 1133 c 0
 20 1135 21 1143 23 1151 c 2
 72 1473 l 2
 76 1508 80 1511 111 1511 c 2
 156 1511 l 1
 199 1435 229 1421 350 1421 c 2
 1030 1421 l 2
 1173 1421 1228 1441 1255 1511 c 1
 1303 1511 l 2
 1336 1511 1341 1507 1341 1493 c 0xe8
 1341 1487 1339 1474 1337 1464 c 0
 1302 1304 1296 1263 1288 1163 c 0
 1288 1143 1285 1139 1262 1139 c 0
 1207 1139 1194 1144 1194 1171 c 2
 1196 1219 l 2
 1198 1299 1159 1321 1020 1321 c 2
 823 1321 l 1
 823 272 l 2
 823 96 842 74 983 70 c 0
 1016 68 1018 68 1018 45 c 2
 1018 10 l 2
 1018 -8 1014 -12 1004 -12 c 0
 986 -12 955 -10 920 -8 c 0
 877 -4 779 0 705 0 c 0
 652 0 496 -4 471 -6 c 0
 424 -10 387 -12 373 -12 c 0
 359 -12 356 -8 356 10 c 2
 356 45 l 2
 356 68 356 68 391 70 c 0
 532 74 551 94 551 272 c 2
 551 1321 l 1xf0
EndSplineSet
EndChar

StartChar: U
Encoding: 85 85 53
Width: 1660
GlyphClass: 2
Flags: HMW
HStem: -43 150<741 923> 1341 82
VStem: 229 272<455 471 471 1139> 1331 121<549 1139>
LayerCount: 2
Fore
SplineSet
502 1139 m 2
 502 471 l 2
 502 209 607 106 877 106 c 0
 1072 106 1204 161 1276 274 c 0
 1319 346 1331 402 1331 549 c 2
 1331 1139 l 2
 1331 1313 1313 1337 1178 1341 c 0
 1143 1343 1143 1343 1143 1366 c 2
 1143 1401 l 2
 1143 1419 1147 1423 1157 1423 c 0
 1173 1423 1196 1421 1227 1419 c 0
 1262 1415 1356 1411 1391 1411 c 0
 1430 1411 1521 1415 1552 1419 c 0
 1587 1421 1612 1423 1628 1423 c 0
 1638 1423 1642 1417 1642 1401 c 2
 1642 1366 l 2
 1642 1343 1643 1343 1608 1341 c 0
 1471 1337 1452 1315 1452 1139 c 2
 1452 549 l 2
 1452 344 1417 235 1323 137 c 0
 1210 20 1032 -43 813 -43 c 0
 590 -43 409 20 319 131 c 0
 256 211 229 305 229 455 c 2
 229 1139 l 2
 229 1313 211 1337 80 1341 c 0
 45 1343 45 1343 45 1366 c 2
 45 1401 l 2
 45 1419 47 1423 57 1423 c 0
 63 1423 70 1423 78 1421 c 0
 119 1417 292 1411 362 1411 c 0
 444 1411 514 1413 606 1419 c 0
 647 1421 668 1423 680 1423 c 0
 694 1423 696 1419 696 1401 c 2
 696 1366 l 2
 696 1343 697 1343 662 1341 c 0
 521 1339 502 1317 502 1139 c 2
EndSplineSet
EndChar

StartChar: V
Encoding: 86 86 54
Width: 1511
GlyphClass: 2
Flags: HMW
HStem: 1341 84<629 629>
LayerCount: 2
Fore
SplineSet
707 4 m 2
 291 1038 l 2
 189 1294 159 1331 53 1341 c 0
 10 1345 8 1345 8 1370 c 2
 8 1399 l 2
 8 1419 15 1425 35 1425 c 0
 41 1425 58 1423 74 1421 c 2
 305 1411 l 2
 338 1411 344 1411 588 1423 c 0
 604 1425 619 1425 631 1425 c 0
 656 1425 664 1420 664 1397 c 2
 664 1366 l 2
 664 1343 656 1337 629 1341 c 2
 614 1343 l 2
 591 1345 545 1339 520 1329 c 0
 504 1321 492 1306 492 1290 c 0
 492 1272 503 1235 532 1163 c 2
 842 391 l 2
 852 364 860 352 866 352 c 0
 872 352 883 366 893 391 c 2
 1174 1114 l 2
 1207 1196 1219 1243 1219 1276 c 0
 1219 1303 1206 1323 1186 1329 c 0
 1168 1335 1122 1343 1110 1343 c 2
 1059 1339 l 2
 1045 1337 1038 1347 1038 1370 c 2
 1038 1399 l 2
 1038 1417 1049 1425 1067 1425 c 0
 1077 1425 1090 1425 1104 1423 c 0
 1153 1417 1251 1411 1294 1411 c 0
 1333 1411 1413 1417 1448 1421 c 0
 1464 1423 1479 1425 1487 1425 c 0
 1501 1425 1507 1417 1507 1399 c 2
 1507 1370 l 2
 1507 1345 1505 1343 1466 1341 c 0
 1390 1325 1380 1313 1286 1077 c 2
 848 -6 l 2
 834 -39 830 -45 805 -45 c 2
 752 -45 l 2
 729 -45 725 -39 707 4 c 2
EndSplineSet
EndChar

StartChar: W
Encoding: 87 87 55
Width: 2039
GlyphClass: 2
Flags: HMW
HStem: 1341 84<616 616 1249 1249 1581 1581>
LayerCount: 2
Fore
SplineSet
1077 475 m 1
 858 -29 l 2
 852 -43 850 -45 834 -45 c 2
 782 -45 l 2
 759 -45 757 -41 739 10 c 0
 723 55 704 96 686 135 c 2
 578 381 l 1
 256 1085 l 2
 172 1273 117 1341 51 1343 c 0
 22 1343 20 1345 20 1372 c 2
 20 1397 l 2
 20 1417 28 1425 55 1425 c 0
 69 1425 123 1421 170 1417 c 0
 215 1413 254 1411 287 1411 c 0
 332 1411 340 1411 469 1423 c 0
 483 1425 500 1425 510 1425 c 0
 526 1425 532 1421 532 1403 c 2
 532 1372 l 2
 532 1347 529 1343 504 1343 c 0
 475 1345 451 1331 451 1313 c 0
 451 1297 469 1245 494 1190 c 2
 893 307 l 1
 1028 612 l 1
 764 1227 l 2
 729 1307 729 1307 717 1317 c 0
 701 1333 661 1345 641 1343 c 2
 616 1341 l 2
 602 1339 598 1348 598 1362 c 2
 598 1397 l 2
 598 1417 605 1425 621 1425 c 0
 629 1425 646 1423 662 1421 c 0
 693 1417 811 1411 868 1411 c 0
 909 1411 952 1413 999 1417 c 0
 1044 1423 1085 1425 1110 1425 c 0
 1128 1425 1137 1419 1137 1405 c 2
 1137 1368 l 2
 1137 1345 1132 1345 1071 1341 c 0
 1038 1341 1020 1329 1020 1313 c 0
 1020 1307 1034 1266 1063 1190 c 2
 1176 903 l 1
 1249 1057 l 2
 1302 1172 1337 1263 1337 1292 c 0
 1337 1321 1303 1347 1268 1343 c 2
 1249 1341 l 2
 1239 1339 1235 1347 1235 1370 c 2
 1235 1397 l 2
 1235 1422 1239 1425 1255 1425 c 0
 1265 1425 1278 1423 1294 1421 c 0
 1325 1417 1403 1411 1430 1411 c 0
 1459 1411 1480 1413 1554 1423 c 0
 1562 1425 1573 1425 1577 1425 c 0
 1593 1425 1597 1420 1597 1397 c 2
 1597 1372 l 2
 1597 1345 1595 1339 1581 1341 c 2
 1559 1343 l 2
 1539 1345 1503 1335 1487 1321 c 0
 1469 1307 1469 1307 1430 1219 c 2
 1225 780 l 1
 1395 362 l 1
 1737 1176 l 2
 1770 1256 1778 1277 1778 1300 c 0
 1778 1329 1769 1333 1706 1341 c 0
 1688 1345 1686 1347 1686 1372 c 2
 1686 1397 l 2
 1686 1420 1690 1425 1706 1425 c 0
 1718 1425 1751 1421 1782 1417 c 0
 1811 1413 1832 1411 1855 1411 c 0
 1873 1411 1951 1419 1978 1423 c 0
 1988 1425 1997 1425 2003 1425 c 0
 2019 1425 2025 1417 2025 1397 c 2
 2025 1372 l 2
 2025 1345 2025 1343 2007 1341 c 0
 1952 1337 1939 1325 1888 1235 c 0
 1812 1088 1607 606 1460 231 c 1
 1366 -27 l 2
 1360 -43 1359 -45 1341 -45 c 2
 1298 -45 l 2
 1282 -45 1278 -43 1274 -27 c 2
 1174 250 l 2
 1127 367 1095 438 1077 475 c 1
EndSplineSet
EndChar

StartChar: X
Encoding: 88 88 56
Width: 1548
GlyphClass: 2
Flags: HMW
HStem: -12 80<527 549> 1346 80<61 76 676 685 987 999>
LayerCount: 2
Fore
SplineSet
653 653 m 1
 344 1094 l 2
 264 1205 235 1243 180 1311 c 0
 160 1336 133 1344 76 1346 c 0
 47 1346 45 1347 45 1372 c 2
 45 1401 l 2
 45 1419 52 1425 72 1425 c 0
 80 1425 97 1425 113 1423 c 0
 197 1417 307 1411 338 1411 c 0
 365 1411 426 1413 512 1419 c 0
 567 1423 629 1425 664 1425 c 0
 707 1425 713 1424 713 1401 c 2
 713 1378 l 2
 713 1349 709 1346 676 1346 c 0
 596 1348 555 1331 555 1298 c 0
 555 1273 559 1268 614 1188 c 2
 827 877 l 1
 1044 1167 l 2
 1083 1220 1110 1271 1110 1294 c 0
 1110 1327 1073 1344 999 1346 c 0
 958 1346 958 1345 958 1372 c 2
 958 1401 l 2
 958 1419 969 1425 1006 1425 c 0
 1037 1425 1104 1423 1147 1419 c 0
 1217 1415 1276 1411 1296 1411 c 0
 1325 1411 1345 1413 1376 1417 c 0
 1411 1421 1444 1425 1456 1425 c 0
 1474 1425 1485 1417 1485 1401 c 2
 1485 1372 l 2
 1485 1345 1479 1341 1448 1341 c 0
 1331 1339 1266 1294 1155 1147 c 2
 889 786 l 1
 1194 344 l 2
 1360 108 1407 64 1489 68 c 0
 1516 70 1522 65 1522 45 c 2
 1522 16 l 2
 1522 -7 1516 -12 1493 -12 c 0
 1485 -12 1466 -12 1448 -10 c 0
 1397 -6 1211 0 1174 0 c 0
 1137 0 1087 -2 1030 -4 c 0
 934 -10 889 -12 864 -12 c 0
 837 -12 836 -11 836 16 c 2
 836 45 l 2
 836 68 838 70 881 70 c 0
 965 72 1001 88 1001 123 c 0
 1001 154 985 184 922 272 c 2
 717 559 l 1
 481 231 l 2
 438 172 418 133 418 115 c 0
 418 82 457 68 539 68 c 0
 562 68 565 63 565 45 c 2
 565 16 l 2
 565 -9 562 -12 537 -12 c 0
 519 -12 514 -12 446 -6 c 0
 407 -2 379 0 352 0 c 0
 319 0 119 -8 94 -10 c 0
 80 -12 69 -12 61 -12 c 0
 38 -12 35 -7 35 16 c 2
 35 45 l 2
 35 65 43 72 66 72 c 0
 205 78 215 84 360 260 c 1
 653 653 l 1
EndSplineSet
EndChar

StartChar: Y
Encoding: 89 89 57
Width: 1435
GlyphClass: 2
Flags: HMW
HStem: -12 82 1339 84<623 639>
VStem: 594 272<272 588 588 598>
LayerCount: 2
Fore
SplineSet
829 797 m 1
 1063 1155 l 2
 1108 1225 1133 1275 1133 1300 c 0
 1133 1325 1092 1337 1012 1337 c 0
 983 1337 979 1341 979 1368 c 2
 979 1395 l 2
 979 1418 983 1423 1001 1423 c 0
 1007 1423 1016 1423 1024 1421 c 0
 1081 1413 1127 1411 1190 1411 c 0
 1249 1411 1331 1415 1376 1421 c 0
 1388 1423 1401 1423 1407 1423 c 0
 1423 1423 1427 1418 1427 1395 c 2
 1427 1368 l 2
 1427 1343 1428 1343 1389 1339 c 0
 1319 1331 1255 1266 1124 1067 c 2
 911 731 l 2
 878 680 872 667 868 657 c 0
 866 649 866 645 866 598 c 2
 866 272 l 2
 866 94 883 74 1024 70 c 0
 1059 68 1059 68 1059 45 c 2
 1059 10 l 2
 1059 -8 1056 -12 1044 -12 c 0
 1028 -12 1004 -10 973 -8 c 0
 926 -4 797 0 727 0 c 0
 653 0 534 -4 487 -8 c 0
 458 -10 436 -12 420 -12 c 0
 410 -12 406 -6 406 10 c 2
 406 45 l 2
 406 68 407 68 440 70 c 0
 575 74 594 98 594 272 c 2
 594 588 l 2
 594 660 594 660 555 717 c 2
 274 1143 l 2
 168 1305 121 1343 31 1343 c 0
 15 1343 10 1348 10 1368 c 2
 10 1395 l 2
 10 1415 18 1423 45 1423 c 0
 57 1423 70 1423 84 1421 c 0
 156 1417 344 1411 383 1411 c 0
 426 1411 467 1413 510 1415 c 0
 596 1421 619 1423 627 1423 c 0
 652 1423 655 1418 655 1395 c 2
 655 1368 l 2
 655 1343 652 1339 627 1339 c 0
 527 1339 498 1332 498 1303 c 0
 498 1285 510 1262 557 1192 c 2
 829 797 l 1
EndSplineSet
EndChar

StartChar: Z
Encoding: 90 90 58
Width: 1359
GlyphClass: 2
Flags: HMW
HStem: 0 86<640 710> 1307 90<658 709 658 874>
VStem: 90 115
LayerCount: 2
Fore
SplineSet
152 1087 m 2
 90 1120 l 1
 108 1175 115 1198 129 1249 c 0
 139 1280 140 1280 154 1339 c 0
 162 1370 170 1399 176 1430 c 0
 182 1446 186 1465 190 1483 c 1
 229 1493 l 2
 239 1495 250 1497 256 1497 c 0
 270 1497 270 1497 311 1450 c 0
 334 1421 356 1411 393 1407 c 0
 452 1403 631 1397 686 1397 c 0
 731 1397 1147 1405 1225 1409 c 2
 1247 1409 l 2
 1280 1409 1294 1400 1294 1386 c 0
 1294 1372 1282 1350 1255 1309 c 0
 1237 1284 1220 1258 1204 1231 c 2
 1075 1030 l 1
 887 748 l 1
 571 297 l 2
 475 160 440 106 440 96 c 0
 440 88 440 88 477 86 c 2
 805 86 l 2
 1014 86 1110 136 1184 283 c 0
 1202 316 1209 324 1221 324 c 0
 1223 324 1229 324 1235 322 c 2
 1270 313 l 2
 1290 309 1298 303 1298 293 c 0
 1298 281 1287 239 1264 178 c 0
 1237 106 1231 88 1223 35 c 0
 1217 -4 1211 -12 1188 -12 c 0
 1165 -12 1114 -10 1065 -8 c 0
 973 -4 752 0 668 0 c 0
 613 0 227 -8 174 -10 c 0
 141 -12 110 -12 92 -12 c 0
 65 -12 51 -2 51 14 c 0
 51 37 54 39 154 176 c 2
 852 1200 l 2
 893 1261 907 1284 907 1294 c 0
 907 1304 899 1307 874 1307 c 2
 543 1307 l 2
 344 1307 289 1277 205 1130 c 0
 185 1091 176 1081 170 1081 c 0
 164 1081 160 1083 152 1087 c 2
EndSplineSet
EndChar

StartChar: bracketleft
Encoding: 91 91 59
Width: 641
GlyphClass: 2
Flags: HMW
HStem: -401 74 1337 86<588 595>
VStem: 109 205<-238 -162 -162 1180>
LayerCount: 2
Fore
SplineSet
109 -356 m 2
 109 1362 l 2
 109 1419 110 1423 137 1423 c 0
 147 1423 172 1421 197 1419 c 0
 222 1417 256 1415 279 1415 c 0
 402 1415 549 1419 588 1423 c 2
 596 1423 l 2
 604 1423 608 1417 608 1403 c 2
 608 1362 l 2
 608 1342 604 1337 586 1337 c 0
 582 1337 565 1337 553 1339 c 0
 528 1341 501 1341 485 1341 c 0
 405 1341 356 1332 336 1307 c 0
 318 1289 313 1264 313 1180 c 2
 313 -162 l 2
 313 -314 327 -328 487 -328 c 2
 526 -328 l 2
 553 -326 578 -326 582 -326 c 0
 602 -326 608 -330 608 -348 c 2
 608 -383 l 2
 608 -403 606 -408 594 -408 c 0
 578 -408 503 -405 446 -403 c 0
 397 -401 350 -401 330 -401 c 0
 283 -401 260 -401 231 -403 c 0
 182 -407 139 -410 135 -410 c 0
 112 -410 109 -401 109 -356 c 2
EndSplineSet
EndChar

StartChar: backslash
Encoding: 92 92 60
Width: 1019
GlyphClass: 2
Flags: HW
LayerCount: 2
Fore
SplineSet
123 1479 m 2
 213 1479 l 2
 250 1479 256 1475 272 1436 c 2
 924 -70 l 2
 928 -80 930 -88 930 -96 c 0
 930 -108 919 -119 909 -119 c 2
 793 -119 l 2
 764 -119 757 -113 743 -84 c 2
 94 1427 l 2
 90 1439 86 1450 86 1458 c 0
 86 1468 103 1479 123 1479 c 2
EndSplineSet
EndChar

StartChar: bracketright
Encoding: 93 93 61
Width: 641
GlyphClass: 2
Flags: HMW
HStem: -408 82<43 47> 1341 82
VStem: 322 205<-401 -356 -162 1180 1180 1221>
LayerCount: 2
Fore
SplineSet
526 1362 m 2
 526 -356 l 2
 526 -401 523 -410 500 -410 c 0
 494 -410 450 -407 403 -403 c 2
 322 -401 l 2
 293 -401 249 -401 188 -403 c 0
 141 -405 53 -408 41 -408 c 0
 29 -408 27 -403 27 -383 c 2
 27 -348 l 2
 27 -330 33 -326 53 -326 c 0
 59 -326 82 -326 109 -328 c 2
 147 -328 l 2
 307 -328 322 -314 322 -162 c 2
 322 1180 l 2
 322 1262 317 1289 299 1307 c 0
 279 1332 230 1341 152 1341 c 0
 134 1341 107 1341 82 1339 c 0
 70 1337 53 1337 49 1337 c 0
 31 1337 27 1342 27 1362 c 2
 27 1403 l 2
 27 1419 29 1423 41 1423 c 2
 47 1423 l 2
 84 1419 236 1415 338 1415 c 0
 375 1415 411 1417 438 1419 c 0
 463 1421 488 1423 498 1423 c 0
 525 1423 526 1419 526 1362 c 2
EndSplineSet
EndChar

StartChar: asciicircum
Encoding: 94 94 62
Width: 1019
GlyphClass: 2
Flags: HMW
HStem: 993 543<98 571 451 924>
VStem: 451 121<1536 1536>
LayerCount: 2
Fore
SplineSet
512 1200 m 1
 483 1174 l 1
 387 1068 264 1009 98 993 c 1
 98 1085 l 1
 284 1181 439 1376 451 1536 c 1
 571 1536 l 1
 581 1380 738 1179 924 1085 c 1
 924 993 l 1
 760 1007 633 1068 539 1174 c 1
 512 1200 l 1
EndSplineSet
EndChar

StartChar: underscore
Encoding: 95 95 63
Width: 1019
GlyphClass: 2
Flags: HMW
HStem: -512 104<-2 1022 -2 1022>
LayerCount: 2
Fore
SplineSet
-2 -408 m 1
 1022 -408 l 1
 1022 -512 l 1
 -2 -512 l 1
 -2 -408 l 1
EndSplineSet
EndChar

StartChar: quoteleft
Encoding: 8216 8216 64
Width: 528
GlyphClass: 2
Flags: HMW
HStem: 872 244 1341 80<412 412>
VStem: 86 164<1028 1224>
LayerCount: 2
Fore
SplineSet
414 1421 m 0
 432 1421 449 1399 449 1370 c 0
 449 1356 445 1353 412 1341 c 0
 316 1308 250 1249 250 1198 c 0
 250 1175 265 1149 283 1137 c 0
 297 1129 301 1128 344 1116 c 0
 401 1102 434 1058 434 997 c 0
 434 923 375 872 289 872 c 0
 172 872 86 965 86 1092 c 0
 86 1201 155 1302 276 1370 c 0
 325 1399 385 1421 414 1421 c 0
EndSplineSet
EndChar

StartChar: a
Encoding: 97 97 65
Width: 944
GlyphClass: 2
Flags: HW
HStem: -33 139<227 419> -33 172<669 843> 770 162<444 457>
VStem: 63 227<197 287> 84 160<624 719> 563 227<226 283 283 428 428 428 494 578 578 633> 895 39<178 195>
LayerCount: 2
Fore
SplineSet
264 623 m 1xae
 106 549 l 1
 94 572 84 610 84 637 c 0
 84 694 143 760 270 840 c 0
 346 891 385 912 444 932 c 1
 585 932 656 915 709 872 c 0
 768 825 791 760 791 633 c 2
 791 283 l 2
 791 170 798 139 829 139 c 0
 856 139 872 156 895 195 c 1
 934 178 l 1
 891 37 821 -33 717 -33 c 0x6e
 621 -33 571 24 567 141 c 1
 426 8 354 -33 256 -33 c 0
 199 -33 144 -4 117 41 c 0
 90 86 63 176 63 217 c 0xb6
 63 266 108 306 231 365 c 0
 311 402 461 461 563 494 c 1
 563 578 l 2
 563 721 520 770 393 770 c 0
 297 770 244 743 244 694 c 0
 244 678 244 676 264 623 c 1xae
563 215 m 1
 563 428 l 1
 327 332 291 309 291 264 c 0
 291 235 301 191 311 160 c 0
 323 127 354 106 389 106 c 0xb6
 448 106 497 137 563 215 c 1
EndSplineSet
Substitution2: "smcpLowercasetoSmallCapitalslookup subtable" a.smcp
EndChar

StartChar: b
Encoding: 98 98 66
Width: 1132
GlyphClass: 2
Flags: HMW
HStem: -33 82<512 641 490 697> 782 150<501 791>
VStem: 154 227<319 401 401 745 809 1198> 819 250<329 518>
LayerCount: 2
Fore
SplineSet
213 -31 m 1
 145 -31 l 1
 147 18 l 2
 149 149 150 161 154 319 c 2
 154 1208 l 2
 156 1372 147 1385 47 1397 c 0
 27 1399 25 1401 25 1421 c 2
 25 1436 l 2
 25 1454 27 1454 41 1460 c 2
 373 1591 l 1
 387 1589 l 1
 385 1366 383 1331 381 1198 c 2
 381 809 l 1
 524 915 563 932 674 932 c 0
 907 932 1069 743 1069 473 c 0
 1069 184 846 -33 549 -33 c 0
 475 -33 455 -29 342 14 c 0
 313 26 295 31 285 31 c 0
 260 31 248 18 213 -31 c 1
381 745 m 1
 381 401 l 2
 381 127 420 49 561 49 c 0
 721 49 819 187 819 406 c 0
 819 631 700 782 526 782 c 0
 475 782 426 770 381 745 c 1
EndSplineSet
Substitution2: "smcpLowercasetoSmallCapitalslookup subtable" b.smcp
EndChar

StartChar: c
Encoding: 99 99 67
Width: 868
GlyphClass: 2
Flags: HMW
HStem: -33 180<505 556> 840 92<415 493>
VStem: 63 205<425 558>
LayerCount: 2
Fore
SplineSet
549 932 m 0
 707 932 817 864 817 766 c 0
 817 696 774 651 711 651 c 0
 668 651 637 665 610 702 c 0
 602 712 602 712 565 780 c 0
 540 823 514 840 471 840 c 0
 358 840 268 702 268 530 c 0
 268 319 416 147 594 147 c 0
 672 147 698 160 786 240 c 0
 788 242 793 244 795 244 c 0
 807 244 844 215 844 207 c 0
 844 201 825 166 807 137 c 0
 727 18 631 -33 481 -33 c 0
 227 -33 63 142 63 412 c 0
 63 705 275 932 549 932 c 0
EndSplineSet
Substitution2: "smcpLowercasetoSmallCapitalslookup subtable" c.smcp
EndChar

StartChar: d
Encoding: 100 100 68
Width: 1132
GlyphClass: 2
Flags: HMW
HStem: -33 139<338 625> 850 82<531 609 425 611>
VStem: 72 250<373 527 373 547> 764 227<-14 236 100 236 190 236 236 545 545 605 895 1208 1208 1208>
LayerCount: 2
Fore
SplineSet
764 895 m 1
 764 1208 l 2
 766 1366 760 1379 674 1397 c 0
 654 1399 651 1401 651 1421 c 2
 651 1436 l 2
 651 1454 652 1454 668 1460 c 2
 983 1591 l 1
 997 1589 l 1
 991 1249 l 1
 991 236 l 2
 991 146 1001 123 1036 123 c 0
 1054 123 1073 127 1114 139 c 1
 1114 66 l 1
 795 -29 l 2
 785 -31 776 -33 774 -33 c 0
 768 -33 764 -26 764 -14 c 2
 764 100 l 1
 658 6 568 -33 451 -33 c 0
 226 -33 72 135 72 385 c 0
 72 709 276 932 573 932 c 0
 645 932 698 922 764 895 c 1
764 168 m 1
 764 545 l 2
 764 666 754 727 727 774 c 0
 698 823 646 850 578 850 c 0
 486 850 420 809 375 725 c 0
 340 657 322 571 322 483 c 0
 322 262 434 106 596 106 c 0
 653 106 696 123 764 168 c 1
EndSplineSet
Substitution2: "smcpLowercasetoSmallCapitalslookup subtable" d.smcp
EndChar

StartChar: e
Encoding: 101 101 69
Width: 905
GlyphClass: 2
Flags: HMW
HStem: -33 190<519 530> 543 86 850 82<430 523>
VStem: 53 217<500 543 500 569> 631 231<671 700 578 741>
LayerCount: 2
Fore
SplineSet
803 551 m 2
 270 543 l 1
 270 457 275 430 295 375 c 0
 340 246 459 158 580 158 c 0
 656 158 713 184 791 254 c 1
 811 244 828 229 842 215 c 1
 738 45 614 -33 446 -33 c 0
 213 -33 53 152 53 422 c 0
 53 717 248 932 518 932 c 0
 731 932 862 805 862 596 c 0
 862 559 852 553 803 551 c 2
281 618 m 1
 481 629 l 2
 612 635 631 643 631 698 c 0
 631 784 565 850 481 850 c 0
 379 850 304 763 281 618 c 1
EndSplineSet
Substitution2: "smcpLowercasetoSmallCapitalslookup subtable" e.smcp
EndChar

StartChar: f
Encoding: 102 102 70
Width: 718
GlyphClass: 2
Flags: HMW
HStem: -16 72 786 102<76 207 86 207 434 633> 1450 137<476 679>
VStem: 207 227<305 786 889 918 918 1021>
LayerCount: 2
Fore
SplineSet
434 889 m 1
 633 889 l 2
 653 889 655 886 655 866 c 2
 655 809 l 2
 655 789 653 786 633 786 c 2
 434 786 l 1
 434 305 l 2
 434 94 451 61 549 55 c 0
 569 53 571 51 571 33 c 2
 571 8 l 2
 571 -10 567 -16 555 -16 c 0
 547 -16 532 -16 518 -14 c 0
 448 -6 358 0 317 0 c 0
 268 0 262 0 123 -14 c 1
 74 -16 l 2
 60 -16 57 -12 57 8 c 2
 57 33 l 2
 57 51 60 53 78 55 c 0
 154 59 174 69 188 106 c 0
 200 137 207 211 207 305 c 2
 207 786 l 1
 86 786 l 2
 66 786 63 789 63 809 c 2
 63 866 l 2
 63 886 66 889 86 889 c 2
 207 889 l 1
 207 918 l 2
 207 1125 264 1335 348 1446 c 0
 422 1540 516 1587 631 1587 c 0
 727 1587 784 1545 784 1473 c 0
 784 1412 739 1366 678 1366 c 0
 639 1366 626 1372 571 1419 c 0
 548 1439 527 1450 504 1450 c 0
 449 1450 434 1407 434 1239 c 2
 434 889 l 1
EndSplineSet
Substitution2: "smcpLowercasetoSmallCapitalslookup subtable" f.smcp
EndChar

StartChar: g
Encoding: 103 103 71
Width: 1095
GlyphClass: 2
Flags: HW
HStem: -549 80<471 594> -100 229<692 709> 295 72<482 578 462 620> 715 127<907 907 907 1028> 860 72<435 547 396 551>
VStem: 84 193<-309 -309> 94 227<561 689> 688 227<532 634 532 658> 852 197<-213 -202>
LayerCount: 2
Fore
SplineSet
907 715 m 1xfa
 909 698 l 1
 913 668 l 2
 915 656 915 641 915 627 c 0xfb
 915 439 738 295 502 295 c 0
 463 295 428 297 397 305 c 1
 325 274 295 240 295 195 c 0
 295 144 358 119 487 119 c 0
 516 119 549 121 590 123 c 0
 639 127 682 129 702 129 c 0
 913 129 1049 18 1049 -154 c 0
 1049 -273 993 -374 893 -442 c 0
 791 -510 659 -549 528 -549 c 0
 374 -549 201 -496 131 -426 c 0
 98 -393 82 -356 84 -309 c 2xfc80
 86 -217 l 1
 121 -197 133 -188 162 -174 c 0
 195 -156 227 -137 262 -121 c 2
 297 -100 l 1
 135 -49 98 -10 98 109 c 0
 98 136 100 148 104 162 c 1
 322 319 l 1
 242 344 205 365 166 410 c 0
 119 461 94 526 94 596 c 0
 94 782 281 932 512 932 c 0
 582 932 652 918 713 889 c 0
 815 844 819 842 866 842 c 2
 1028 842 l 2
 1059 842 1063 840 1063 811 c 2
 1063 743 l 2
 1063 718 1057 715 1028 715 c 2
 907 715 l 1xfa
489 860 m 0
 380 860 322 782 322 645 c 0
 322 473 399 367 524 367 c 0
 630 367 688 436 688 567 c 0
 688 749 612 860 489 860 c 0
397 -109 m 1
 315 -142 276 -194 276 -268 c 0
 276 -383 393 -469 549 -469 c 0
 727 -469 852 -379 852 -252 c 0xfc80
 852 -152 780 -100 637 -100 c 0
 586 -100 442 -107 397 -109 c 1
EndSplineSet
Substitution2: "smcpLowercasetoSmallCapitalslookup subtable" g.smcp
EndChar

StartChar: h
Encoding: 104 104 72
Width: 1208
GlyphClass: 2
Flags: HMW
HStem: -16 72<1139 1148> 768 164<599 817>
VStem: 186 227<305 684 770 1192> 801 227<305 498 498 563>
LayerCount: 2
Fore
SplineSet
414 684 m 1
 414 305 l 2
 414 94 428 61 530 55 c 0
 548 53 551 51 551 33 c 2
 551 8 l 2
 551 -12 546 -16 532 -16 c 0
 514 -16 514 -16 422 -6 c 0
 383 -2 342 0 301 0 c 0
 242 0 235 0 104 -12 c 0
 94 -14 80 -14 72 -14 c 0
 60 -14 57 -10 57 8 c 2
 57 33 l 2
 57 51 60 55 78 55 c 0
 170 59 186 96 186 305 c 2
 186 1208 l 2
 186 1331 184 1333 172 1358 c 0
 154 1381 121 1397 94 1399 c 0
 84 1399 82 1405 82 1421 c 2
 82 1436 l 2
 82 1454 82 1454 98 1460 c 2
 406 1591 l 1
 420 1589 l 1
 420 1487 l 2
 418 1401 416 1303 414 1192 c 2
 414 770 l 1
 596 899 669 932 780 932 c 0
 854 932 922 903 967 852 c 0
 1012 801 1028 744 1028 635 c 2
 1028 305 l 2
 1028 96 1045 59 1139 55 c 0
 1157 55 1159 51 1159 33 c 2
 1159 8 l 2
 1159 -12 1155 -16 1141 -16 c 0
 1121 -16 1120 -16 1038 -6 c 0
 1001 -2 963 0 924 0 c 0
 871 0 754 -8 707 -14 c 0
 695 -16 684 -16 678 -16 c 0
 666 -16 662 -10 662 8 c 2
 662 33 l 2
 662 51 664 53 682 55 c 0
 784 61 801 94 801 305 c 2
 801 498 l 2
 801 629 797 659 774 696 c 0
 749 739 694 768 637 768 c 0
 561 768 490 741 414 684 c 1
EndSplineSet
Substitution2: "smcpLowercasetoSmallCapitalslookup subtable" h.smcp
EndChar

StartChar: i
Encoding: 105 105 73
Width: 604
GlyphClass: 2
Flags: HW
HStem: -16 72<535 535> 1196 307<260 344 260 344>
VStem: 150 307<1309 1393> 190 227<305 557 557 557>
LayerCount: 2
Fore
SplineSet
412 942 m 1xd0
 424 938 l 1
 422 768 420 742 418 623 c 2
 418 305 l 2
 418 94 434 61 532 55 c 0
 550 53 555 51 555 33 c 2
 555 8 l 2
 555 -12 551 -16 535 -16 c 2
 504 -14 l 2
 406 -4 362 0 307 0 c 0
 252 0 163 -6 102 -14 c 0
 90 -16 78 -16 72 -16 c 0
 58 -16 55 -12 55 8 c 2
 55 33 l 2
 55 53 56 53 76 55 c 0
 176 61 190 94 190 305 c 2
 190 557 l 2
 192 717 184 734 90 750 c 0
 82 750 78 754 78 772 c 2
 78 786 l 2
 78 804 78 805 94 811 c 2
 412 942 l 1xd0
301 1503 m 0
 387 1503 457 1436 457 1350 c 0
 457 1266 387 1196 301 1196 c 0
 217 1196 150 1266 150 1352 c 0xe0
 150 1434 219 1503 301 1503 c 0
EndSplineSet
Substitution2: "smcpLowercasetoSmallCapitalslookup subtable" i.smcp
EndChar

StartChar: j
Encoding: 106 106 74
Width: 565
GlyphClass: 2
Flags: HW
HStem: 1196 307<254 338 254 339>
VStem: 143 307<1309 1393> 188 227<6 20 20 537>
LayerCount: 2
Fore
SplineSet
408 942 m 1xa0
 422 940 l 1
 420 797 418 701 416 537 c 2
 416 20 l 2
 416 -209 385 -303 279 -403 c 0
 218 -460 156 -498 43 -541 c 1
 23 -463 l 1
 127 -400 146 -378 164 -315 c 0
 180 -264 188 -148 188 6 c 2
 188 559 l 2
 190 719 182 734 88 750 c 0
 80 750 76 756 76 772 c 2
 76 786 l 2
 76 804 76 805 92 811 c 2
 408 942 l 1xa0
295 1503 m 0
 381 1503 451 1436 451 1350 c 0
 451 1264 381 1196 297 1196 c 0
 211 1196 143 1266 143 1352 c 0xc0
 143 1434 213 1503 295 1503 c 0
EndSplineSet
Substitution2: "smcpLowercasetoSmallCapitalslookup subtable" j.smcp
EndChar

StartChar: k
Encoding: 107 107 75
Width: 1132
GlyphClass: 2
Flags: HMW
HStem: -16 72<508 512 500 516> 836 74<612 623>
VStem: 178 227<305 412 206 504 504 1182>
LayerCount: 2
Fore
SplineSet
504 471 m 1
 406 412 l 1
 406 305 l 2
 406 106 424 59 500 55 c 0
 525 55 526 53 526 33 c 2
 526 8 l 2
 526 -10 522 -16 510 -16 c 0
 506 -16 495 -16 485 -14 c 0
 440 -6 350 0 295 0 c 0
 242 0 205 -2 96 -14 c 2
 59 -16 l 2
 45 -16 43 -12 43 8 c 2
 43 33 l 2
 43 53 43 53 63 55 c 0
 163 61 178 94 178 305 c 2
 178 1208 l 2
 180 1366 174 1379 88 1397 c 0
 68 1399 66 1401 66 1421 c 2
 66 1436 l 2
 66 1454 66 1454 82 1460 c 2
 399 1591 l 1
 412 1589 l 1
 412 1481 l 2
 410 1391 408 1291 406 1182 c 2
 406 504 l 1
 586 627 725 756 725 801 c 0
 725 824 684 838 623 836 c 0
 603 836 600 839 600 862 c 2
 600 887 l 2
 600 905 603 909 621 909 c 0
 625 909 639 909 649 907 c 0
 686 903 768 899 815 899 c 0
 856 899 905 901 991 909 c 1
 1014 909 l 2
 1028 909 1032 903 1032 887 c 2
 1032 862 l 2
 1032 837 1032 838 989 838 c 0
 909 832 875 809 682 625 c 1
 958 172 l 2
 1019 74 1032 61 1083 59 c 0
 1103 61 1108 57 1108 41 c 2
 1108 12 l 2
 1108 -13 1103 -16 1085 -16 c 0
 1067 -16 1067 -16 975 -6 c 0
 936 -2 901 0 868 0 c 0
 827 0 741 -6 694 -12 c 0
 676 -14 659 -16 647 -16 c 0
 629 -16 623 -8 623 12 c 2
 623 41 l 2
 623 55 626 57 659 59 c 0
 688 59 709 76 709 94 c 0
 709 110 707 114 666 182 c 2
 504 471 l 1
EndSplineSet
Substitution2: "smcpLowercasetoSmallCapitalslookup subtable" k.smcp
EndChar

StartChar: l
Encoding: 108 108 76
Width: 604
GlyphClass: 2
Flags: HMW
HStem: -16 72<526 526>
VStem: 186 227<305 1182>
LayerCount: 2
Fore
SplineSet
406 1591 m 1
 420 1587 l 1
 420 1479 l 2
 418 1389 416 1291 414 1182 c 2
 414 305 l 2
 414 174 426 98 449 80 c 0
 461 72 495 59 528 55 c 0
 538 53 541 49 541 33 c 2
 541 8 l 2
 541 -10 536 -16 526 -16 c 0
 522 -16 516 -16 508 -14 c 0
 479 -8 364 0 301 0 c 0
 250 0 155 -6 98 -14 c 0
 86 -16 74 -16 68 -16 c 0
 56 -16 51 -10 51 8 c 2
 51 33 l 2
 51 51 54 53 72 55 c 0
 170 61 186 96 186 305 c 2
 186 1206 l 2
 188 1366 182 1379 96 1397 c 0
 76 1399 74 1401 74 1421 c 2
 74 1436 l 2
 74 1454 74 1454 90 1460 c 2
 406 1591 l 1
EndSplineSet
Substitution2: "smcpLowercasetoSmallCapitalslookup subtable" l.smcp
EndChar

StartChar: m
Encoding: 109 109 77
Width: 1775
GlyphClass: 2
Flags: HMW
HStem: -16 72<55 62> 768 164<572 838>
VStem: 180 225<305 557 557 620> 784 225<305 545 545 628> 1386 225<305 545 545 588>
LayerCount: 2
Fore
SplineSet
406 692 m 1
 406 305 l 2
 406 170 415 107 440 80 c 0
 456 64 467 59 528 55 c 0
 540 53 543 49 543 33 c 2
 543 8 l 2
 543 -12 540 -16 524 -16 c 2
 496 -14 l 2
 428 -6 346 0 295 0 c 0
 242 0 151 -6 90 -14 c 0
 78 -16 65 -16 59 -16 c 0
 45 -16 43 -12 43 8 c 2
 43 33 l 2
 43 53 46 55 66 55 c 0
 164 59 180 94 180 305 c 2
 180 557 l 2
 180 682 178 682 166 707 c 0
 148 734 115 748 78 750 c 0
 70 750 66 756 66 772 c 2
 66 786 l 2
 66 804 66 805 84 811 c 2
 397 942 l 1
 412 938 l 1
 410 901 l 1
 410 856 l 1
 406 803 l 1
 406 758 l 1
 420 768 435 781 451 793 c 0
 592 904 657 932 768 932 c 0
 907 932 975 881 1010 752 c 1
 1184 904 1239 932 1362 932 c 0
 1432 932 1497 912 1540 877 c 0
 1593 834 1612 781 1612 672 c 2
 1612 305 l 2
 1612 92 1627 61 1729 55 c 0
 1747 53 1749 51 1749 33 c 2
 1749 8 l 2
 1749 -10 1745 -16 1733 -16 c 2
 1706 -14 l 2
 1661 -8 1546 0 1493 0 c 0
 1434 0 1397 -2 1303 -14 c 2
 1268 -16 l 2
 1254 -16 1249 -12 1249 8 c 2
 1249 33 l 2
 1249 51 1252 53 1270 55 c 0
 1372 61 1386 92 1386 305 c 2
 1386 545 l 2
 1386 631 1379 674 1356 707 c 0
 1327 746 1276 768 1219 768 c 0
 1145 768 1073 739 1010 684 c 1
 1010 305 l 2
 1010 92 1024 61 1126 55 c 0
 1144 53 1147 51 1147 33 c 2
 1147 8 l 2
 1147 -10 1142 -16 1130 -16 c 2
 1102 -14 l 2
 1047 -6 948 0 901 0 c 0
 858 0 741 -8 692 -14 c 0
 682 -16 670 -16 664 -16 c 0
 652 -16 647 -10 647 8 c 2
 647 33 l 2
 647 51 650 53 668 55 c 0
 770 61 784 92 784 305 c 2
 784 545 l 2
 784 711 739 768 610 768 c 0
 534 768 494 753 406 692 c 1
EndSplineSet
Substitution2: "smcpLowercasetoSmallCapitalslookup subtable" m.smcp
EndChar

StartChar: n
Encoding: 110 110 78
Width: 1208
GlyphClass: 2
Flags: HMW
HStem: -16 72 768 164<609 826>
VStem: 193 227<305 557 557 557> 813 227<305 516 516 564>
LayerCount: 2
Fore
SplineSet
420 682 m 1
 420 305 l 2
 420 100 436 61 526 55 c 0
 544 53 547 51 547 33 c 2
 547 8 l 2
 547 -12 544 -16 530 -16 c 0
 514 -16 514 -16 424 -6 c 0
 385 -2 344 0 301 0 c 0
 240 0 227 0 125 -12 c 0
 109 -14 88 -16 76 -16 c 0
 64 -16 61 -15 61 8 c 2
 61 33 l 2
 61 53 62 53 82 55 c 0
 176 61 193 96 193 305 c 2
 193 557 l 2
 195 715 186 734 102 748 c 0
 84 748 80 752 80 772 c 2
 80 786 l 2
 80 804 80 805 96 811 c 2
 412 942 l 1
 430 930 l 1
 428 903 l 2
 422 837 422 837 422 821 c 2
 420 766 l 1
 625 907 680 932 795 932 c 0
 858 932 922 907 963 868 c 0
 1026 807 1040 754 1040 598 c 2
 1040 305 l 2
 1040 104 1057 61 1143 55 c 0
 1161 53 1163 51 1163 33 c 2
 1163 8 l 2
 1163 -10 1159 -16 1149 -16 c 0
 1139 -16 1124 -16 1110 -14 c 0
 1020 -4 967 0 928 0 c 0
 887 0 839 -4 741 -14 c 0
 727 -16 712 -16 700 -16 c 0
 690 -16 686 -10 686 8 c 2
 686 33 l 2
 686 51 689 53 707 55 c 0
 797 61 813 100 813 305 c 2
 813 516 l 2
 813 612 809 649 791 688 c 0
 768 739 715 768 647 768 c 0
 571 768 506 743 420 682 c 1
EndSplineSet
Substitution2: "smcpLowercasetoSmallCapitalslookup subtable" n.smcp
EndChar

StartChar: o
Encoding: 111 111 79
Width: 1095
GlyphClass: 2
Flags: HMW
HStem: -33 90<517 656 517 682> 840 92<455 561>
VStem: 78 250<399 591> 778 250<328 399>
LayerCount: 2
Fore
SplineSet
565 932 m 0
 829 932 1028 735 1028 473 c 0
 1028 182 822 -33 543 -33 c 0
 267 -33 78 166 78 459 c 0
 78 723 293 932 565 932 c 0
516 840 m 0
 393 840 328 737 328 547 c 0
 328 252 436 57 598 57 c 0
 715 57 778 158 778 340 c 0
 778 459 754 592 715 686 c 0
 672 788 606 840 516 840 c 0
EndSplineSet
Substitution2: "smcpLowercasetoSmallCapitalslookup subtable" o.smcp
EndChar

StartChar: p
Encoding: 112 112 80
Width: 1132
GlyphClass: 2
Flags: HMW
HStem: -551 72 -33 82<563 630> 758 170<629 635 629 645>
VStem: 168 227<-229 -86 155 158 158 557 557 557> 817 250<410 507>
LayerCount: 2
Fore
SplineSet
395 778 m 1
 621 926 l 1
 629 928 l 1
 635 928 l 1
 657 930 l 2
 667 932 678 932 688 932 c 0
 811 932 907 882 975 782 c 0
 1034 698 1067 592 1067 481 c 0
 1067 338 1014 207 918 113 c 0
 828 25 690 -33 569 -33 c 0
 551 -33 489 -31 442 -29 c 2
 434 -29 l 2
 403 -29 395 -41 395 -86 c 2
 395 -229 l 2
 395 -440 412 -475 510 -479 c 0
 528 -481 532 -484 532 -504 c 2
 532 -528 l 2
 532 -544 528 -551 516 -551 c 0
 508 -551 508 -551 410 -541 c 0
 367 -537 319 -535 270 -535 c 0
 227 -535 189 -537 154 -541 c 0
 74 -551 74 -551 47 -551 c 0
 35 -551 33 -546 33 -528 c 2
 33 -504 l 2
 33 -484 33 -481 53 -479 c 0
 153 -475 168 -442 168 -229 c 2
 168 557 l 2
 170 719 162 734 68 750 c 0
 60 750 55 756 55 772 c 2
 55 786 l 2
 55 804 56 805 72 811 c 2
 389 942 l 1
 401 938 l 1
 401 909 l 1
 399 868 l 2
 397 841 395 821 395 819 c 2
 395 778 l 1
395 709 m 1
 395 158 l 2
 395 152 404 145 420 131 c 0
 522 49 522 49 604 49 c 0
 741 49 817 168 817 387 c 0
 817 627 727 758 563 758 c 0
 508 758 508 758 418 719 c 0
 402 713 395 709 395 709 c 1
EndSplineSet
Substitution2: "smcpLowercasetoSmallCapitalslookup subtable" p.smcp
EndChar

StartChar: q
Encoding: 113 113 81
Width: 1132
GlyphClass: 2
Flags: HMW
HStem: -551 72 -33 139<510 544> 850 82<495 607>
VStem: 68 246<385 538> 748 227<-229 86 86 86 158 432>
LayerCount: 2
Fore
SplineSet
748 -229 m 2
 748 86 l 1
 672 4 594 -33 494 -33 c 0
 390 -33 277 8 197 76 c 0
 113 150 68 256 68 385 c 0
 68 690 307 932 610 932 c 0
 673 932 723 923 803 903 c 0
 823 897 846 893 856 893 c 0
 879 893 901 911 909 934 c 0
 913 944 915 948 915 948 c 1
 918 948 l 1
 985 930 l 2
 989 928 991 924 991 918 c 0
 991 908 987 892 983 874 c 0
 979 858 977 842 977 809 c 0
 977 803 977 777 979 754 c 2
 979 709 l 2
 979 697 979 696 975 432 c 2
 975 -229 l 2
 975 -442 990 -475 1090 -479 c 0
 1108 -481 1110 -484 1110 -504 c 2
 1110 -528 l 2
 1110 -544 1108 -551 1098 -551 c 0
 1096 -551 1091 -551 1081 -549 c 0
 1022 -541 930 -535 858 -535 c 0
 790 -535 746 -537 666 -547 c 0
 650 -549 633 -551 625 -551 c 0
 613 -551 610 -544 610 -528 c 2
 610 -504 l 2
 610 -484 613 -481 631 -479 c 0
 733 -473 748 -442 748 -229 c 2
748 158 m 2
 748 590 l 2
 748 699 740 749 717 786 c 0
 692 827 638 850 575 850 c 0
 413 850 313 715 313 500 c 0
 313 271 430 106 590 106 c 0
 641 106 641 106 731 147 c 0
 743 151 748 156 748 158 c 2
EndSplineSet
Substitution2: "smcpLowercasetoSmallCapitalslookup subtable" q.smcp
EndChar

StartChar: r
Encoding: 114 114 82
Width: 868
GlyphClass: 2
Flags: HMW
HStem: -16 72 715 215<552 750>
VStem: 199 227<305 557 557 557>
LayerCount: 2
Fore
SplineSet
420 942 m 1
 426 938 l 1
 428 672 l 1
 434 682 l 2
 444 696 455 711 463 725 c 0
 557 870 629 930 709 930 c 0
 791 930 842 877 842 793 c 0
 842 717 797 672 723 672 c 0
 692 672 686 674 610 705 c 0
 596 711 581 715 567 715 c 0
 536 715 526 707 467 637 c 0
 430 594 426 590 426 580 c 2
 426 305 l 2
 426 94 443 61 541 55 c 0
 559 53 563 51 563 33 c 2
 563 8 l 2
 563 -12 559 -16 545 -16 c 2
 516 -14 l 2
 461 -6 362 0 313 0 c 0
 262 0 162 -6 109 -14 c 0
 97 -16 86 -16 78 -16 c 0
 66 -16 63 -12 63 8 c 2
 63 33 l 2
 63 53 64 53 84 55 c 0
 184 61 199 94 199 305 c 2
 199 557 l 2
 201 719 192 734 98 750 c 0
 90 750 86 756 86 772 c 2
 86 786 l 2
 86 804 86 805 102 811 c 2
 420 942 l 1
EndSplineSet
Substitution2: "smcpLowercasetoSmallCapitalslookup subtable" r.smcp
EndChar

StartChar: s
Encoding: 115 115 83
Width: 755
GlyphClass: 2
Flags: HW
HStem: -33 80<326 406> 850 82<379 444>
VStem: 84 80<242 242> 102 197<725 737> 496 197<128 315> 578 90
LayerCount: 2
Fore
SplineSet
670 868 m 1xd8
 668 684 l 2
 668 661 664 659 635 659 c 0
 596 659 596 660 578 713 c 0
 549 793 480 850 410 850 c 0
 349 850 299 805 299 748 c 0xd4
 299 703 321 676 432 600 c 0
 633 459 692 379 692 252 c 0
 692 178 661 106 604 55 c 0
 541 -6 463 -33 348 -33 c 0
 237 -33 178 -14 88 49 c 1
 84 242 l 2
 84 258 96 262 135 262 c 0
 153 262 158 258 164 240 c 0xe8
 201 121 281 47 371 47 c 0
 445 47 496 94 496 162 c 0
 496 230 457 276 330 360 c 0
 154 479 102 549 102 662 c 0
 102 814 244 932 426 932 c 0
 504 932 574 913 670 868 c 1xd8
EndSplineSet
Substitution2: "smcpLowercasetoSmallCapitalslookup subtable" s.smcp
EndChar

StartChar: t
Encoding: 116 116 84
Width: 755
GlyphClass: 2
Flags: HMW
HStem: -33 150<364 567> 791 102<389 680 389 680>
VStem: 162 227<297 356 356 635 635 684>
LayerCount: 2
Fore
SplineSet
389 1176 m 1
 389 893 l 1
 680 893 l 2
 700 893 702 890 702 870 c 2
 702 813 l 2
 702 793 700 791 680 791 c 2
 389 791 l 1
 389 356 l 2
 389 237 399 191 428 158 c 0
 451 133 494 117 537 117 c 0
 598 117 643 140 690 197 c 1
 725 168 l 1
 664 29 568 -33 414 -33 c 0
 314 -33 238 -6 201 43 c 0
 172 82 162 129 162 240 c 2
 162 635 l 2
 162 733 159 744 145 764 c 0
 133 780 111 788 82 788 c 2
 53 788 l 2
 35 788 31 793 31 811 c 2
 31 817 l 2
 31 833 31 833 72 872 c 0
 129 921 264 1067 317 1137 c 0
 342 1168 355 1176 373 1176 c 2
 389 1176 l 1
EndSplineSet
Substitution2: "smcpLowercasetoSmallCapitalslookup subtable" t.smcp
EndChar

StartChar: u
Encoding: 117 117 85
Width: 1208
GlyphClass: 2
Flags: HMW
HStem: -33 172<339 622> 819 70<65 74 74 74 74 96> 891 41G<383 383 1001 1001>
VStem: 176 227<292 377 377 696 696 750> 797 227<-35 266 156 266 242 266 266 696 696 754>
LayerCount: 2
Fore
SplineSet
797 -35 m 1
 797 156 l 1
 633 2 565 -33 428 -33 c 0
 250 -33 176 55 176 266 c 2
 176 696 l 2
 176 802 166 819 96 819 c 2
 72 819 l 2
 58 819 53 824 53 842 c 2
 53 866 l 2
 53 884 56 887 74 889 c 2
 383 932 l 1
 403 922 l 1
 403 377 l 2
 403 207 455 139 584 139 c 0
 660 139 665 142 743 195 c 0
 790 228 797 234 797 242 c 2
 797 696 l 2
 797 811 788 819 686 819 c 0
 674 819 670 824 670 842 c 2
 670 868 l 2
 670 888 672 889 692 893 c 2
 1001 932 l 1
 1024 922 l 1
 1024 266 l 2
 1024 192 1026 184 1038 168 c 0
 1044 160 1055 154 1061 154 c 0
 1071 154 1096 162 1116 170 c 0
 1128 174 1133 176 1137 176 c 0
 1141 176 1143 172 1143 162 c 2
 1143 115 l 2
 1143 109 1141 106 1135 102 c 2
 823 -35 l 1
 797 -35 l 1
EndSplineSet
Substitution2: "smcpLowercasetoSmallCapitalslookup subtable" u.smcp
EndChar

StartChar: v
Encoding: 118 118 86
Width: 1095
GlyphClass: 2
Flags: HMW
HStem: 834 76<41 85>
LayerCount: 2
Fore
SplineSet
621 266 m 1
 780 653 l 2
 809 727 825 774 825 797 c 0
 825 826 802 836 739 836 c 0
 719 836 717 838 717 856 c 2
 717 887 l 2
 717 905 721 909 737 909 c 0
 743 909 756 909 768 907 c 0
 805 903 877 897 897 897 c 0
 911 897 1012 905 1026 907 c 0
 1032 909 1034 909 1038 909 c 0
 1048 909 1051 905 1051 887 c 2
 1051 856 l 2
 1051 838 1051 838 1016 834 c 0
 957 822 940 801 905 709 c 2
 600 -8 l 2
 586 -43 584 -45 559 -45 c 2
 528 -45 l 2
 505 -45 501 -41 485 -2 c 2
 219 637 l 2
 156 787 114 834 55 834 c 0
 22 836 23 836 23 856 c 2
 23 887 l 2
 23 903 27 909 41 909 c 2
 55 909 l 2
 94 905 229 899 264 899 c 0
 289 899 330 901 385 905 c 0
 430 907 482 909 498 909 c 0
 518 909 524 903 524 887 c 2
 524 856 l 2
 524 838 521 836 498 836 c 0
 449 836 410 818 410 795 c 0
 410 783 417 762 446 690 c 2
 621 266 l 1
EndSplineSet
Substitution2: "smcpLowercasetoSmallCapitalslookup subtable" v.smcp
EndChar

StartChar: w
Encoding: 119 119 87
Width: 1548
GlyphClass: 2
Flags: HMW
HStem: 834 76<1210 1225>
LayerCount: 2
Fore
SplineSet
772 512 m 1
 549 -45 l 1
 473 -45 l 1
 184 700 l 2
 139 817 119 838 41 836 c 0
 33 836 29 844 29 858 c 2
 29 883 l 2
 29 903 34 909 57 909 c 2
 672 899 l 1
 692 897 l 2
 712 895 813 899 983 907 c 0
 995 909 1006 909 1012 909 c 0
 1032 909 1038 903 1038 883 c 2
 1038 858 l 2
 1038 835 1038 836 995 834 c 0
 946 834 915 818 915 791 c 0
 915 783 929 740 956 662 c 2
 1096 299 l 1
 1245 662 l 2
 1272 725 1290 783 1290 797 c 0
 1290 820 1262 834 1219 834 c 0
 1194 834 1192 835 1192 858 c 2
 1192 883 l 2
 1192 901 1201 909 1221 909 c 0
 1229 909 1228 909 1296 903 c 0
 1327 901 1350 899 1364 899 c 0
 1387 899 1447 903 1470 907 c 0
 1478 909 1485 909 1491 909 c 0
 1505 909 1513 901 1513 883 c 2
 1513 858 l 2
 1513 835 1512 833 1481 831 c 0
 1424 825 1403 803 1348 676 c 2
 1055 -45 l 1
 973 -45 l 1
 772 512 l 1
729 629 m 1
 700 715 l 2
 686 758 665 799 653 809 c 0
 633 827 589 838 528 838 c 0
 444 838 397 824 397 799 c 0
 397 789 414 737 432 692 c 2
 596 287 l 1
 729 629 l 1
EndSplineSet
Substitution2: "smcpLowercasetoSmallCapitalslookup subtable" w.smcp
EndChar

StartChar: x
Encoding: 120 120 88
Width: 1095
GlyphClass: 2
Flags: HW
HStem: -16 76<568 571> 0 57 834 76<76 90 76 96>
LayerCount: 2
Fore
SplineSet
657 508 m 1xa0
 868 199 l 2
 950 80 975 59 1028 57 c 0x60
 1055 57 1059 57 1059 39 c 2
 1059 10 l 2
 1059 -10 1052 -16 1036 -16 c 0xa0
 1028 -16 1020 -16 1008 -14 c 0
 981 -10 844 0 817 0 c 0x60
 774 0 770 0 614 -14 c 2
 571 -16 l 2
 548 -16 545 -13 545 10 c 2
 545 37 l 2
 545 55 551 59 586 59 c 0xa0
 629 59 659 72 659 90 c 0
 659 104 641 140 596 201 c 2
 498 344 l 1
 397 215 l 2
 350 156 322 108 322 92 c 0
 322 72 352 57 393 57 c 0x60
 426 57 430 55 430 39 c 2
 430 10 l 2
 430 -13 426 -16 401 -16 c 2xa0
 373 -14 l 2
 307 -4 252 0 217 0 c 0x60
 180 0 148 -4 80 -14 c 0
 70 -16 61 -16 53 -16 c 0
 41 -16 39 -10 39 10 c 2
 39 39 l 2
 39 57 39 57 88 59 c 0
 158 65 207 102 295 215 c 2
 449 412 l 1
 225 737 l 2
 172 817 155 830 96 834 c 0
 55 834 55 833 55 856 c 2
 55 887 l 2
 55 903 62 909 76 909 c 2
 90 909 l 2
 139 903 235 899 319 899 c 0
 389 899 389 899 541 909 c 1
 547 909 l 2
 565 909 569 905 569 887 c 2
 569 856 l 2
 569 838 570 838 502 836 c 0
 473 834 463 829 463 813 c 0
 463 799 483 762 516 713 c 2
 610 569 l 1
 711 698 l 2
 764 766 774 783 774 801 c 0
 774 824 751 834 690 836 c 0
 678 836 674 840 674 856 c 2
 674 887 l 2
 674 907 678 909 705 909 c 0
 715 909 747 905 788 901 c 0
 813 899 835 897 860 897 c 0
 885 897 915 899 948 901 c 0
 995 907 1020 909 1024 909 c 0
 1036 909 1040 903 1040 887 c 2
 1040 856 l 2
 1040 836 1038 836 993 834 c 0
 923 828 889 801 799 686 c 2
 657 508 l 1xa0
EndSplineSet
Substitution2: "smcpLowercasetoSmallCapitalslookup subtable" x.smcp
EndChar

StartChar: y
Encoding: 121 121 89
Width: 1056
GlyphClass: 2
Flags: HMW
HStem: -549 215<137 310> 836 74<719 719>
LayerCount: 2
Fore
SplineSet
481 4 m 1
 186 684 l 2
 129 815 103 840 23 838 c 0
 15 838 10 842 10 858 c 2
 10 889 l 2
 10 903 17 909 33 909 c 0
 39 909 47 909 57 907 c 0
 90 905 217 899 264 899 c 0
 315 899 446 905 475 907 c 0
 483 909 494 909 500 909 c 0
 514 909 520 903 520 889 c 2
 520 858 l 2
 520 840 516 838 475 836 c 0
 428 836 399 820 399 793 c 0
 399 779 413 735 436 684 c 2
 604 299 l 1
 754 655 l 2
 789 735 803 779 803 793 c 0
 803 818 774 838 739 838 c 0
 737 838 731 838 725 836 c 2
 719 836 l 2
 705 834 700 840 700 858 c 2
 700 889 l 2
 700 905 705 909 717 909 c 0
 721 909 729 909 737 907 c 0
 760 903 840 899 879 899 c 0
 908 899 979 903 1008 907 c 0
 1016 909 1024 909 1030 909 c 0
 1040 909 1044 905 1044 889 c 2
 1044 858 l 2
 1044 842 1034 836 997 834 c 0
 927 826 905 799 848 664 c 2
 459 -270 l 2
 377 -467 297 -549 182 -549 c 0
 92 -549 37 -502 37 -428 c 0
 37 -360 86 -317 160 -317 c 0
 187 -317 205 -320 254 -330 c 0
 266 -332 279 -334 289 -334 c 0
 332 -334 352 -314 383 -236 c 2
 481 4 l 1
EndSplineSet
Substitution2: "smcpLowercasetoSmallCapitalslookup subtable" y.smcp
EndChar

StartChar: z
Encoding: 122 122 90
Width: 980
GlyphClass: 2
Flags: HMW
HStem: 0 78<454 488> 815 82<508 566 508 582>
LayerCount: 2
Fore
SplineSet
582 815 m 1
 408 815 l 2
 322 815 299 813 266 799 c 0
 225 785 196 760 176 729 c 0
 156 692 147 684 137 686 c 0
 135 686 133 686 129 688 c 2
 96 698 l 2
 88 700 84 705 84 711 c 0
 84 713 84 719 86 723 c 2
 154 965 l 2
 158 981 160 981 174 983 c 2
 199 981 l 2
 217 979 217 978 223 958 c 0
 233 925 250 913 293 907 c 0
 328 903 471 897 545 897 c 0
 588 897 649 899 731 901 c 2
 840 903 l 2
 871 903 881 899 881 887 c 0
 881 879 876 870 866 854 c 2
 510 301 l 2
 422 166 385 102 385 88 c 0
 385 80 387 80 420 78 c 2
 612 78 l 2
 745 78 778 92 823 172 c 0
 833 188 844 207 856 225 c 2
 862 236 l 1
 872 236 875 235 881 233 c 2
 909 225 l 2
 917 223 920 221 930 217 c 1
 914 149 909 131 899 98 c 0
 891 78 885 56 879 33 c 0
 869 -12 864 -16 846 -16 c 0
 840 -16 709 -10 668 -8 c 0
 576 -2 504 0 473 0 c 0
 434 0 333 -2 276 -6 c 2
 127 -12 l 1
 80 -16 l 2
 70 -16 61 -8 61 2 c 0
 61 12 72 32 86 55 c 2
 582 815 l 1
EndSplineSet
Substitution2: "smcpLowercasetoSmallCapitalslookup subtable" z.smcp
EndChar

StartChar: braceleft
Encoding: 123 123 91
Width: 1019
GlyphClass: 2
Flags: HW
VStem: 358 270<-174 -112 -191 -97 1179 1248> 422 246<210 263 805 858>
LayerCount: 2
Fore
SplineSet
143 492 m 1x40
 143 575 l 1
 227 606 264 624 307 655 c 0
 381 706 422 772 422 838 c 0x40
 422 879 411 932 395 991 c 0
 370 1069 358 1139 358 1192 c 0
 358 1305 439 1405 580 1473 c 0
 664 1514 739 1530 899 1550 c 1
 899 1466 l 1
 711 1396 629 1317 629 1200 c 0x80
 629 1157 635 1101 647 1038 c 0
 661 977 668 917 668 868 c 0
 668 712 569 623 309 535 c 1
 567 449 668 355 668 199 c 0x40
 668 152 661 90 647 29 c 0
 635 -32 629 -90 629 -133 c 0
 629 -250 709 -329 899 -399 c 1
 899 -483 l 1
 713 -460 626 -436 530 -379 c 0
 419 -313 358 -223 358 -125 c 0x80
 358 -70 370 0 395 78 c 0
 411 137 422 190 422 229 c 0
 422 297 381 361 307 414 c 0
 264 445 227 461 143 492 c 1x40
EndSplineSet
EndChar

StartChar: bar
Encoding: 124 124 92
Width: 1019
GlyphClass: 2
Flags: HMW
VStem: 457 104<-512 1536 -512 1536>
LayerCount: 2
Fore
SplineSet
457 1536 m 1
 561 1536 l 1
 561 -512 l 1
 457 -512 l 1
 457 1536 l 1
EndSplineSet
EndChar

StartChar: braceright
Encoding: 125 125 93
Width: 1019
GlyphClass: 2
Flags: HW
VStem: 352 246<210 263 210 276 792 858> 391 270<-181 -112 1179 1241>
LayerCount: 2
Fore
SplineSet
877 575 m 1x80
 877 492 l 1
 793 461 756 445 713 414 c 0
 639 361 598 297 598 229 c 0x80
 598 190 609 137 625 78 c 0
 650 0 662 -70 662 -125 c 0
 662 -238 581 -338 440 -406 c 0
 356 -447 281 -463 121 -483 c 1
 121 -399 l 1
 311 -329 391 -250 391 -133 c 0x40
 391 -90 385 -32 373 29 c 0
 359 90 352 152 352 199 c 0
 352 355 453 447 711 535 c 1
 451 623 352 714 352 868 c 0x80
 352 917 359 977 373 1038 c 0
 385 1101 391 1157 391 1200 c 0
 391 1317 309 1396 121 1466 c 1
 121 1550 l 1
 307 1527 393 1503 489 1446 c 0
 600 1380 662 1290 662 1192 c 0x40
 662 1139 650 1069 625 991 c 0
 609 932 598 879 598 838 c 0
 598 727 687 645 877 575 c 1x80
EndSplineSet
EndChar

StartChar: asciitilde
Encoding: 126 126 94
Width: 2039
GlyphClass: 2
Flags: HW
HStem: 1260 143<1196 1206> 1341 141<829 838>
LayerCount: 2
Fore
SplineSet
1391 1501 m 1x80
 1432 1477 l 1
 1362 1342 1257 1260 1155 1260 c 0x80
 1116 1260 1087 1267 989 1300 c 0
 889 1335 862 1341 813 1341 c 0x40
 754 1341 719 1323 664 1260 c 2x80
 645 1241 l 1
 606 1266 l 1
 690 1413 779 1483 881 1483 c 0x40
 922 1483 967 1473 1055 1442 c 0
 1139 1411 1176 1403 1217 1403 c 0
 1280 1403 1340 1435 1391 1501 c 1x80
EndSplineSet
EndChar

StartChar: exclamdown
Encoding: 161 161 95
Width: 565
GlyphClass: 2
Flags: HW
HStem: 594 338<238 330 238 330>
VStem: 115 338<717 810> 131 315<-424 -372> 250 63<412 412>
LayerCount: 2
Fore
SplineSet
274 444 m 2x90
 291 444 l 2
 307 444 307 443 313 412 c 2x90
 430 -221 l 2
 436 -260 446 -350 446 -379 c 0
 446 -469 383 -526 287 -526 c 0
 195 -526 131 -469 131 -383 c 0xa0
 131 -360 132 -360 150 -221 c 2
 250 412 l 2
 256 443 256 444 274 444 c 2x90
283 932 m 0
 377 932 453 858 453 762 c 0
 453 670 377 594 283 594 c 0
 191 594 115 670 115 764 c 0xc0
 115 856 193 932 283 932 c 0
EndSplineSet
EndChar

StartChar: cent
Encoding: 162 162 96
Width: 1019
GlyphClass: 2
Flags: HMW
HStem: -4 43G<489 578 489 489> 207 174<489 696 578 696> 909 279<643 804> 1356 41G<489 578 578 578>
VStem: 109 201<597 822> 489 88<-4 207 -4 207 432 1083 1083 1083 1184 1397>
LayerCount: 2
Fore
SplineSet
489 1169 m 1
 489 1397 l 1
 578 1397 l 1
 578 1184 l 1
 607 1186 635 1188 651 1188 c 0
 778 1188 883 1112 883 1020 c 0
 883 957 835 909 772 909 c 0
 719 909 682 938 639 1012 c 0
 610 1059 605 1069 578 1094 c 1
 578 391 l 1
 619 383 639 381 659 381 c 0
 733 381 762 395 858 473 c 2
 870 483 l 1
 922 430 l 1
 824 287 697 203 578 207 c 1
 578 -4 l 1
 489 -4 l 1
 489 207 l 1
 354 227 285 262 217 340 c 0
 149 420 109 536 109 657 c 0
 109 800 166 950 260 1044 c 0
 323 1107 389 1142 489 1169 c 1
489 432 m 1
 489 1083 l 1
 421 1052 396 1032 365 985 c 0
 328 928 309 862 309 782 c 0
 309 700 329 618 362 559 c 0
 389 512 419 481 489 432 c 1
EndSplineSet
Substitution2: "cv02CharacterVariants02 subtable" cent.cv01
EndChar

StartChar: sterling
Encoding: 163 163 97
Width: 1019
GlyphClass: 2
Flags: HW
HStem: -31 231<749 758> 330 209<799 799> 690 84<80 82 82 244 80 254 455 641> 1300 82<615 670>
VStem: 33 217 238 217<774 1065> 711 217<1210 1242 1158 1244> 879 82<245 276>
LayerCount: 2
Fore
SplineSet
80 774 m 2xf9
 244 774 l 1
 240 833 238 891 238 932 c 0
 238 1198 401 1382 639 1382 c 0
 795 1382 928 1294 928 1190 c 0
 928 1127 880 1077 821 1077 c 0
 749 1077 709 1128 711 1210 c 0
 711 1278 694 1300 645 1300 c 0
 586 1300 551 1261 528 1171 c 0
 516 1130 516 1130 455 774 c 1xf6
 643 774 l 2
 659 774 668 766 668 752 c 2
 668 711 l 2
 668 697 661 690 641 690 c 2
 434 690 l 1
 399 520 391 483 332 270 c 1
 428 264 454 260 575 231 c 0
 675 208 723 201 774 201 c 0
 835 201 879 227 879 262 c 0
 879 291 854 312 799 330 c 0
 711 361 688 379 688 432 c 0
 688 493 734 539 797 539 c 0
 891 539 961 440 961 305 c 0
 961 117 838 -31 678 -31 c 0
 612 -31 557 -6 483 57 c 0
 377 145 360 155 303 178 c 1
 295 158 284 141 276 125 c 0
 268 107 260 90 250 72 c 0
 217 2 174 -31 117 -31 c 0
 66 -31 33 2 33 55 c 0
 33 100 53 147 86 184 c 0
 123 223 162 243 254 270 c 1
 254 332 l 1
 254 504 l 1
 254 666 l 1
 254 690 l 1
 82 690 l 2
 62 690 53 697 53 715 c 2
 53 752 l 2
 53 764 66 774 80 774 c 2xf9
EndSplineSet
EndChar

StartChar: fraction
Encoding: 8260 8260 98
Width: 227
GlyphClass: 2
Flags: HMW
HStem: -31 43G<-271 -266 -266 -197> 1343 41G<401 487 487 493>
LayerCount: 2
Fore
SplineSet
-276 14 m 2
 373 1360 l 2
 381 1376 389 1384 401 1384 c 2
 487 1384 l 2
 497 1384 506 1376 506 1370 c 0
 506 1364 504 1358 500 1350 c 2
 -150 4 l 2
 -162 -21 -174 -31 -197 -31 c 2
 -266 -31 l 2
 -276 -31 -287 -22 -287 -14 c 0
 -287 -8 -282 2 -276 14 c 2
EndSplineSet
EndChar

StartChar: yen
Encoding: 165 165 99
Width: 1019
GlyphClass: 2
Flags: HMW
HStem: -12 98 287 84<162 383 162 383 649 872> 543 84<162 383 162 383 649 872> 1333 90<59 59>
VStem: 383 266<212 287 371 543 287 543 627 668 668 668>
LayerCount: 2
Fore
SplineSet
649 543 m 1
 649 371 l 1
 872 371 l 1
 872 287 l 1
 649 287 l 1
 647 142 665 101 739 78 c 0
 776 72 780 68 780 41 c 2
 780 16 l 2
 780 -7 774 -12 756 -12 c 2
 725 -10 l 2
 676 -4 602 0 530 0 c 0
 450 0 355 -4 324 -8 c 0
 306 -10 291 -12 283 -12 c 0
 263 -12 254 -3 254 20 c 2
 254 47 l 2
 254 76 260 82 291 86 c 0
 363 96 383 137 383 287 c 1
 162 287 l 1
 162 371 l 1
 383 371 l 1
 383 543 l 1
 162 543 l 1
 162 627 l 1
 383 627 l 1
 383 668 l 1
 176 1192 l 2
 141 1278 133 1295 123 1307 c 0
 111 1323 94 1329 59 1333 c 0
 34 1337 29 1344 29 1364 c 2
 29 1391 l 2
 29 1418 34 1423 59 1423 c 0
 84 1423 94 1423 178 1415 c 0
 211 1413 250 1411 281 1411 c 0
 330 1411 383 1413 428 1419 c 0
 451 1421 473 1423 485 1423 c 0
 505 1423 514 1416 514 1389 c 2
 514 1360 l 2
 514 1333 508 1329 479 1327 c 0
 444 1327 418 1310 418 1290 c 0
 418 1278 417 1278 442 1212 c 2
 598 799 l 1
 748 1241 l 2
 760 1280 760 1282 760 1290 c 0
 760 1313 735 1323 676 1327 c 0
 645 1329 637 1335 637 1358 c 2
 637 1384 l 2
 637 1415 643 1423 666 1423 c 0
 680 1423 680 1423 748 1415 c 0
 773 1413 799 1411 819 1411 c 0
 860 1411 911 1415 946 1419 c 0
 958 1421 969 1423 975 1423 c 0
 989 1423 995 1415 995 1399 c 2
 995 1380 l 2
 995 1357 995 1358 938 1350 c 0
 901 1344 893 1329 854 1231 c 2
 649 682 l 1
 649 627 l 1
 872 627 l 1
 872 543 l 1
 649 543 l 1
EndSplineSet
EndChar

StartChar: florin
Encoding: 402 402 100
Width: 1019
Flags: HMW
HStem: -520 137<105 111> 811 94<218 397 246 383 606 754> 1481 94<826 851>
LayerCount: 2
Fore
SplineSet
383 811 m 1
 227 811 l 2
 209 811 203 815 203 827 c 2
 203 838 l 1
 209 879 l 2
 213 897 223 905 246 905 c 2
 397 905 l 1
 463 1200 499 1301 575 1403 c 0
 661 1520 762 1575 891 1575 c 0
 1006 1575 1094 1518 1094 1442 c 0
 1094 1393 1053 1352 1004 1352 c 0
 965 1352 942 1368 913 1421 c 0
 890 1464 869 1481 834 1481 c 0
 742 1481 698 1397 645 1114 c 2
 606 905 l 1
 780 905 l 2
 792 905 803 895 801 883 c 2
 795 836 l 2
 793 820 779 811 754 811 c 2
 586 811 l 1
 457 188 l 2
 361 -275 207 -520 14 -520 c 0
 -47 -520 -90 -483 -90 -428 c 0
 -90 -379 -49 -336 -2 -336 c 0
 21 -336 47 -347 76 -367 c 0
 88 -377 101 -383 111 -383 c 0
 142 -383 160 -321 211 -61 c 2
 383 811 l 1
EndSplineSet
EndChar

StartChar: section
Encoding: 167 167 101
Width: 1019
GlyphClass: 2
Flags: HMW
HStem: -487 111<293 536> 1343 111<449 669>
VStem: 78 123<879 961> 279 90<1227 1229 1229 1231> 612 88<-258 -229 -258 -200> 813 121<1 86>
LayerCount: 2
Fore
SplineSet
588 1454 m 0
 750 1454 852 1395 852 1303 c 0
 852 1240 797 1190 723 1190 c 0
 678 1190 641 1211 594 1270 c 0
 539 1333 524 1343 479 1343 c 0
 418 1343 369 1284 369 1208 c 0
 369 1110 419 1018 616 766 c 0
 847 469 934 281 934 74 c 0
 934 -71 873 -219 764 -330 c 0
 660 -439 541 -487 381 -487 c 0
 205 -487 109 -434 109 -338 c 0
 109 -258 157 -203 227 -203 c 0
 284 -203 299 -213 369 -299 c 0
 412 -352 455 -377 506 -377 c 0
 565 -377 612 -320 612 -246 c 0
 612 -154 577 -88 387 182 c 0
 256 368 207 447 164 541 c 0
 103 672 78 774 78 889 c 0
 78 1032 137 1188 231 1294 c 0
 323 1398 447 1454 588 1454 c 0
700 -229 m 2
 700 -258 l 1
 698 -268 l 1
 698 -276 l 2
 698 -280 700 -283 702 -283 c 0
 706 -283 711 -280 717 -272 c 0
 770 -209 813 -78 813 16 c 0
 813 155 744 303 543 584 c 0
 316 903 276 992 276 1178 c 0
 276 1192 277 1211 279 1227 c 2
 279 1229 l 2
 279 1233 278 1235 274 1235 c 0
 247 1235 201 1067 201 965 c 0
 201 793 242 694 424 428 c 0
 647 104 702 -18 702 -180 c 0
 702 -196 702 -211 700 -229 c 2
EndSplineSet
EndChar

StartChar: currency
Encoding: 164 164 102
Width: 1019
GlyphClass: 2
Flags: HMW
HStem: 217 205<455 558> 981 205<464 562 464 583>
VStem: 23 205<650 743> 784 205<649 751 649 778>
LayerCount: 2
Fore
SplineSet
-37 1098 m 1
 94 1231 l 1
 227 1102 l 1
 340 1163 416 1186 512 1186 c 0
 612 1186 684 1163 782 1102 c 1
 915 1231 l 1
 1047 1098 l 1
 909 967 l 1
 966 875 989 800 989 700 c 0
 989 598 968 530 909 438 c 1
 1047 305 l 1
 915 176 l 1
 784 303 l 1
 678 237 610 217 506 217 c 0
 404 217 336 237 227 303 c 1
 94 176 l 1
 -37 305 l 1
 98 438 l 1
 43 536 23 604 23 696 c 0
 23 790 41 858 98 967 c 1
 -37 1098 l 1
506 981 m 0
 354 981 227 857 227 707 c 0
 227 547 350 422 504 422 c 0
 660 422 784 546 784 700 c 0
 784 856 660 981 506 981 c 0
EndSplineSet
EndChar

StartChar: quotesingle
Encoding: 39 39 103
Width: 528
GlyphClass: 2
Flags: HW
HStem: 909 567<240 250 250 279>
VStem: 150 231<1367 1401 1367 1401> 215 98<946 946>
LayerCount: 2
Fore
SplineSet
215 946 m 2xa0
 156 1315 l 2
 152 1338 150 1356 150 1372 c 0
 150 1429 203 1477 264 1477 c 0
 327 1477 381 1429 381 1372 c 0xc0
 381 1362 379 1342 375 1315 c 2
 313 946 l 2
 309 921 299 909 279 909 c 2
 250 909 l 2
 230 909 221 921 215 946 c 2xa0
EndSplineSet
EndChar

StartChar: quotedblleft
Encoding: 8220 8220 104
Width: 944
GlyphClass: 2
Flags: HMW
HStem: 872 244 1341 80<418 418 823 823>
VStem: 92 164<1028 1224> 498 164<1028 1224>
LayerCount: 2
Fore
SplineSet
825 1421 m 0
 843 1421 860 1399 860 1370 c 0
 860 1356 856 1353 823 1341 c 0
 727 1308 662 1249 662 1198 c 0
 662 1155 684 1134 756 1116 c 0
 813 1102 846 1058 846 997 c 0
 846 923 786 872 700 872 c 0
 583 872 498 965 498 1092 c 0
 498 1201 567 1302 688 1370 c 0
 739 1401 796 1421 825 1421 c 0
420 1421 m 0
 438 1421 455 1399 455 1370 c 0
 455 1356 451 1353 418 1341 c 0
 322 1308 256 1249 256 1198 c 0
 256 1175 271 1149 289 1137 c 0
 303 1129 307 1128 350 1116 c 0
 407 1102 440 1058 440 997 c 0
 440 923 381 872 295 872 c 0
 178 872 92 965 92 1092 c 0
 92 1201 162 1302 283 1370 c 0
 332 1399 391 1421 420 1421 c 0
EndSplineSet
EndChar

StartChar: guillemotleft
Encoding: 171 171 105
Width: 980
Flags: HMW
VStem: 432 242<483 483 483 488>
LayerCount: 2
Fore
SplineSet
336 483 m 1
 522 182 l 2
 534 164 539 156 539 150 c 0
 539 142 522 127 512 127 c 0
 506 127 504 129 481 145 c 2
 131 440 l 2
 106 460 94 475 94 483 c 0
 94 491 102 499 131 524 c 2
 481 817 l 2
 499 831 510 838 514 838 c 0
 524 838 541 823 541 817 c 0
 541 809 540 809 520 776 c 2
 336 483 l 1
674 483 m 1
 856 190 l 2
 876 157 877 158 877 152 c 0
 877 142 858 127 848 127 c 0
 842 127 832 134 809 154 c 2
 467 444 l 2
 432 475 432 475 432 483 c 0
 432 493 438 501 469 526 c 2
 817 815 l 2
 844 840 846 840 854 840 c 0
 862 840 879 825 879 819 c 0
 879 811 879 811 856 776 c 2
 674 483 l 1
EndSplineSet
EndChar

StartChar: guilsinglleft
Encoding: 8249 8249 106
Width: 643
GlyphClass: 2
Flags: HMW
VStem: 111 444<145 487>
LayerCount: 2
Fore
SplineSet
352 483 m 1
 539 182 l 2
 551 164 555 156 555 150 c 0
 555 142 538 127 528 127 c 0
 522 127 521 129 498 145 c 2
 147 440 l 2
 122 460 111 475 111 483 c 0
 111 491 118 499 147 524 c 2
 498 817 l 2
 516 831 526 838 530 838 c 0
 540 838 557 823 557 817 c 0
 557 809 557 809 537 776 c 2
 352 483 l 1
EndSplineSet
EndChar

StartChar: guilsinglright
Encoding: 8250 8250 107
Width: 641
GlyphClass: 2
Flags: HMW
VStem: 96 446<479 820>
LayerCount: 2
Fore
SplineSet
301 483 m 1
 117 776 l 2
 99 807 96 811 96 817 c 0
 96 823 113 838 123 838 c 0
 127 838 138 831 156 817 c 2
 506 524 l 2
 537 499 543 491 543 483 c 0
 543 475 531 460 506 440 c 2
 156 145 l 2
 136 129 131 127 125 127 c 0
 115 127 98 142 98 150 c 0
 98 156 101 162 115 182 c 2
 301 483 l 1
EndSplineSet
EndChar

StartChar: fi
Encoding: 64257 64257 108
Width: 1214
GlyphClass: 2
Flags: HMW
HStem: -16 72 786 102<85 207 96 207 434 604> 1456 119<627 835>
VStem: 207 227<299 305 305 786 889 980> 809 227<299 641 641 672>
LayerCount: 2
Fore
SplineSet
434 786 m 1
 434 305 l 2
 434 94 451 61 551 55 c 0
 569 53 571 51 571 33 c 2
 571 8 l 2
 571 -10 567 -16 557 -16 c 0
 547 -16 534 -16 520 -14 c 0
 448 -6 358 0 317 0 c 0
 268 0 262 0 123 -14 c 1
 74 -16 l 2
 60 -16 57 -12 57 8 c 2
 57 33 l 2
 57 51 60 53 78 55 c 0
 154 59 174 69 188 106 c 0
 198 135 207 211 207 299 c 2
 207 786 l 1
 96 786 l 2
 73 786 63 795 63 809 c 2
 63 868 l 2
 63 880 78 889 96 889 c 2
 207 889 l 1
 207 1071 215 1137 248 1219 c 0
 285 1307 352 1394 444 1464 c 0
 540 1542 633 1575 750 1575 c 0
 920 1575 1063 1484 1063 1378 c 0
 1063 1308 1000 1249 926 1249 c 0
 879 1249 842 1268 811 1311 c 0
 803 1321 787 1352 756 1403 c 0
 738 1440 707 1456 662 1456 c 0
 592 1456 533 1421 492 1358 c 0
 451 1292 434 1210 434 1071 c 2
 434 889 l 1
 651 889 l 2
 794 889 846 897 965 936 c 0
 981 942 998 946 1008 946 c 0
 1031 946 1036 936 1036 909 c 2
 1036 299 l 2
 1036 102 1055 61 1143 55 c 0
 1161 53 1163 51 1163 33 c 2
 1163 8 l 2
 1163 -10 1159 -16 1149 -16 c 0
 1139 -16 1126 -16 1112 -14 c 0
 1026 -4 971 0 922 0 c 0
 873 0 864 0 723 -14 c 2
 676 -16 l 2
 662 -16 659 -12 659 8 c 2
 659 33 l 2
 659 51 662 53 680 55 c 0
 756 59 777 69 791 106 c 0
 803 137 809 209 809 299 c 2
 809 641 l 2
 809 702 793 741 760 764 c 0
 735 782 704 786 604 786 c 2
 434 786 l 1
EndSplineSet
Ligature2: "ligaStandardLigatureslookup subtable" f i
EndChar

StartChar: fl
Encoding: 64258 64258 109
Width: 1214
GlyphClass: 2
Flags: HMW
HStem: -16 72<671 676> 786 102<77 199 88 199 430 606> 1456 119<571 788>
VStem: 199 227<299 305 305 786> 809 227<305 1147 1147 1157>
LayerCount: 2
Fore
SplineSet
426 786 m 1
 426 305 l 2
 426 199 437 121 453 92 c 0
 467 67 488 59 543 55 c 0
 561 53 563 51 563 33 c 2
 563 8 l 2
 563 -10 559 -16 549 -16 c 0
 539 -16 526 -16 512 -14 c 0
 440 -6 352 0 309 0 c 0
 260 0 254 0 115 -14 c 1
 66 -16 l 2
 52 -16 49 -12 49 8 c 2
 49 33 l 2
 49 51 52 53 70 55 c 0
 146 59 166 69 180 106 c 0
 190 135 199 211 199 299 c 2
 199 786 l 1
 88 786 l 2
 65 786 55 795 55 809 c 2
 55 868 l 2
 55 878 70 889 88 889 c 2
 199 889 l 1
 199 1104 213 1178 270 1278 c 0
 319 1362 408 1450 496 1503 c 0
 572 1550 662 1575 758 1575 c 0
 819 1575 862 1569 946 1546 c 1
 967 1552 l 1
 997 1567 l 2
 1009 1573 1020 1577 1026 1577 c 0
 1034 1577 1044 1562 1044 1550 c 2
 1036 1157 l 1
 1036 305 l 2
 1036 102 1055 61 1143 55 c 0
 1161 53 1163 51 1163 33 c 2
 1163 8 l 2
 1163 -10 1159 -16 1149 -16 c 0
 1139 -16 1126 -16 1112 -14 c 0
 1028 -4 971 0 922 0 c 0
 873 0 864 0 725 -14 c 1
 676 -16 l 2
 664 -16 659 -12 659 8 c 2
 659 33 l 2
 659 51 662 55 680 55 c 0
 754 59 777 69 791 106 c 0
 803 137 809 209 809 305 c 2
 809 1147 l 2
 809 1372 764 1456 639 1456 c 0
 504 1456 430 1346 430 1143 c 2
 430 889 l 1
 610 889 l 2
 649 889 659 883 659 860 c 2
 659 809 l 2
 659 791 651 786 606 786 c 2
 426 786 l 1
EndSplineSet
Ligature2: "ligaStandardLigatureslookup subtable" f l
EndChar

StartChar: endash
Encoding: 8211 8211 110
Width: 1019
GlyphClass: 2
Flags: HMW
HStem: 397 170<93 899 106 899>
LayerCount: 2
Fore
SplineSet
72 438 m 2
 72 526 l 2
 72 557 79 567 106 567 c 2
 899 567 l 2
 926 567 934 557 934 526 c 2
 934 438 l 2
 934 407 926 397 899 397 c 2
 106 397 l 2
 79 397 72 407 72 438 c 2
EndSplineSet
EndChar

StartChar: dagger
Encoding: 8224 8224 111
Width: 1019
GlyphClass: 2
Flags: HW
HStem: 762 244<136 177 828 885> 1380 41G<469 551>
VStem: 375 270<1261 1322> 477 57<-440 -377>
LayerCount: 2
Fore
SplineSet
662 561 m 1xe0
 629 389 l 1
 574 45 545 -182 537 -377 c 2
 535 -440 l 2
 533 -485 530 -487 514 -487 c 2
 502 -487 l 2
 482 -487 477 -481 477 -440 c 2
 477 -377 l 2xd0
 477 -246 449 6 408 233 c 0
 400 288 389 340 381 389 c 2
 352 561 l 1
 432 655 469 747 479 864 c 1
 450 856 451 856 406 840 c 0
 355 820 305 798 254 780 c 0
 223 768 191 762 164 762 c 0
 96 762 47 813 47 883 c 0
 47 957 98 1006 174 1006 c 0
 237 1006 267 995 406 932 c 0
 426 924 448 915 481 905 c 1
 481 962 466 1006 403 1149 c 0
 385 1192 375 1241 375 1280 c 0
 375 1364 428 1421 510 1421 c 0
 592 1421 645 1366 645 1280 c 0
 645 1223 633 1180 582 1071 c 0
 545 993 534 960 532 907 c 1
 581 917 588 919 647 946 c 0
 749 991 803 1006 854 1006 c 0
 930 1006 979 959 979 885 c 0
 979 813 924 762 846 762 c 0
 805 762 768 772 649 823 c 0
 586 850 581 850 532 864 c 1
 536 764 590 641 662 561 c 1xe0
EndSplineSet
Substitution2: "cv03CharacterVariants03 subtable" dagger.cv01
EndChar

StartChar: daggerdbl
Encoding: 8225 8225 112
Width: 1019
GlyphClass: 2
Flags: HMW
HStem: -16 281<145 199 135 212 825 879> 795 283<145 199 825 879> 1401 41G<470 554>
VStem: 367 291<-288 -221 1283 1349>
LayerCount: 2
Fore
SplineSet
477 156 m 1
 471 223 l 2
 455 350 432 436 369 596 c 1
 453 741 469 782 477 903 c 1
 303 821 227 795 170 795 c 0
 100 795 49 856 49 936 c 0
 49 1014 108 1077 182 1077 c 0
 241 1077 319 1049 475 969 c 1
 383 1200 367 1256 367 1311 c 0
 367 1387 428 1442 512 1442 c 0
 596 1442 657 1387 657 1311 c 0
 657 1256 643 1209 549 969 c 1
 705 1049 783 1077 842 1077 c 0
 916 1077 975 1014 975 936 c 0
 975 856 924 795 854 795 c 0
 797 795 721 821 547 903 c 1
 557 782 571 739 655 596 c 1
 594 436 569 350 555 223 c 2
 547 156 l 1
 721 238 797 264 854 264 c 0
 924 264 975 205 975 123 c 0
 975 45 916 -16 842 -16 c 0
 783 -16 705 12 549 92 c 1
 645 -154 657 -193 657 -250 c 0
 657 -326 596 -381 512 -381 c 0
 428 -381 367 -326 367 -250 c 0
 367 -193 381 -148 475 92 c 1
 319 12 241 -16 182 -16 c 0
 108 -16 49 47 49 123 c 0
 49 205 100 264 170 264 c 0
 227 264 305 238 477 156 c 1
EndSplineSet
EndChar

StartChar: periodcentered
Encoding: 183 183 113
Width: 276
VWidth: 1000
GlyphClass: 2
Flags: MW
HStem: 220 165<116 161 116 161>
VStem: 56 165<280 325.5>
LayerCount: 2
Fore
SplineSet
138 385 m 0
 184 385 221 349 221 303 c 0
 221 257 184 220 138 220 c 0
 93 220 56 257 56 303 c 0
 56 348 94 385 138 385 c 0
EndSplineSet
EndChar

StartChar: paragraph
Encoding: 182 182 114
Width: 1019
GlyphClass: 2
Flags: HW
HStem: 1442 84<664 979 840 979 840 840>
VStem: 133 530<965 1117> 584 80<-326 571 571 571> 760 80<-326 1442 -326 1442>
LayerCount: 2
Fore
SplineSet
979 1526 m 1xd0
 979 1442 l 1
 840 1442 l 1
 840 -326 l 1
 760 -326 l 1
 760 1442 l 1
 664 1442 l 1
 664 -326 l 1
 584 -326 l 1
 584 571 l 1xb0
 441 600 381 623 313 674 c 0
 198 760 133 891 133 1038 c 0
 133 1196 211 1341 338 1419 c 0
 453 1493 596 1526 791 1526 c 2
 979 1526 l 1xd0
EndSplineSet
EndChar

StartChar: bullet
Encoding: 8226 8226 115
Width: 1019
GlyphClass: 2
Flags: HMW
HStem: 362 743<412 614>
VStem: 139 743<633 837 632 840>
LayerCount: 2
Fore
SplineSet
516 1106 m 0
 717 1106 883 938 883 735 c 0
 883 528 717 362 512 362 c 0
 305 362 139 528 139 737 c 0
 139 942 307 1106 516 1106 c 0
EndSplineSet
EndChar

StartChar: quotesinglbase
Encoding: 8218 8218 116
Width: 528
GlyphClass: 2
Flags: HMW
HStem: 45 258
VStem: 287 143<-31 141>
LayerCount: 2
Fore
SplineSet
104 -248 m 2
 82 -219 l 2
 78 -213 76 -211 76 -205 c 0
 76 -195 84 -188 109 -180 c 0
 179 -157 194 -150 227 -119 c 0
 264 -86 287 -47 287 -14 c 0
 287 17 266 35 217 45 c 0
 125 65 90 100 90 174 c 0
 90 250 149 303 233 303 c 0
 346 303 430 207 430 76 c 0
 430 -49 340 -172 205 -231 c 2
 166 -248 l 2
 150 -256 135 -260 125 -260 c 0
 119 -260 110 -256 104 -248 c 2
EndSplineSet
EndChar

StartChar: quotedblbase
Encoding: 8222 8222 117
Width: 944
GlyphClass: 2
Flags: HMW
HStem: -248 80<119 119 524 524> 59 244
VStem: 283 164<-49 146> 688 164<-50 146>
LayerCount: 2
Fore
SplineSet
246 303 m 0
 363 303 446 211 446 82 c 0
 446 -27 379 -127 256 -197 c 0
 205 -226 148 -248 119 -248 c 0
 101 -248 84 -224 84 -195 c 0
 84 -183 88 -178 121 -168 c 0
 217 -135 283 -76 283 -23 c 0
 283 20 260 41 188 59 c 0
 131 73 100 117 100 178 c 0
 100 252 160 303 246 303 c 0
651 303 m 0
 768 303 852 211 852 82 c 0
 852 -27 785 -127 662 -197 c 0
 611 -226 553 -248 524 -248 c 0
 506 -248 489 -224 489 -195 c 0
 489 -183 493 -178 526 -168 c 0
 622 -135 688 -76 688 -25 c 0
 688 20 666 41 594 59 c 0
 539 73 506 117 506 178 c 0
 506 250 565 303 651 303 c 0
EndSplineSet
EndChar

StartChar: quotedblright
Encoding: 8221 8221 118
Width: 944
GlyphClass: 2
Flags: HMW
HStem: 870 80<121 121 526 526> 1178 244
VStem: 285 164<1068 1265> 690 164<1068 1265>
LayerCount: 2
Fore
SplineSet
248 1421 m 0
 365 1421 449 1329 449 1200 c 0
 449 1091 381 992 258 922 c 0
 207 891 150 870 121 870 c 0
 103 870 86 895 86 924 c 0
 86 936 90 940 123 950 c 0
 221 985 285 1043 285 1094 c 0
 285 1139 262 1158 190 1178 c 0
 133 1192 102 1235 102 1296 c 0
 102 1370 162 1421 248 1421 c 0
653 1421 m 0
 770 1421 854 1329 854 1200 c 0
 854 1091 787 992 664 922 c 0
 613 891 555 870 526 870 c 0
 508 870 492 895 492 924 c 0
 492 936 497 940 528 950 c 0
 626 985 690 1043 690 1094 c 0
 690 1139 668 1158 596 1178 c 0
 539 1192 508 1235 508 1296 c 0
 508 1370 567 1421 653 1421 c 0
EndSplineSet
EndChar

StartChar: guillemotright
Encoding: 187 187 119
Width: 980
Flags: HMW
VStem: 305 242<483 483>
LayerCount: 2
Fore
SplineSet
643 483 m 1
 459 776 l 2
 443 803 438 811 438 817 c 0
 438 823 455 838 463 838 c 0
 469 838 480 831 498 817 c 2
 848 524 l 2
 879 497 885 491 885 483 c 0
 885 475 875 463 848 440 c 2
 498 145 l 2
 475 129 473 127 467 127 c 0
 457 127 440 142 440 150 c 0
 440 156 445 164 455 182 c 2
 643 483 l 1
305 483 m 1
 123 776 l 2
 100 811 100 811 100 819 c 0
 100 825 117 840 125 840 c 0
 133 840 133 840 162 815 c 2
 510 526 l 2
 547 493 547 493 547 483 c 0
 547 475 545 473 510 444 c 2
 170 154 l 2
 147 134 135 127 129 127 c 0
 119 127 100 144 100 150 c 0
 100 156 100 155 123 190 c 2
 305 483 l 1
EndSplineSet
EndChar

StartChar: ellipsis
Encoding: 8230 8230 120
Width: 1699
Flags: HMW
HStem: -31 285<243 321 243 321 808 886 1371 1449>
VStem: 139 285<74 151 72 153> 705 285<74 151 72 153> 1268 285<74 151 71 153>
LayerCount: 2
Fore
SplineSet
281 254 m 0
 361 254 424 191 424 111 c 0
 424 33 361 -31 281 -31 c 0
 201 -31 139 33 139 115 c 0
 139 191 205 254 281 254 c 0
846 254 m 0
 926 254 989 191 989 111 c 0
 989 33 926 -31 846 -31 c 0
 766 -31 705 33 705 115 c 0
 705 191 770 254 846 254 c 0
1409 254 m 0
 1489 254 1552 191 1552 111 c 0
 1552 31 1489 -31 1409 -31 c 0
 1329 -31 1268 33 1268 115 c 0
 1268 191 1333 254 1409 254 c 0
EndSplineSet
EndChar

StartChar: perthousand
Encoding: 8240 8240 121
Width: 2340
GlyphClass: 2
Flags: HW
HStem: -14 88<1153 1242 1153 1289 1892 1982> 627 88<1154 1244 1894 1986> 655 88<348 438 348 486> 1294 88<350 441>
VStem: 70 182<932 1109 932 1123> 539 180<938 1107> 874 182<264 440 264 455> 1341 180<268 438> 1614 182<264 441 264 455> 2083 180<268 438>
LayerCount: 2
Fore
SplineSet
1198 715 m 0xdfc0
 1380 715 1522 555 1522 350 c 0
 1522 145 1380 -14 1198 -14 c 0
 1014 -14 874 143 874 354 c 0
 874 555 1018 715 1198 715 c 0xdfc0
1200 627 m 0
 1108 627 1057 528 1057 352 c 0
 1057 176 1108 74 1198 74 c 0
 1286 74 1341 182 1341 354 c 0
 1341 522 1288 627 1200 627 c 0
1939 715 m 0
 2121 715 2263 555 2263 350 c 0
 2263 145 2121 -14 1939 -14 c 0
 1753 -14 1614 143 1614 354 c 0
 1614 555 1757 715 1939 715 c 0
1942 627 m 0
 1848 627 1796 530 1796 352 c 0
 1796 176 1847 74 1937 74 c 0
 2027 74 2083 182 2083 354 c 0
 2083 522 2030 627 1942 627 c 0
430 31 m 2
 1032 1356 l 2
 1042 1379 1049 1382 1069 1382 c 2
 1133 1382 l 2
 1147 1382 1157 1374 1157 1364 c 0
 1157 1358 1155 1349 1151 1339 c 2
 553 25 l 2
 537 -10 532 -14 514 -14 c 2
 449 -14 l 2
 435 -14 420 -6 420 2 c 0
 420 6 424 17 430 31 c 2
395 1382 m 0
 577 1382 719 1225 719 1020 c 0
 719 815 577 655 395 655 c 0xbfc0
 209 655 70 813 70 1024 c 0
 70 1223 213 1382 395 1382 c 0
397 1294 m 0
 303 1294 252 1198 252 1020 c 0
 252 844 303 743 393 743 c 0
 483 743 539 852 539 1024 c 0
 539 1190 485 1294 397 1294 c 0
EndSplineSet
EndChar

StartChar: questiondown
Encoding: 191 191 122
Width: 792
GlyphClass: 2
Flags: HW
HStem: -526 242<367 589> 594 338<444 538 444 538>
VStem: 111 111<-164 79> 322 338<716 809 716 810> 469 88
LayerCount: 2
Fore
SplineSet
557 307 m 2xe8
 563 133 l 1
 563 121 l 2
 563 103 559 96 541 96 c 0
 432 86 327 45 266 -12 c 0
 237 -37 221 -78 221 -117 c 0
 221 -211 311 -285 422 -285 c 0
 440 -285 463 -283 494 -279 c 0
 521 -275 547 -272 563 -272 c 0
 641 -272 690 -319 690 -395 c 0
 690 -477 635 -526 543 -526 c 0
 428 -526 372 -498 272 -385 c 0
 155 -252 111 -141 111 23 c 0
 111 136 141 199 217 244 c 0
 260 271 281 278 412 315 c 0
 455 327 463 345 469 449 c 0
 469 488 471 489 514 489 c 0
 526 489 531 487 535 485 c 0
 545 475 553 393 557 307 c 2xe8
492 932 m 0
 584 932 659 856 659 762 c 0
 659 670 584 594 492 594 c 0
 396 594 322 668 322 764 c 0xf0
 322 856 398 932 492 932 c 0
EndSplineSet
EndChar

StartChar: grave
Encoding: 96 96 123
Width: 1019
GlyphClass: 2
Flags: HMW
HStem: 1063 528<347 574>
VStem: 266 358
LayerCount: 2
Fore
SplineSet
555 1071 m 2
 328 1362 l 2
 285 1417 266 1454 266 1487 c 0
 266 1542 318 1591 377 1591 c 0
 428 1591 457 1558 492 1466 c 2
 621 1122 l 2
 623 1116 625 1110 625 1108 c 0
 625 1100 618 1089 608 1083 c 2
 586 1067 l 2
 582 1065 577 1063 571 1063 c 0
 565 1063 559 1067 555 1071 c 2
EndSplineSet
EndChar

StartChar: acute
Encoding: 180 180 124
Width: 1019
GlyphClass: 2
Flags: HMW
HStem: 1063 528<464 691>
VStem: 547 225<1466 1514>
LayerCount: 2
Fore
SplineSet
418 1122 m 2
 547 1466 l 2
 582 1560 611 1591 662 1591 c 0
 721 1591 772 1542 772 1487 c 0
 772 1454 754 1417 711 1362 c 2
 483 1071 l 2
 479 1067 473 1063 467 1063 c 0
 461 1063 457 1065 451 1067 c 2
 428 1083 l 2
 420 1089 414 1100 414 1108 c 0
 414 1112 416 1116 418 1122 c 2
EndSplineSet
EndChar

StartChar: circumflex
Encoding: 710 710 125
Width: 1019
GlyphClass: 2
Flags: HMW
HStem: 1354 238<514 514>
VStem: 244 543<1100 1104 1100 1105>
LayerCount: 2
Fore
SplineSet
514 1354 m 1
 309 1075 l 2
 305 1069 297 1063 291 1063 c 0
 285 1063 278 1065 272 1069 c 2
 254 1085 l 2
 248 1091 244 1098 244 1102 c 0
 244 1108 246 1116 250 1124 c 2
 358 1415 l 2
 401 1534 403 1536 430 1563 c 0
 446 1579 481 1591 512 1591 c 0
 571 1591 606 1569 633 1516 c 0
 637 1508 649 1472 672 1415 c 2
 780 1124 l 2
 784 1114 786 1106 786 1102 c 0
 786 1098 782 1091 776 1085 c 2
 756 1069 l 2
 752 1065 745 1063 739 1063 c 0
 733 1063 725 1067 719 1075 c 2
 514 1354 l 1
EndSplineSet
EndChar

StartChar: tilde
Encoding: 732 732 126
Width: 1019
GlyphClass: 2
Flags: HW
HStem: 1096 186<666 677> 1237 186<373 393>
VStem: 203 641<1138 1378>
LayerCount: 2
Fore
SplineSet
233 1104 m 2x60
 215 1118 l 2
 207 1124 203 1133 203 1143 c 0
 203 1166 226 1243 246 1288 c 0
 283 1378 338 1423 408 1423 c 0x60
 461 1423 471 1419 588 1327 c 0
 629 1294 653 1282 678 1282 c 0
 715 1282 746 1321 766 1389 c 0
 772 1409 778 1417 788 1417 c 0
 792 1417 799 1415 805 1413 c 2
 831 1397 l 2
 837 1393 844 1382 844 1374 c 0
 844 1349 817 1258 799 1221 c 0
 762 1141 706 1096 647 1096 c 0xa0
 600 1096 560 1116 494 1171 c 0
 437 1222 410 1237 377 1237 c 0
 340 1237 310 1205 281 1133 c 0
 271 1108 262 1098 250 1098 c 0
 246 1098 237 1100 233 1104 c 2x60
EndSplineSet
EndChar

StartChar: macron
Encoding: 175 175 127
Width: 1019
GlyphClass: 2
Flags: HMW
HStem: 1196 133<231 778 231 778>
VStem: 231 547<1196 1329 1196 1329>
LayerCount: 2
Fore
SplineSet
231 1329 m 1
 778 1329 l 1
 778 1196 l 1
 231 1196 l 1
 231 1329 l 1
EndSplineSet
EndChar

StartChar: breve
Encoding: 728 728 128
Width: 1019
GlyphClass: 2
Flags: HMW
HStem: 1049 121<462 548>
VStem: 229 121<1327 1327> 662 119<1327 1327>
LayerCount: 2
Fore
SplineSet
229 1327 m 1
 350 1327 l 1
 370 1216 418 1169 506 1169 c 0
 592 1169 639 1216 662 1327 c 1
 780 1327 l 1
 770 1243 754 1194 717 1145 c 0
 672 1086 590 1049 506 1049 c 0
 408 1049 324 1093 279 1169 c 0
 250 1214 237 1253 229 1327 c 1
EndSplineSet
EndChar

StartChar: dotaccent
Encoding: 729 729 129
Width: 1019
GlyphClass: 2
Flags: HMW
HStem: 1137 297<473 554>
VStem: 365 297<1246 1327>
LayerCount: 2
Fore
SplineSet
514 1434 m 0
 596 1434 662 1368 662 1286 c 0
 662 1202 596 1137 512 1137 c 0
 430 1137 365 1204 365 1288 c 0
 365 1366 432 1434 514 1434 c 0
EndSplineSet
EndChar

StartChar: dieresis
Encoding: 168 168 130
Width: 1019
GlyphClass: 2
Flags: HMW
HStem: 1137 297<261 342 261 342 676 756>
VStem: 154 297<1246 1325 1243 1327> 567 297<1246 1326 1244 1327>
LayerCount: 2
Fore
SplineSet
301 1434 m 0
 383 1434 451 1366 451 1284 c 0
 451 1202 383 1137 301 1137 c 0
 219 1137 154 1204 154 1288 c 0
 154 1366 221 1434 301 1434 c 0
717 1434 m 0
 797 1434 864 1366 864 1286 c 0
 864 1202 797 1137 715 1137 c 0
 633 1137 567 1204 567 1288 c 0
 567 1366 635 1434 717 1434 c 0
EndSplineSet
EndChar

StartChar: ring
Encoding: 730 730 131
Width: 1019
GlyphClass: 2
Flags: HMW
HStem: 1061 104<479 555 479 584> 1436 104<481 555>
VStem: 279 104<1265 1339 1265 1368> 653 104<1263 1337>
LayerCount: 2
Fore
SplineSet
518 1540 m 0
 651 1540 758 1433 758 1300 c 0
 758 1167 651 1061 516 1061 c 0
 385 1061 279 1170 279 1305 c 0
 279 1432 387 1540 518 1540 c 0
518 1436 m 0
 444 1436 383 1377 383 1303 c 0
 383 1227 442 1165 516 1165 c 0
 594 1165 653 1224 653 1300 c 0
 653 1374 592 1436 518 1436 c 0
EndSplineSet
EndChar

StartChar: cedilla
Encoding: 184 184 132
Width: 1019
GlyphClass: 2
Flags: HMW
HStem: -442 86<402 441 402 472>
VStem: 508 164<-293 -267>
LayerCount: 2
Fore
SplineSet
528 4 m 1
 598 4 l 1
 510 -92 l 1
 623 -112 672 -157 672 -233 c 0
 672 -352 553 -442 391 -442 c 0
 280 -442 221 -416 221 -367 c 0
 221 -334 250 -307 283 -307 c 0
 306 -307 317 -312 346 -332 c 0
 375 -350 389 -356 416 -356 c 0
 467 -356 508 -324 508 -283 c 0
 508 -252 481 -223 446 -213 c 0
 428 -209 418 -209 383 -209 c 0
 363 -209 358 -207 350 -197 c 2
 340 -182 l 2
 338 -176 336 -172 336 -168 c 0
 336 -162 346 -149 362 -135 c 2
 528 4 l 1
EndSplineSet
EndChar

StartChar: hungarumlaut
Encoding: 733 733 133
Width: 1019
GlyphClass: 2
Flags: HMW
HStem: 1063 528<297 522 463 623>
VStem: 250 680<1099 1516>
LayerCount: 2
Fore
SplineSet
285 1069 m 2
 258 1085 l 2
 254 1089 250 1096 250 1102 c 0
 250 1106 252 1114 254 1122 c 2
 373 1466 l 2
 406 1560 435 1591 492 1591 c 0
 553 1591 608 1542 608 1489 c 0
 608 1454 596 1434 541 1362 c 2
 319 1079 l 2
 313 1069 305 1063 299 1063 c 0
 295 1063 289 1065 285 1069 c 2
575 1122 m 2
 694 1466 l 2
 725 1560 756 1591 813 1591 c 0
 874 1591 930 1542 930 1489 c 0
 930 1456 919 1434 862 1362 c 2
 641 1079 l 2
 635 1069 625 1063 621 1063 c 0
 617 1063 610 1065 604 1069 c 2
 580 1085 l 2
 576 1089 571 1096 571 1102 c 0
 571 1108 573 1114 575 1122 c 2
EndSplineSet
EndChar

StartChar: ogonek
Encoding: 731 731 134
Width: 1019
GlyphClass: 2
Flags: HMW
HStem: -336 92<505 647>
VStem: 375 164<-190 -160>
LayerCount: 2
Fore
SplineSet
756 -217 m 1
 782 -250 l 1
 696 -311 631 -336 555 -336 c 0
 455 -336 375 -275 375 -197 c 0
 375 -123 436 -60 565 6 c 0
 620 33 690 64 733 78 c 1
 760 57 l 1
 574 -66 539 -100 539 -168 c 0
 539 -213 576 -244 629 -244 c 0
 666 -244 693 -237 756 -217 c 1
EndSplineSet
EndChar

StartChar: caron
Encoding: 711 711 135
Width: 1019
GlyphClass: 2
Flags: HMW
HStem: 1061 240<522 522 522 543>
VStem: 252 543<1548 1553>
LayerCount: 2
Fore
SplineSet
522 1300 m 1
 727 1579 l 2
 733 1585 742 1591 748 1591 c 0
 752 1591 758 1589 764 1583 c 2
 784 1569 l 2
 790 1563 795 1556 795 1550 c 0
 795 1546 792 1540 788 1528 c 2
 680 1239 l 2
 635 1120 635 1119 608 1090 c 0
 590 1074 559 1061 526 1061 c 0
 467 1061 433 1084 406 1139 c 0
 402 1147 387 1180 367 1239 c 2
 258 1528 l 2
 254 1538 252 1546 252 1550 c 0
 252 1556 256 1563 262 1569 c 2
 281 1583 l 2
 287 1589 293 1591 299 1591 c 0
 305 1591 313 1587 317 1579 c 2
 522 1300 l 1
EndSplineSet
EndChar

StartChar: emdash
Encoding: 8212 8212 136
Width: 1699
GlyphClass: 2
Flags: HMW
HStem: 397 170<91 1595 98 1595>
LayerCount: 2
Fore
SplineSet
74 430 m 2
 74 537 l 2
 74 557 82 567 98 567 c 2
 1595 567 l 2
 1611 567 1620 557 1620 537 c 2
 1620 430 l 2
 1620 410 1609 397 1595 397 c 2
 98 397 l 2
 84 397 74 410 74 430 c 2
EndSplineSet
EndChar

StartChar: AE
Encoding: 198 198 137
Width: 2000
GlyphClass: 2
Flags: HW
HStem: -12 80<19 40 472 494> 694 92<863 973> 711 92<1233 1389 1233 1389> 1333 78<1180 1389>
VStem: 973 260<231 272 272 274 274 692 692 692 803 1040 1040 1040> 1604 82<532 594> 1757 80
LayerCount: 2
Fore
SplineSet
1233 711 m 1xbe
 1233 274 l 2
 1233 172 1239 144 1264 117 c 0
 1295 88 1325 80 1425 80 c 2
 1624 80 l 2
 1739 80 1747 84 1808 178 c 2
 1851 246 l 2
 1896 307 1897 307 1909 307 c 0
 1915 307 1923 305 1931 303 c 2
 1964 297 l 2
 1984 293 1989 289 1989 281 c 0
 1989 275 1988 275 1976 242 c 2
 1901 6 l 2
 1897 -10 1894 -12 1882 -12 c 2
 1196 0 l 2
 1108 0 1108 0 850 -10 c 0
 821 -12 800 -12 786 -12 c 0
 774 -12 772 -6 772 10 c 2
 772 45 l 2
 772 68 772 68 809 70 c 0
 942 72 973 102 973 231 c 2
 973 272 l 1
 973 692 l 1
 944 694 919 694 907 694 c 0xde
 819 694 723 688 631 676 c 1
 391 240 l 2
 356 179 348 158 348 131 c 0
 348 88 393 68 485 68 c 0
 508 68 510 64 510 41 c 2
 510 14 l 2
 510 -9 506 -12 481 -12 c 0
 463 -12 436 -10 377 -6 c 0
 318 -2 273 0 250 0 c 0
 221 0 184 -2 141 -6 c 0
 78 -12 59 -12 20 -12 c 0
 -7 -12 -12 -6 -12 12 c 2
 -12 39 l 2
 -12 68 -12 68 51 68 c 1
 157 86 205 137 322 356 c 2
 776 1178 l 2
 813 1246 821 1266 821 1284 c 0
 821 1325 781 1339 668 1339 c 0
 637 1339 633 1341 633 1366 c 2
 633 1393 l 2
 633 1420 639 1425 664 1425 c 0
 676 1425 694 1425 717 1423 c 0
 772 1419 1116 1411 1243 1411 c 2
 1401 1415 l 2
 1749 1423 1764 1423 1776 1423 c 0
 1790 1425 1802 1425 1810 1425 c 0
 1830 1425 1837 1420 1837 1395 c 2
 1835 1264 l 2
 1835 1241 1835 1175 1837 1161 c 2
 1837 1133 l 2
 1837 1113 1833 1110 1815 1110 c 2
 1782 1110 l 2
 1759 1110 1759 1110 1757 1147 c 0
 1743 1303 1708 1333 1534 1333 c 2
 1389 1333 l 2
 1244 1333 1233 1321 1233 1143 c 2
 1233 803 l 1
 1389 803 l 2
 1551 803 1585 825 1610 942 c 0
 1616 975 1616 977 1636 977 c 2
 1659 977 l 2
 1682 977 1688 970 1688 952 c 0
 1688 934 1688 931 1686 913 c 2
 1686 840 l 1
 1683 750 l 1
 1683 721 l 2
 1683 696 1684 678 1686 662 c 0
 1688 623 1688 596 1688 590 c 0
 1686 565 1686 549 1686 543 c 0
 1686 523 1684 520 1659 520 c 2
 1628 520 l 2
 1603 520 1604 520 1604 573 c 0
 1604 614 1585 668 1567 686 c 0
 1542 706 1520 711 1389 711 c 2
 1233 711 l 1xbe
686 774 m 1
 719 776 l 1
 823 782 l 2
 856 784 893 786 973 786 c 1
 973 1040 l 2
 971 1140 969 1206 969 1237 c 0
 965 1274 964 1274 954 1313 c 1
 686 774 l 1
EndSplineSet
EndChar

StartChar: ordfeminine
Encoding: 170 170 138
Width: 944
GlyphClass: 2
Flags: HW
HStem: 674 115<263 417> 1268 115<381 511>
VStem: 145 201<852 860> 164 160<1164 1165 1164 1170> 524 184<757 852 874 993 993 993 1049 1118 1118 1153>
LayerCount: 2
Fore
SplineSet
524 1049 m 1xe8
 524 1118 l 2
 524 1188 522 1200 504 1223 c 0
 479 1252 440 1268 399 1268 c 0
 362 1268 317 1242 319 1219 c 2
 324 1165 l 2
 324 1163 313 1153 303 1147 c 2
 211 1098 l 2
 207 1096 201 1094 195 1094 c 0
 179 1094 164 1120 164 1151 c 0xd8
 164 1190 186 1224 229 1251 c 2
 410 1366 l 2
 426 1378 448 1382 481 1382 c 0
 540 1382 610 1362 655 1333 c 0
 692 1308 709 1268 709 1198 c 2
 709 852 l 2
 709 809 715 788 731 788 c 0
 739 788 750 795 760 805 c 0
 770 815 778 821 784 821 c 0
 790 821 807 807 807 799 c 0
 807 787 783 750 758 725 c 0
 725 692 682 674 639 674 c 0
 561 674 524 715 524 799 c 1
 444 709 381 674 303 674 c 0
 223 674 145 749 145 831 c 0
 145 888 194 926 354 985 c 2
 524 1049 l 1xe8
524 993 m 1
 428 952 l 2
 367 927 346 907 346 874 c 0xe8
 346 829 370 788 397 788 c 0
 436 788 475 815 524 874 c 1
 524 993 l 1
EndSplineSet
EndChar

StartChar: Lslash
Encoding: 321 321 139
Width: 1245
GlyphClass: 2
Flags: HMW
HStem: 0 82<508 885> 330 129<59 59> 936 129<719 719> 1341 82
VStem: 248 272<272 287 287 514 514 514 641 743 872 1139>
LayerCount: 2
Fore
SplineSet
248 641 m 1
 248 1139 l 2
 248 1317 229 1339 86 1341 c 0
 51 1343 51 1343 51 1366 c 2
 51 1401 l 2
 51 1419 56 1423 70 1423 c 0
 82 1423 110 1421 139 1419 c 0
 202 1415 309 1411 385 1411 c 0
 457 1411 578 1415 623 1419 c 0
 652 1421 680 1423 690 1423 c 0
 702 1423 707 1419 707 1401 c 2
 707 1366 l 2
 707 1343 705 1343 672 1341 c 0
 539 1337 520 1313 520 1139 c 2
 520 872 l 1
 719 1065 l 1
 719 936 l 1
 520 743 l 1
 520 287 l 2
 520 187 528 156 557 127 c 0
 592 96 662 82 793 82 c 0
 977 82 1034 113 1114 254 c 2
 1143 305 l 2
 1153 323 1157 328 1163 328 c 0
 1167 328 1168 328 1186 324 c 2
 1214 315 l 2
 1241 309 1241 309 1241 299 c 0
 1241 287 1241 287 1210 168 c 2
 1169 12 l 2
 1163 -6 1163 -6 1145 -6 c 2
 1122 -6 l 2
 1085 -2 766 0 565 0 c 0
 450 0 260 -4 147 -10 c 0
 118 -12 92 -12 76 -12 c 0
 62 -12 57 -8 57 10 c 2
 57 45 l 2
 57 68 59 68 92 70 c 0
 229 72 248 96 248 272 c 2
 248 514 l 1
 59 330 l 1
 59 459 l 1
 248 641 l 1
EndSplineSet
EndChar

StartChar: Oslash
Encoding: 216 216 140
Width: 1775
GlyphClass: 2
Flags: HMW
HStem: -37 98<837 985 837 1089> 1364 98<696 926>
VStem: 78 297<723 911> 1389 297<552 713>
LayerCount: 2
Fore
SplineSet
1649 1415 m 2
 1475 1239 l 1
 1616 1104 1686 936 1686 737 c 0
 1686 293 1329 -37 848 -37 c 0
 660 -37 497 13 358 113 c 1
 256 10 l 2
 225 -23 211 -29 184 -29 c 2
 125 -29 l 2
 113 -29 100 -22 100 -12 c 0
 100 -6 107 5 125 23 c 2
 281 180 l 1
 146 319 78 487 78 688 c 0
 78 1134 418 1462 879 1462 c 0
 1074 1462 1250 1409 1397 1305 c 1
 1534 1444 l 2
 1542 1452 1554 1456 1579 1456 c 2
 1634 1456 l 2
 1650 1456 1663 1448 1663 1440 c 0
 1663 1434 1657 1423 1649 1415 c 2
1298 1063 m 1
 526 281 l 1
 630 134 757 61 915 61 c 0
 1054 61 1188 127 1274 238 c 0
 1350 336 1389 469 1389 635 c 0
 1389 791 1357 934 1298 1063 c 1
471 371 m 1
 1247 1153 l 1
 1151 1290 1010 1364 842 1364 c 0
 551 1364 375 1151 375 801 c 0
 375 645 410 492 471 371 c 1
EndSplineSet
EndChar

StartChar: OE
Encoding: 338 338 141
Width: 2189
GlyphClass: 2
Flags: HW
HStem: -41 90<772 911> 0 80 711 92<1423 1579 1423 1579> 1333 78<1439 1579> 1362 90<767 978 694 991> 1384 41G<1994 2013>
VStem: 76 297<540 914> 1161 262<287 711 803 1143> 1794 82<535 594> 1950 80
LayerCount: 2
Fore
SplineSet
1423 711 m 1x33c0
 1423 274 l 2
 1423 174 1429 144 1454 117 c 0
 1485 88 1516 80 1616 80 c 2
 1804 80 l 2
 1919 80 1930 86 1989 178 c 2
 2032 246 l 2
 2079 307 2079 307 2089 307 c 0
 2095 307 2104 305 2114 303 c 2
 2146 297 l 2
 2164 293 2169 289 2169 281 c 0
 2169 277 2169 277 2159 242 c 2
 2083 6 l 2
 2079 -10 2074 -12 2062 -12 c 2
 1423 0 l 2x73c0
 1319 0 1269 -4 1038 -31 c 0
 987 -37 936 -41 887 -41 c 0
 414 -41 76 266 76 696 c 0
 76 1132 444 1452 944 1452 c 0xabc0
 1012 1452 1012 1452 1178 1434 c 0
 1282 1422 1411 1411 1466 1411 c 0x33c0
 1491 1411 1534 1413 1597 1415 c 2
 1735 1419 l 1
 1927 1421 l 2
 1958 1423 1987 1425 2001 1425 c 0x27c0
 2026 1425 2030 1420 2030 1395 c 2
 2028 1268 l 1
 2030 1133 l 2
 2030 1113 2027 1110 2007 1110 c 2
 1974 1110 l 2
 1951 1110 1952 1112 1950 1147 c 0
 1946 1215 1930 1265 1903 1294 c 0
 1876 1323 1832 1333 1726 1333 c 2
 1579 1333 l 2
 1434 1333 1423 1321 1423 1143 c 2
 1423 803 l 1
 1579 803 l 2
 1739 803 1775 825 1798 942 c 0
 1806 975 1807 977 1825 977 c 2
 1849 977 l 2
 1872 977 1876 972 1876 952 c 2
 1876 942 l 1
 1876 913 l 1
 1874 840 l 2
 1872 791 1872 756 1872 731 c 0
 1872 711 1872 685 1874 662 c 0
 1876 592 1876 547 1876 535 c 0
 1874 523 1874 520 1849 520 c 2
 1819 520 l 2
 1794 520 1794 520 1794 573 c 0
 1794 614 1775 668 1757 686 c 0
 1732 706 1710 711 1579 711 c 2
 1423 711 l 1x33c0
1161 287 m 2
 1161 1147 l 2
 1161 1241 1153 1274 1124 1307 c 0
 1091 1344 1034 1362 948 1362 c 0
 586 1362 373 1134 373 745 c 0
 373 333 604 49 940 49 c 0xabc0
 1034 49 1100 76 1133 129 c 0
 1158 168 1161 189 1161 287 c 2
EndSplineSet
EndChar

StartChar: ordmasculine
Encoding: 186 186 142
Width: 944
GlyphClass: 2
Flags: HMW
HStem: 674 74<468 538 468 567> 1309 74<403 473>
VStem: 115 201<1059 1117> 621 201<936 987>
LayerCount: 2
Fore
SplineSet
479 1382 m 0
 672 1382 821 1233 821 1038 c 0
 821 833 668 674 467 674 c 0
 268 674 115 822 115 1012 c 0
 115 1223 272 1382 479 1382 c 0
444 1309 m 0
 362 1309 315 1237 315 1112 c 0
 315 1006 334 912 369 840 c 0
 400 777 441 748 496 748 c 0
 580 748 621 813 621 940 c 0
 621 1034 604 1124 573 1198 c 0
 540 1274 501 1309 444 1309 c 0
EndSplineSet
EndChar

StartChar: ae
Encoding: 230 230 143
Width: 1396
GlyphClass: 2
Flags: HW
HStem: -33 137<214 440> -33 164<1013 1035> 768 172<321 524> 829 102<991 1030>
VStem: 68 240<205 210> 82 158<621 724> 539 236<444 573 444 615> 1108 223<685 745>
LayerCount: 2
Fore
SplineSet
1243 618 m 2x17
 774 444 l 1
 776 358 786 309 815 260 c 0
 858 184 963 131 1063 131 c 0
 1151 131 1206 160 1278 240 c 1
 1331 209 l 1
 1239 37 1128 -33 942 -33 c 0x57
 752 -33 672 9 584 154 c 1
 471 25 374 -33 270 -33 c 0
 157 -33 68 72 68 201 c 0x8b
 68 219 70 230 76 250 c 1
 193 342 234 363 510 457 c 2
 539 467 l 1
 539 573 l 2
 539 657 533 694 510 719 c 0
 483 748 422 768 356 768 c 0
 284 768 240 744 240 705 c 0
 240 699 242 686 246 676 c 2
 254 655 l 1
 256 645 l 1
 227 616 137 569 100 561 c 1
 86 592 82 608 82 633 c 0
 82 686 115 741 176 786 c 0
 287 870 434 940 502 940 c 0xa7
 547 940 649 904 678 879 c 0
 707 852 723 817 752 729 c 1
 836 881 915 932 1067 932 c 0
 1251 932 1331 856 1331 680 c 0
 1331 651 1331 651 1243 618 c 2x17
539 399 m 1
 471 376 403 346 358 315 c 0
 317 290 307 275 307 244 c 0
 307 166 357 104 418 104 c 0x8b
 463 104 504 131 567 205 c 1
 547 254 541 295 539 399 c 1
778 522 m 1
 948 586 l 2
 1069 633 1108 662 1108 709 c 0
 1108 783 1065 829 995 829 c 0x13
 866 829 792 725 778 522 c 1
EndSplineSet
Substitution2: "smcpLowercasetoSmallCapitalslookup subtable" ae.smcp
EndChar

StartChar: dotlessi
Encoding: 305 305 144
Width: 604
GlyphClass: 2
Flags: HMW
HStem: -16 72<535 535>
VStem: 190 227<305 557 557 557>
LayerCount: 2
Fore
SplineSet
412 942 m 1
 424 938 l 1
 422 768 420 742 418 623 c 2
 418 305 l 2
 418 94 434 61 532 55 c 0
 550 53 555 51 555 33 c 2
 555 8 l 2
 555 -12 551 -16 535 -16 c 2
 504 -14 l 2
 406 -4 362 0 307 0 c 0
 252 0 163 -6 102 -14 c 0
 90 -16 78 -16 72 -16 c 0
 58 -16 55 -12 55 8 c 2
 55 33 l 2
 55 53 56 53 76 55 c 0
 176 61 190 94 190 305 c 2
 190 557 l 2
 192 717 184 734 90 750 c 0
 82 750 78 754 78 772 c 2
 78 786 l 2
 78 804 78 805 94 811 c 2
 412 942 l 1
EndSplineSet
EndChar

StartChar: lslash
Encoding: 322 322 145
Width: 604
GlyphClass: 2
Flags: HMW
HStem: -16 72<518 518> 506 119<49 49>
VStem: 193 227<305 649 649 649 770 850 973 1182>
LayerCount: 2
Fore
SplineSet
193 770 m 1
 193 1206 l 2
 195 1366 188 1379 102 1397 c 0
 82 1399 80 1401 80 1421 c 2
 80 1436 l 2
 80 1454 80 1454 96 1460 c 2
 412 1591 l 1
 426 1587 l 1
 426 1479 l 2
 424 1389 422 1291 420 1182 c 2
 420 973 l 1
 547 1102 l 1
 547 979 l 1
 420 850 l 1
 420 305 l 2
 420 102 434 67 520 55 c 0
 530 53 532 49 532 33 c 2
 532 8 l 2
 532 -10 528 -16 518 -16 c 0
 514 -16 508 -16 500 -14 c 0
 475 -8 358 0 305 0 c 0
 260 0 166 -6 111 -14 c 0
 99 -16 86 -16 80 -16 c 0
 68 -16 63 -10 63 8 c 2
 63 33 l 2
 63 51 66 53 84 55 c 0
 176 61 193 98 193 305 c 2
 193 649 l 1
 49 506 l 1
 49 625 l 1
 193 770 l 1
EndSplineSet
Substitution2: "smcpLowercasetoSmallCapitalslookup subtable" lslash.smcp
EndChar

StartChar: oslash
Encoding: 248 248 146
Width: 1095
GlyphClass: 2
Flags: HMW
HStem: -33 90<547 648 547 674> 840 92<447 552>
VStem: 70 250<501 589> 770 250<328 385>
LayerCount: 2
Fore
SplineSet
1018 940 m 2
 893 795 l 1
 979 707 1020 604 1020 473 c 0
 1020 182 814 -33 535 -33 c 0
 429 -33 342 -8 262 47 c 1
 193 -37 l 2
 175 -57 162 -63 131 -63 c 2
 80 -63 l 2
 70 -63 61 -59 61 -53 c 0
 61 -47 68 -38 84 -20 c 2
 193 109 l 1
 113 201 70 320 70 455 c 0
 70 723 283 932 557 932 c 0
 657 932 739 907 823 852 c 1
 911 958 l 2
 923 972 936 977 961 977 c 2
 1006 977 l 2
 1020 977 1030 971 1030 963 c 0
 1030 957 1026 950 1018 940 c 2
735 606 m 1
 391 199 l 1
 448 97 504 57 590 57 c 0
 707 57 770 158 770 340 c 0
 770 430 758 518 735 606 c 1
352 297 m 1
 698 707 l 1
 653 799 594 840 510 840 c 0
 385 840 319 738 319 543 c 0
 319 459 329 377 352 297 c 1
EndSplineSet
Substitution2: "smcpLowercasetoSmallCapitalslookup subtable" oslash.smcp
EndChar

StartChar: oe
Encoding: 339 339 147
Width: 1624
GlyphClass: 2
Flags: HW
HStem: -33 90<508 601> -33 190<1112 1330> 543 86 840 92<446 551>
VStem: 76 248<398 589> 774 223<248 518> 1329 221<673 697 577 743>
LayerCount: 2
Fore
SplineSet
997 543 m 1xbe
 997 518 l 2
 997 442 1011 381 1044 324 c 0
 1099 226 1202 158 1298 158 c 0
 1361 158 1423 188 1495 254 c 1
 1513 244 1530 229 1546 215 c 1
 1495 131 1466 96 1411 55 c 0
 1337 -2 1249 -33 1169 -33 c 0x7e
 1054 -33 957 19 885 115 c 1
 789 17 671 -33 530 -33 c 0
 262 -33 76 166 76 455 c 0
 76 723 285 932 555 932 c 0
 694 932 811 880 913 774 c 1
 997 874 1110 932 1231 932 c 0
 1426 932 1550 801 1550 594 c 0
 1550 559 1542 553 1505 551 c 2
 997 543 l 1xbe
506 840 m 0
 387 840 324 740 324 547 c 0
 324 250 428 57 588 57 c 0xbe
 707 57 774 160 774 336 c 0
 774 459 750 592 709 686 c 0
 664 788 596 840 506 840 c 0
1008 618 m 1
 1208 629 l 2
 1310 633 1329 645 1329 700 c 0
 1329 786 1276 850 1202 850 c 0
 1106 850 1031 761 1008 618 c 1
EndSplineSet
Substitution2: "smcpLowercasetoSmallCapitalslookup subtable" oe.smcp
EndChar

StartChar: germandbls
Encoding: 223 223 148
Width: 1208
GlyphClass: 2
Flags: HW
HStem: -33 70<835 886> -16 78<82 84 514 520> 0 61 1489 102<668 681>
VStem: 190 227<219 643 643 714> 610 184<731 951> 823 213<1283 1323> 973 164<199 217>
LayerCount: 2
Fore
SplineSet
190 219 m 2x5e
 190 643 l 2
 190 784 182 795 78 801 c 0
 66 803 63 803 63 819 c 2
 63 842 l 2
 63 854 66 856 82 864 c 0
 160 903 176 932 205 1063 c 0
 236 1225 295 1352 375 1436 c 0
 465 1532 602 1591 733 1591 c 0
 911 1591 1036 1485 1036 1329 c 0x5e
 1036 1237 1003 1177 897 1077 c 0
 811 995 795 973 795 930 c 0
 795 877 815 844 930 721 c 0
 1084 553 1137 442 1137 297 c 0
 1137 100 1009 -33 819 -33 c 0
 686 -33 606 25 606 121 c 0
 606 193 648 240 707 240 c 0
 760 240 799 203 799 156 c 2
 797 129 l 2
 793 113 791 98 791 92 c 0
 791 59 817 37 852 37 c 0
 920 37 973 96 973 172 c 0x9d
 973 262 933 325 788 475 c 0
 661 604 610 690 610 772 c 0
 610 831 635 889 694 971 c 0
 798 1112 823 1168 823 1260 c 0
 823 1387 736 1489 627 1489 c 0
 559 1489 494 1445 461 1382 c 0
 428 1321 418 1247 418 1104 c 2
 418 219 l 2
 418 139 420 118 434 98 c 0
 448 78 477 61 504 61 c 0x5e
 537 61 537 60 537 37 c 2x9e
 537 10 l 2
 537 -10 532 -16 518 -16 c 0x5e
 510 -16 499 -16 487 -14 c 0
 417 -4 364 0 311 0 c 0x3e
 256 0 248 0 121 -14 c 2
 84 -16 l 2x5e
 64 -16 63 -17 63 10 c 2
 63 37 l 2x9e
 63 60 65 61 98 61 c 0
 178 61 190 84 190 219 c 2x5e
EndSplineSet
Substitution2: "smcpLowercasetoSmallCapitalslookup subtable" germandbls.smcp
EndChar

StartChar: Adieresis
Encoding: 196 196 149
Width: 1548
GlyphClass: 2
Flags: HMW
HStem: -12 80 547 102<496 848 496 895 463 848> 1548 303<516 598 963 1044>
VStem: 406 303<1659 1742 1658 1743> 852 303<1659 1742 1658 1743>
LayerCount: 2
Fore
SplineSet
895 547 m 1
 463 547 l 1
 375 291 l 2
 352 221 340 173 340 150 c 0
 340 93 375 74 498 66 c 0
 512 66 514 59 514 39 c 2
 514 12 l 2
 514 -11 512 -12 492 -12 c 0
 476 -12 426 -10 381 -6 c 0
 332 -2 276 0 233 0 c 0
 188 0 164 -2 135 -4 c 0
 92 -8 55 -12 43 -12 c 0
 25 -12 20 -8 20 8 c 2
 20 41 l 2
 20 64 21 64 72 68 c 0
 185 82 187 86 324 475 c 2
 418 743 l 1
 555 1147 l 2
 569 1188 594 1266 604 1307 c 0
 620 1362 624 1368 690 1415 c 2
 766 1470 l 2
 789 1484 789 1485 791 1485 c 0
 797 1485 801 1479 811 1452 c 2
 1298 250 l 2
 1364 94 1387 69 1475 63 c 0
 1506 63 1511 62 1511 39 c 2
 1511 12 l 2
 1511 -6 1504 -12 1481 -12 c 0
 1467 -12 1407 -8 1350 -4 c 0
 1307 -2 1258 0 1221 0 c 0
 1166 0 1120 -2 1059 -6 c 0
 998 -8 927 -12 913 -12 c 0
 895 -12 893 -8 893 12 c 2
 893 43 l 2
 893 68 895 68 938 70 c 0
 1008 72 1047 98 1047 143 c 0
 1047 170 1016 260 969 371 c 2
 895 547 l 1
848 649 m 1
 655 1114 l 1
 496 649 l 1
 848 649 l 1
557 1851 m 0
 641 1851 709 1784 709 1700 c 0
 709 1616 641 1548 555 1548 c 0
 473 1548 406 1616 406 1702 c 0
 406 1784 475 1851 557 1851 c 0
1004 1851 m 0
 1088 1851 1155 1784 1155 1700 c 0
 1155 1616 1087 1548 1001 1548 c 0
 919 1548 852 1616 852 1702 c 0
 852 1784 922 1851 1004 1851 c 0
EndSplineSet
EndChar

StartChar: Aacute
Encoding: 193 193 150
Width: 1548
GlyphClass: 2
Flags: HMW
HStem: -12 80 547 102<496 848 496 895 463 848>
LayerCount: 2
Fore
SplineSet
895 547 m 1
 463 547 l 1
 375 291 l 2
 352 221 340 173 340 150 c 0
 340 93 375 74 498 66 c 0
 512 66 514 59 514 39 c 2
 514 12 l 2
 514 -11 512 -12 492 -12 c 0
 476 -12 426 -10 381 -6 c 0
 332 -2 276 0 233 0 c 0
 188 0 164 -2 135 -4 c 0
 92 -8 55 -12 43 -12 c 0
 25 -12 20 -8 20 8 c 2
 20 41 l 2
 20 64 21 64 72 68 c 0
 185 82 187 86 324 475 c 2
 418 743 l 1
 555 1147 l 2
 569 1188 594 1266 604 1307 c 0
 620 1362 624 1368 690 1415 c 2
 766 1470 l 2
 789 1484 789 1485 791 1485 c 0
 797 1485 801 1479 811 1452 c 2
 1298 250 l 2
 1364 94 1387 69 1475 63 c 0
 1506 63 1511 62 1511 39 c 2
 1511 12 l 2
 1511 -6 1504 -12 1481 -12 c 0
 1467 -12 1407 -8 1350 -4 c 0
 1307 -2 1258 0 1221 0 c 0
 1166 0 1120 -2 1059 -6 c 0
 998 -8 927 -12 913 -12 c 0
 895 -12 893 -8 893 12 c 2
 893 43 l 2
 893 68 895 68 938 70 c 0
 1008 72 1047 98 1047 143 c 0
 1047 170 1016 260 969 371 c 2
 895 547 l 1
848 649 m 1
 655 1114 l 1
 496 649 l 1
 848 649 l 1
987 1708 m 2
 664 1548 l 2
 652 1542 641 1538 635 1538 c 0
 631 1538 622 1544 614 1552 c 2
 588 1581 l 2
 582 1587 578 1596 578 1602 c 0
 578 1610 584 1616 596 1628 c 2
 862 1870 l 2
 911 1913 942 1929 979 1929 c 0
 1036 1929 1083 1884 1083 1827 c 0
 1083 1778 1055 1741 987 1708 c 2
EndSplineSet
EndChar

StartChar: Agrave
Encoding: 192 192 151
Width: 1548
GlyphClass: 2
Flags: HMW
HStem: -12 80 547 102<496 848 496 895 463 848>
LayerCount: 2
Fore
SplineSet
895 547 m 1
 463 547 l 1
 375 291 l 2
 352 221 340 173 340 150 c 0
 340 93 375 74 498 66 c 0
 512 66 514 59 514 39 c 2
 514 12 l 2
 514 -11 512 -12 492 -12 c 0
 476 -12 426 -10 381 -6 c 0
 332 -2 276 0 233 0 c 0
 188 0 164 -2 135 -4 c 0
 92 -8 55 -12 43 -12 c 0
 25 -12 20 -8 20 8 c 2
 20 41 l 2
 20 64 21 64 72 68 c 0
 185 82 187 86 324 475 c 2
 418 743 l 1
 555 1147 l 2
 569 1188 594 1266 604 1307 c 0
 620 1362 624 1368 690 1415 c 2
 766 1470 l 2
 789 1484 789 1485 791 1485 c 0
 797 1485 801 1479 811 1452 c 2
 1298 250 l 2
 1364 94 1387 69 1475 63 c 0
 1506 63 1511 62 1511 39 c 2
 1511 12 l 2
 1511 -6 1504 -12 1481 -12 c 0
 1467 -12 1407 -8 1350 -4 c 0
 1307 -2 1258 0 1221 0 c 0
 1166 0 1120 -2 1059 -6 c 0
 998 -8 927 -12 913 -12 c 0
 895 -12 893 -8 893 12 c 2
 893 43 l 2
 893 68 895 68 938 70 c 0
 1008 72 1047 98 1047 143 c 0
 1047 170 1016 260 969 371 c 2
 895 547 l 1
848 649 m 1
 655 1114 l 1
 496 649 l 1
 848 649 l 1
686 1870 m 2
 952 1628 l 2
 964 1616 971 1608 971 1602 c 0
 971 1596 966 1589 958 1581 c 2
 934 1552 l 2
 926 1544 917 1538 911 1538 c 0
 907 1538 897 1542 885 1548 c 2
 561 1708 l 2
 491 1743 463 1776 463 1825 c 0
 463 1884 510 1929 567 1929 c 0
 604 1929 637 1913 686 1870 c 2
EndSplineSet
EndChar

StartChar: Acircumflex
Encoding: 194 194 152
Width: 1548
GlyphClass: 2
Flags: HMW
HStem: -12 80 547 102<496 848 496 895 463 848> 1722 207<784 784>
LayerCount: 2
Fore
SplineSet
895 547 m 1
 463 547 l 1
 375 291 l 2
 352 221 340 173 340 150 c 0
 340 93 375 74 498 66 c 0
 512 66 514 59 514 39 c 2
 514 12 l 2
 514 -11 512 -12 492 -12 c 0
 476 -12 426 -10 381 -6 c 0
 332 -2 276 0 233 0 c 0
 188 0 164 -2 135 -4 c 0
 92 -8 55 -12 43 -12 c 0
 25 -12 20 -8 20 8 c 2
 20 41 l 2
 20 64 21 64 72 68 c 0
 185 82 187 86 324 475 c 2
 418 743 l 1
 555 1147 l 2
 569 1188 594 1266 604 1307 c 0
 620 1362 624 1368 690 1415 c 2
 766 1470 l 2
 789 1484 789 1485 791 1485 c 0
 797 1485 801 1479 811 1452 c 2
 1298 250 l 2
 1364 94 1387 69 1475 63 c 0
 1506 63 1511 62 1511 39 c 2
 1511 12 l 2
 1511 -6 1504 -12 1481 -12 c 0
 1467 -12 1407 -8 1350 -4 c 0
 1307 -2 1258 0 1221 0 c 0
 1166 0 1120 -2 1059 -6 c 0
 998 -8 927 -12 913 -12 c 0
 895 -12 893 -8 893 12 c 2
 893 43 l 2
 893 68 895 68 938 70 c 0
 1008 72 1047 98 1047 143 c 0
 1047 170 1016 260 969 371 c 2
 895 547 l 1
848 649 m 1
 655 1114 l 1
 496 649 l 1
 848 649 l 1
784 1722 m 1
 578 1554 l 2
 566 1544 555 1538 547 1538 c 0
 541 1538 530 1544 518 1552 c 2
 498 1571 l 2
 488 1579 481 1587 481 1593 c 0
 481 1599 485 1608 489 1616 c 2
 641 1829 l 2
 694 1905 729 1929 784 1929 c 0
 841 1929 877 1905 930 1829 c 2
 1079 1616 l 2
 1085 1608 1090 1599 1090 1593 c 0
 1090 1587 1083 1579 1071 1571 c 2
 1051 1552 l 2
 1039 1544 1028 1538 1022 1538 c 0
 1016 1538 1003 1544 991 1554 c 2
 784 1722 l 1
EndSplineSet
EndChar

StartChar: Atilde
Encoding: 195 195 153
Width: 1548
GlyphClass: 2
Flags: HW
HStem: -12 80 547 102<496 848 496 895 463 848> 1538 186<928 968 928 972> 1677 186<593 632>
LayerCount: 2
Fore
SplineSet
895 547 m 1xc0
 463 547 l 1
 375 291 l 2
 352 221 340 173 340 150 c 0
 340 93 375 74 498 66 c 0
 512 66 514 59 514 39 c 2
 514 12 l 2
 514 -11 512 -12 492 -12 c 0
 476 -12 426 -10 381 -6 c 0
 332 -2 276 0 233 0 c 0
 188 0 164 -2 135 -4 c 0
 92 -8 55 -12 43 -12 c 0
 25 -12 20 -8 20 8 c 2
 20 41 l 2
 20 64 21 64 72 68 c 0
 185 82 187 86 324 475 c 2
 418 743 l 1
 555 1147 l 2
 569 1188 594 1266 604 1307 c 0
 620 1362 624 1368 690 1415 c 2
 766 1470 l 2
 789 1484 789 1485 791 1485 c 0
 797 1485 801 1479 811 1452 c 2
 1298 250 l 2
 1364 94 1387 69 1475 63 c 0
 1506 63 1511 62 1511 39 c 2
 1511 12 l 2
 1511 -6 1504 -12 1481 -12 c 0
 1467 -12 1407 -8 1350 -4 c 0
 1307 -2 1258 0 1221 0 c 0
 1166 0 1120 -2 1059 -6 c 0
 998 -8 927 -12 913 -12 c 0
 895 -12 893 -8 893 12 c 2
 893 43 l 2
 893 68 895 68 938 70 c 0
 1008 72 1047 98 1047 143 c 0
 1047 170 1016 260 969 371 c 2
 895 547 l 1xc0
848 649 m 1
 655 1114 l 1
 496 649 l 1
 848 649 l 1
453 1550 m 2
 430 1571 l 2
 420 1579 416 1590 416 1602 c 0
 416 1635 440 1704 465 1751 c 0
 510 1829 559 1864 627 1864 c 0xd0
 682 1864 735 1841 823 1778 c 0
 880 1739 911 1724 944 1724 c 0
 991 1724 1031 1757 1047 1810 c 0
 1059 1853 1063 1858 1073 1858 c 0
 1077 1858 1084 1853 1090 1849 c 2
 1112 1829 l 2
 1128 1817 1133 1810 1133 1794 c 0
 1133 1761 1115 1694 1092 1647 c 0
 1061 1579 1003 1538 940 1538 c 0xe0
 885 1538 836 1559 752 1614 c 0
 684 1661 649 1677 614 1677 c 0xd0
 563 1677 521 1635 498 1567 c 0
 492 1547 485 1538 475 1538 c 0xe0
 469 1538 461 1542 453 1550 c 2
EndSplineSet
EndChar

StartChar: Aring
Encoding: 197 197 154
Width: 1548
GlyphClass: 2
Flags: HMW
HStem: -12 80 547 102<496 848 496 895 463 848> 1522 104<734 829 734 860> 1862 104<735 829>
VStem: 516 106<1709 1779 1709 1805> 940 106<1708 1778>
LayerCount: 2
Fore
SplineSet
895 547 m 1
 463 547 l 1
 375 291 l 2
 352 221 340 173 340 150 c 0
 340 93 375 74 498 66 c 0
 512 66 514 59 514 39 c 2
 514 12 l 2
 514 -11 512 -12 492 -12 c 0
 476 -12 426 -10 381 -6 c 0
 332 -2 276 0 233 0 c 0
 188 0 164 -2 135 -4 c 0
 92 -8 55 -12 43 -12 c 0
 25 -12 20 -8 20 8 c 2
 20 41 l 2
 20 64 21 64 72 68 c 0
 185 82 187 86 324 475 c 2
 418 743 l 1
 555 1147 l 2
 569 1188 594 1266 604 1307 c 0
 620 1362 624 1368 690 1415 c 2
 766 1470 l 2
 789 1484 789 1485 791 1485 c 0
 797 1485 801 1479 811 1452 c 2
 1298 250 l 2
 1364 94 1387 69 1475 63 c 0
 1506 63 1511 62 1511 39 c 2
 1511 12 l 2
 1511 -6 1504 -12 1481 -12 c 0
 1467 -12 1407 -8 1350 -4 c 0
 1307 -2 1258 0 1221 0 c 0
 1166 0 1120 -2 1059 -6 c 0
 998 -8 927 -12 913 -12 c 0
 895 -12 893 -8 893 12 c 2
 893 43 l 2
 893 68 895 68 938 70 c 0
 1008 72 1047 98 1047 143 c 0
 1047 170 1016 260 969 371 c 2
 895 547 l 1
848 649 m 1
 655 1114 l 1
 496 649 l 1
 848 649 l 1
782 1966 m 0
 938 1966 1047 1872 1047 1735 c 0
 1047 1610 938 1522 782 1522 c 0
 622 1522 516 1608 516 1739 c 0
 516 1872 626 1966 782 1966 c 0
782 1862 m 0
 688 1862 623 1813 623 1745 c 0
 623 1673 686 1626 782 1626 c 0
 876 1626 940 1673 940 1743 c 0
 940 1813 876 1862 782 1862 c 0
EndSplineSet
EndChar

StartChar: Ccedilla
Encoding: 199 199 155
Width: 1548
GlyphClass: 2
Flags: HMW
HStem: -498 82<758 800 758 826> -37 100<893 893> 1362 100<808 1006 808 1014>
VStem: 74 289<641 833> 881 188<-342 -298> 1380 98
LayerCount: 2
Fore
SplineSet
977 -35 m 1
 879 -121 l 1
 1004 -144 1069 -199 1069 -281 c 0
 1069 -404 921 -498 731 -498 c 0
 627 -498 559 -469 559 -424 c 0
 559 -395 588 -369 623 -369 c 0
 641 -369 641 -368 711 -403 c 0
 725 -411 745 -416 770 -416 c 0
 829 -416 881 -373 881 -322 c 0
 881 -275 841 -242 786 -238 c 0
 739 -234 731 -231 723 -221 c 2
 711 -207 l 2
 707 -201 707 -201 707 -197 c 0
 707 -191 711 -182 719 -176 c 2
 893 -37 l 1
 682 -29 508 25 373 119 c 0
 185 254 74 473 74 719 c 0
 74 946 164 1131 342 1270 c 0
 502 1395 704 1462 911 1462 c 0
 1099 1462 1278 1413 1397 1327 c 1
 1434 1069 l 1
 1434 1059 l 2
 1434 1053 1433 1053 1417 1047 c 2
 1384 1038 l 2
 1372 1034 1368 1034 1364 1034 c 0
 1358 1034 1357 1034 1337 1067 c 0
 1196 1300 1108 1362 920 1362 c 0
 601 1362 362 1091 362 729 c 0
 362 553 424 381 535 254 c 0
 639 129 791 63 971 63 c 0
 1125 63 1218 108 1296 217 c 0
 1325 256 1325 256 1380 367 c 0
 1390 387 1395 391 1399 391 c 0
 1401 391 1413 387 1423 385 c 2
 1460 373 l 2
 1476 367 1479 364 1479 356 c 0
 1479 350 1479 351 1473 328 c 2
 1407 66 l 1
 1262 3 1129 -29 977 -35 c 1
EndSplineSet
EndChar

StartChar: Eth
Encoding: 208 208 156
Width: 1699
GlyphClass: 2
Flags: HMW
HStem: -12 90<724 857> 698 104<57 248 57 248 520 829> 1362 90<689 824 548 830>
VStem: 72 0<1368 1368 1378 1378> 248 272<272 301 301 698 803 1126 1126 1176> 1327 297<601 804>
LayerCount: 2
Fore
SplineSet
248 803 m 1
 248 1126 l 2
 248 1312 241 1321 104 1321 c 0
 79 1321 78 1323 76 1341 c 2
 72 1368 l 1
 72 1378 l 2
 74 1415 393 1452 702 1452 c 0
 946 1452 1163 1398 1325 1300 c 0
 1518 1181 1624 973 1624 715 c 0
 1624 488 1546 315 1384 184 c 0
 1216 47 1010 -12 705 -12 c 0
 627 -12 540 -10 442 -4 c 0
 409 -2 385 0 371 0 c 0
 359 0 328 -2 289 -4 c 2
 205 -6 l 1
 139 -10 l 2
 112 -12 90 -12 76 -12 c 0
 66 -12 61 -6 61 10 c 2
 61 45 l 2
 61 68 63 68 96 70 c 0
 229 74 248 98 248 272 c 2
 248 698 l 1
 57 698 l 1
 57 803 l 1
 248 803 l 1
520 803 m 1
 829 803 l 1
 829 698 l 1
 520 698 l 1
 520 301 l 2
 520 209 528 176 557 143 c 0
 596 102 676 78 772 78 c 0
 1098 78 1327 338 1327 709 c 0
 1327 899 1266 1075 1157 1194 c 0
 1057 1309 921 1362 739 1362 c 0
 639 1362 572 1344 543 1305 c 0
 523 1280 520 1264 520 1176 c 2
 520 803 l 1
EndSplineSet
EndChar

StartChar: Edieresis
Encoding: 203 203 157
Width: 1284
GlyphClass: 2
Flags: HW
HStem: -10 90 711 92<502 666 502 666> 1343 80 1384 41G<1078 1094> 1548 303<383 465 829 912>
VStem: 229 272<272 274 274 711 803 1141 1141 1143> 272 303<1659 1742 1658 1743> 719 303<1659 1742 1658 1743> 879 84<543 553 553 559> 1030 82
LayerCount: 2
Fore
SplineSet
502 803 m 1xdcc0
 666 803 l 2
 826 803 858 823 885 942 c 0
 893 977 893 977 911 977 c 2
 934 977 l 2
 959 977 963 970 963 952 c 2
 963 942 l 2
 963 936 963 925 961 913 c 2
 961 840 l 2
 959 785 958 747 958 731 c 0
 958 711 959 685 961 662 c 2
 963 590 l 1
 963 553 l 1
 963 543 l 2
 963 523 963 520 934 520 c 2
 903 520 l 2
 880 520 879 526 879 559 c 0
 881 608 870 651 852 676 c 0
 829 707 807 711 666 711 c 2
 502 711 l 1
 502 274 l 2
 502 172 507 144 532 117 c 0
 563 88 594 80 694 80 c 2
 905 80 l 2
 1018 80 1031 86 1090 178 c 2
 1133 246 l 2
 1178 307 1178 307 1190 307 c 0
 1196 307 1204 305 1212 303 c 2
 1245 297 l 2
 1265 293 1270 289 1270 281 c 0
 1270 275 1269 275 1257 242 c 2
 1182 6 l 2
 1178 -10 1175 -12 1163 -12 c 0
 1157 -12 1136 -12 1118 -10 c 2
 858 -8 l 1
 600 -2 l 2
 534 0 484 0 449 0 c 0
 383 0 174 -6 123 -10 c 2
 59 -12 l 2
 47 -12 45 -8 45 10 c 2
 45 45 l 2
 45 70 45 70 80 70 c 0
 211 74 229 98 229 272 c 2
 229 1141 l 2
 229 1311 209 1339 88 1343 c 0
 53 1345 53 1346 53 1366 c 2
 53 1401 l 2
 53 1419 56 1423 68 1423 c 0
 80 1423 98 1423 123 1421 c 0
 158 1419 416 1411 471 1411 c 0
 504 1411 553 1411 614 1413 c 2
 762 1417 l 1
 1049 1423 l 2xecc0
 1063 1425 1075 1425 1081 1425 c 0
 1106 1425 1110 1422 1110 1389 c 2
 1108 1270 l 1
 1110 1161 l 2
 1112 1149 1112 1135 1112 1133 c 0
 1112 1113 1107 1110 1087 1110 c 2
 1055 1110 l 2
 1035 1110 1032 1112 1030 1147 c 0
 1026 1208 1010 1265 983 1294 c 0
 956 1323 916 1333 807 1333 c 2
 657 1333 l 2
 512 1333 502 1321 502 1143 c 2
 502 803 l 1xdcc0
424 1851 m 0
 508 1851 575 1784 575 1700 c 0
 575 1616 508 1548 422 1548 c 0
 340 1548 272 1616 272 1702 c 0xca40
 272 1784 342 1851 424 1851 c 0
870 1851 m 0
 954 1851 1022 1784 1022 1700 c 0
 1022 1616 954 1548 870 1548 c 0
 786 1548 719 1616 719 1702 c 0xc940
 719 1784 788 1851 870 1851 c 0
EndSplineSet
EndChar

StartChar: Eacute
Encoding: 201 201 158
Width: 1284
GlyphClass: 2
Flags: HW
HStem: -10 90 711 92<502 666 502 666> 1343 80 1384 41G<1078 1094>
VStem: 229 272<272 274 274 711 803 1141 1141 1143> 879 84<543 553 553 559> 1030 82
LayerCount: 2
Fore
SplineSet
502 803 m 1xde
 666 803 l 2
 826 803 858 823 885 942 c 0
 893 977 893 977 911 977 c 2
 934 977 l 2
 959 977 963 970 963 952 c 2
 963 942 l 2
 963 936 963 925 961 913 c 2
 961 840 l 2
 959 785 958 747 958 731 c 0
 958 711 959 685 961 662 c 2
 963 590 l 1
 963 553 l 1
 963 543 l 2
 963 523 963 520 934 520 c 2
 903 520 l 2
 880 520 879 526 879 559 c 0
 881 608 870 651 852 676 c 0
 829 707 807 711 666 711 c 2
 502 711 l 1
 502 274 l 2
 502 172 507 144 532 117 c 0
 563 88 594 80 694 80 c 2
 905 80 l 2
 1018 80 1031 86 1090 178 c 2
 1133 246 l 2
 1178 307 1178 307 1190 307 c 0
 1196 307 1204 305 1212 303 c 2
 1245 297 l 2
 1265 293 1270 289 1270 281 c 0
 1270 275 1269 275 1257 242 c 2
 1182 6 l 2
 1178 -10 1175 -12 1163 -12 c 0
 1157 -12 1136 -12 1118 -10 c 2
 858 -8 l 1
 600 -2 l 2
 534 0 484 0 449 0 c 0
 383 0 174 -6 123 -10 c 2
 59 -12 l 2
 47 -12 45 -8 45 10 c 2
 45 45 l 2
 45 70 45 70 80 70 c 0
 211 74 229 98 229 272 c 2
 229 1141 l 2
 229 1311 209 1339 88 1343 c 0
 53 1345 53 1346 53 1366 c 2
 53 1401 l 2
 53 1419 56 1423 68 1423 c 0
 80 1423 98 1423 123 1421 c 0
 158 1419 416 1411 471 1411 c 0
 504 1411 553 1411 614 1413 c 2
 762 1417 l 1
 1049 1423 l 2xee
 1063 1425 1075 1425 1081 1425 c 0
 1106 1425 1110 1422 1110 1389 c 2
 1108 1270 l 1
 1110 1161 l 2
 1112 1149 1112 1135 1112 1133 c 0
 1112 1113 1107 1110 1087 1110 c 2
 1055 1110 l 2
 1035 1110 1032 1112 1030 1147 c 0
 1026 1208 1010 1265 983 1294 c 0
 956 1323 916 1333 807 1333 c 2
 657 1333 l 2
 512 1333 502 1321 502 1143 c 2
 502 803 l 1xde
854 1708 m 2
 530 1548 l 2
 518 1542 508 1538 504 1538 c 0
 498 1538 489 1544 481 1552 c 2
 455 1581 l 2
 447 1589 442 1596 442 1602 c 0
 442 1608 447 1614 463 1628 c 2
 729 1870 l 2
 778 1913 809 1929 846 1929 c 0
 903 1929 950 1882 950 1825 c 0
 950 1778 922 1741 854 1708 c 2
EndSplineSet
EndChar

StartChar: Egrave
Encoding: 200 200 159
Width: 1284
GlyphClass: 2
Flags: HW
HStem: -10 90 711 92<502 666 502 666> 1343 80 1384 41G<1078 1094>
VStem: 229 272<272 274 274 711 803 1141 1141 1143> 879 84<543 553 553 559> 1030 82
LayerCount: 2
Fore
SplineSet
502 803 m 1xde
 666 803 l 2
 826 803 858 823 885 942 c 0
 893 977 893 977 911 977 c 2
 934 977 l 2
 959 977 963 970 963 952 c 2
 963 942 l 2
 963 936 963 925 961 913 c 2
 961 840 l 2
 959 785 958 747 958 731 c 0
 958 711 959 685 961 662 c 2
 963 590 l 1
 963 553 l 1
 963 543 l 2
 963 523 963 520 934 520 c 2
 903 520 l 2
 880 520 879 526 879 559 c 0
 881 608 870 651 852 676 c 0
 829 707 807 711 666 711 c 2
 502 711 l 1
 502 274 l 2
 502 172 507 144 532 117 c 0
 563 88 594 80 694 80 c 2
 905 80 l 2
 1018 80 1031 86 1090 178 c 2
 1133 246 l 2
 1178 307 1178 307 1190 307 c 0
 1196 307 1204 305 1212 303 c 2
 1245 297 l 2
 1265 293 1270 289 1270 281 c 0
 1270 275 1269 275 1257 242 c 2
 1182 6 l 2
 1178 -10 1175 -12 1163 -12 c 0
 1157 -12 1136 -12 1118 -10 c 2
 858 -8 l 1
 600 -2 l 2
 534 0 484 0 449 0 c 0
 383 0 174 -6 123 -10 c 2
 59 -12 l 2
 47 -12 45 -8 45 10 c 2
 45 45 l 2
 45 70 45 70 80 70 c 0
 211 74 229 98 229 272 c 2
 229 1141 l 2
 229 1311 209 1339 88 1343 c 0
 53 1345 53 1346 53 1366 c 2
 53 1401 l 2
 53 1419 56 1423 68 1423 c 0
 80 1423 98 1423 123 1421 c 0
 158 1419 416 1411 471 1411 c 0
 504 1411 553 1411 614 1413 c 2
 762 1417 l 1
 1049 1423 l 2xee
 1063 1425 1075 1425 1081 1425 c 0
 1106 1425 1110 1422 1110 1389 c 2
 1108 1270 l 1
 1110 1161 l 2
 1112 1149 1112 1135 1112 1133 c 0
 1112 1113 1107 1110 1087 1110 c 2
 1055 1110 l 2
 1035 1110 1032 1112 1030 1147 c 0
 1026 1208 1010 1265 983 1294 c 0
 956 1323 916 1333 807 1333 c 2
 657 1333 l 2
 512 1333 502 1321 502 1143 c 2
 502 803 l 1xde
551 1870 m 2
 819 1628 l 2
 831 1616 838 1608 838 1602 c 0
 838 1596 833 1589 825 1581 c 2
 799 1552 l 2
 793 1544 782 1538 778 1538 c 0
 772 1538 764 1542 752 1548 c 2
 428 1708 l 2
 358 1743 330 1778 330 1827 c 0
 330 1884 377 1929 434 1929 c 0
 471 1929 502 1913 551 1870 c 2
EndSplineSet
EndChar

StartChar: Ecircumflex
Encoding: 202 202 160
Width: 1284
GlyphClass: 2
Flags: HW
HStem: -10 90 711 92<502 666 502 666> 1343 80 1384 41G<1078 1094> 1722 207<651 651>
VStem: 229 272<272 274 274 711 803 1141 1141 1143> 879 84<543 553 553 559> 1030 82
LayerCount: 2
Fore
SplineSet
502 803 m 1xdf
 666 803 l 2
 826 803 858 823 885 942 c 0
 893 977 893 977 911 977 c 2
 934 977 l 2
 959 977 963 970 963 952 c 2
 963 942 l 2
 963 936 963 925 961 913 c 2
 961 840 l 2
 959 785 958 747 958 731 c 0
 958 711 959 685 961 662 c 2
 963 590 l 1
 963 553 l 1
 963 543 l 2
 963 523 963 520 934 520 c 2
 903 520 l 2
 880 520 879 526 879 559 c 0
 881 608 870 651 852 676 c 0
 829 707 807 711 666 711 c 2
 502 711 l 1
 502 274 l 2
 502 172 507 144 532 117 c 0
 563 88 594 80 694 80 c 2
 905 80 l 2
 1018 80 1031 86 1090 178 c 2
 1133 246 l 2
 1178 307 1178 307 1190 307 c 0
 1196 307 1204 305 1212 303 c 2
 1245 297 l 2
 1265 293 1270 289 1270 281 c 0
 1270 275 1269 275 1257 242 c 2
 1182 6 l 2
 1178 -10 1175 -12 1163 -12 c 0
 1157 -12 1136 -12 1118 -10 c 2
 858 -8 l 1
 600 -2 l 2
 534 0 484 0 449 0 c 0
 383 0 174 -6 123 -10 c 2
 59 -12 l 2
 47 -12 45 -8 45 10 c 2
 45 45 l 2
 45 70 45 70 80 70 c 0
 211 74 229 98 229 272 c 2
 229 1141 l 2
 229 1311 209 1339 88 1343 c 0
 53 1345 53 1346 53 1366 c 2
 53 1401 l 2
 53 1419 56 1423 68 1423 c 0
 80 1423 98 1423 123 1421 c 0
 158 1419 416 1411 471 1411 c 0
 504 1411 553 1411 614 1413 c 2
 762 1417 l 1
 1049 1423 l 2xef
 1063 1425 1075 1425 1081 1425 c 0
 1106 1425 1110 1422 1110 1389 c 2
 1108 1270 l 1
 1110 1161 l 2
 1112 1149 1112 1135 1112 1133 c 0
 1112 1113 1107 1110 1087 1110 c 2
 1055 1110 l 2
 1035 1110 1032 1112 1030 1147 c 0
 1026 1208 1010 1265 983 1294 c 0
 956 1323 916 1333 807 1333 c 2
 657 1333 l 2
 512 1333 502 1321 502 1143 c 2
 502 803 l 1xdf
651 1722 m 1
 444 1554 l 2
 432 1544 422 1538 414 1538 c 0
 408 1538 397 1544 385 1552 c 2
 365 1571 l 2
 355 1577 348 1587 348 1593 c 0
 348 1599 352 1608 356 1616 c 2
 508 1829 l 2
 561 1905 596 1929 651 1929 c 0
 708 1929 744 1905 797 1829 c 2
 946 1616 l 2
 952 1608 956 1599 956 1593 c 0
 956 1587 950 1579 938 1571 c 2
 918 1552 l 2
 906 1544 895 1538 889 1538 c 0
 883 1538 870 1544 858 1554 c 2
 651 1722 l 1
EndSplineSet
EndChar

StartChar: Idieresis
Encoding: 207 207 161
Width: 792
GlyphClass: 2
Flags: HW
HStem: -12 82 1341 82<72 106> 1548 303<137 219 584 666>
VStem: 27 303<1659 1742 1658 1743> 256 272<272 1139> 473 303<1659 1742 1658 1743>
LayerCount: 2
Fore
SplineSet
256 272 m 2xe8
 256 1139 l 2
 256 1311 235 1339 106 1341 c 0
 63 1341 63 1343 63 1366 c 2
 63 1401 l 2
 63 1417 66 1423 78 1423 c 0
 90 1423 197 1419 295 1413 c 0
 334 1411 366 1411 393 1411 c 0
 430 1411 438 1411 555 1417 c 0
 575 1417 606 1419 645 1421 c 0
 672 1423 693 1423 707 1423 c 0
 719 1423 721 1419 721 1401 c 2
 721 1366 l 2
 721 1341 721 1341 678 1341 c 0
 549 1339 528 1311 528 1139 c 2
 528 272 l 2
 528 96 547 72 686 70 c 0
 721 68 721 68 721 45 c 2
 721 10 l 2
 721 -8 719 -12 707 -12 c 0
 695 -12 587 -8 489 -2 c 0
 450 0 418 0 393 0 c 0
 377 0 297 -4 150 -10 c 0
 119 -12 96 -12 78 -12 c 0
 66 -12 63 -6 63 10 c 2
 63 45 l 2
 63 68 63 68 98 70 c 0
 237 72 256 96 256 272 c 2xe8
178 1851 m 0
 262 1851 330 1784 330 1700 c 0
 330 1616 262 1548 176 1548 c 0
 94 1548 27 1616 27 1702 c 0xf0
 27 1784 96 1851 178 1851 c 0
625 1851 m 0
 709 1851 776 1784 776 1700 c 0
 776 1616 709 1548 623 1548 c 0
 541 1548 473 1616 473 1702 c 0xe4
 473 1784 543 1851 625 1851 c 0
EndSplineSet
EndChar

StartChar: Iacute
Encoding: 205 205 162
Width: 792
GlyphClass: 2
Flags: HMW
HStem: -12 82 1341 82<71 106>
VStem: 256 272<272 1139>
LayerCount: 2
Fore
SplineSet
256 272 m 2
 256 1139 l 2
 256 1311 235 1339 106 1341 c 0
 63 1341 63 1341 63 1366 c 2
 63 1401 l 2
 63 1419 66 1423 76 1423 c 0
 90 1423 197 1419 295 1413 c 0
 334 1411 366 1411 391 1411 c 0
 428 1411 438 1411 555 1417 c 0
 575 1417 606 1419 645 1421 c 0
 672 1423 693 1423 707 1423 c 0
 719 1423 721 1419 721 1401 c 2
 721 1366 l 2
 721 1341 721 1341 678 1341 c 0
 549 1339 528 1311 528 1139 c 2
 528 272 l 2
 528 96 547 74 686 70 c 0
 721 68 721 68 721 45 c 2
 721 10 l 2
 721 -8 719 -12 707 -12 c 0
 695 -12 587 -8 489 -2 c 0
 450 0 418 0 393 0 c 0
 377 0 294 -4 147 -10 c 0
 118 -12 94 -12 78 -12 c 0
 66 -12 63 -8 63 10 c 2
 63 45 l 2
 63 68 63 68 98 70 c 0
 237 72 256 96 256 272 c 2
608 1708 m 2
 285 1548 l 2
 273 1542 262 1538 258 1538 c 0
 252 1538 244 1544 236 1552 c 2
 211 1581 l 2
 203 1589 199 1596 199 1602 c 0
 199 1610 203 1616 217 1628 c 2
 483 1870 l 2
 532 1913 565 1929 602 1929 c 0
 659 1929 707 1884 707 1825 c 0
 707 1778 678 1743 608 1708 c 2
EndSplineSet
EndChar

StartChar: Igrave
Encoding: 204 204 163
Width: 792
GlyphClass: 2
Flags: HMW
HStem: -12 82 1341 82<71 106>
VStem: 256 272<272 1139>
LayerCount: 2
Fore
SplineSet
256 272 m 2
 256 1139 l 2
 256 1311 235 1339 106 1341 c 0
 63 1341 63 1341 63 1366 c 2
 63 1401 l 2
 63 1419 66 1423 76 1423 c 0
 90 1423 197 1419 295 1413 c 0
 334 1411 366 1411 391 1411 c 0
 428 1411 438 1411 555 1417 c 0
 575 1417 606 1419 645 1421 c 0
 672 1423 693 1423 707 1423 c 0
 719 1423 721 1419 721 1401 c 2
 721 1366 l 2
 721 1341 721 1341 678 1341 c 0
 549 1339 528 1311 528 1139 c 2
 528 272 l 2
 528 96 547 74 686 70 c 0
 721 68 721 68 721 45 c 2
 721 10 l 2
 721 -8 719 -12 707 -12 c 0
 695 -12 587 -8 489 -2 c 0
 450 0 418 0 393 0 c 0
 377 0 294 -4 147 -10 c 0
 118 -12 94 -12 78 -12 c 0
 66 -12 63 -8 63 10 c 2
 63 45 l 2
 63 68 63 68 98 70 c 0
 237 72 256 96 256 272 c 2
307 1870 m 2
 573 1628 l 2
 585 1618 592 1608 592 1602 c 0
 592 1596 588 1587 582 1581 c 2
 555 1552 l 2
 547 1544 538 1538 532 1538 c 0
 528 1538 518 1542 506 1548 c 2
 182 1708 l 2
 114 1743 86 1776 86 1827 c 0
 86 1884 133 1929 190 1929 c 0
 227 1929 258 1913 307 1870 c 2
EndSplineSet
EndChar

StartChar: Icircumflex
Encoding: 206 206 164
Width: 792
GlyphClass: 2
Flags: HMW
HStem: -12 82 1341 82<71 106>
VStem: 256 272<272 1139>
LayerCount: 2
Fore
SplineSet
256 272 m 2
 256 1139 l 2
 256 1311 235 1339 106 1341 c 0
 63 1341 63 1341 63 1366 c 2
 63 1401 l 2
 63 1419 66 1423 76 1423 c 0
 90 1423 197 1419 295 1413 c 0
 334 1411 366 1411 391 1411 c 0
 428 1411 438 1411 555 1417 c 0
 575 1417 606 1419 645 1421 c 0
 672 1423 693 1423 707 1423 c 0
 719 1423 721 1419 721 1401 c 2
 721 1366 l 2
 721 1341 721 1341 678 1341 c 0
 549 1339 528 1311 528 1139 c 2
 528 272 l 2
 528 96 547 74 686 70 c 0
 721 68 721 68 721 45 c 2
 721 10 l 2
 721 -8 719 -12 707 -12 c 0
 695 -12 587 -8 489 -2 c 0
 450 0 418 0 393 0 c 0
 377 0 294 -4 147 -10 c 0
 118 -12 94 -12 78 -12 c 0
 66 -12 63 -8 63 10 c 2
 63 45 l 2
 63 68 63 68 98 70 c 0
 237 72 256 96 256 272 c 2
408 1722 m 1
 199 1554 l 2
 187 1544 176 1538 170 1538 c 0
 162 1538 151 1544 141 1552 c 2
 119 1571 l 2
 109 1579 102 1587 102 1593 c 0
 102 1599 107 1608 113 1616 c 2
 262 1829 l 2
 315 1907 351 1929 406 1929 c 0
 463 1929 498 1905 551 1829 c 2
 700 1616 l 2
 706 1608 711 1599 711 1593 c 0
 711 1587 704 1579 694 1571 c 2
 672 1552 l 2
 662 1544 651 1538 643 1538 c 0
 637 1538 626 1544 614 1554 c 2
 408 1722 l 1
EndSplineSet
EndChar

StartChar: Ntilde
Encoding: 209 209 165
Width: 1736
GlyphClass: 2
Flags: HW
HStem: -12 82<69 72 62 98> 1339 84<1234 1248 1232 1287 1680 1686> 1538 186<1022 1062 1022 1066> 1677 186<686 726>
VStem: 258 121<303 1022 1022 1057> 1401 121<551 1120>
LayerCount: 2
Fore
SplineSet
776 1106 m 1xcc
 1393 393 l 1
 1399 430 1401 479 1401 551 c 2
 1401 1139 l 2
 1401 1248 1398 1265 1382 1294 c 0
 1364 1323 1318 1339 1255 1339 c 0
 1212 1339 1210 1339 1210 1366 c 2
 1210 1391 l 2
 1210 1416 1218 1423 1245 1423 c 0
 1251 1423 1364 1417 1507 1411 c 0
 1542 1411 1561 1413 1659 1421 c 0
 1669 1423 1677 1423 1683 1423 c 0
 1701 1423 1706 1418 1706 1391 c 2
 1706 1366 l 2
 1706 1343 1700 1339 1671 1339 c 0
 1550 1341 1522 1300 1522 1120 c 2
 1522 180 l 2
 1522 133 1522 45 1524 6 c 2
 1524 -25 l 2
 1524 -41 1517 -47 1499 -47 c 2
 1477 -47 l 2
 1426 -47 1418 -43 1393 -20 c 0
 1364 9 1329 47 1266 119 c 2
 438 1079 l 2
 413 1108 397 1122 391 1122 c 0
 383 1122 379 1106 379 1057 c 2
 379 303 l 2
 379 174 387 131 416 98 c 0
 443 71 459 70 559 68 c 0
 573 68 578 61 578 43 c 2
 578 12 l 2
 578 -8 573 -12 553 -12 c 0
 545 -12 534 -12 522 -10 c 0
 487 -8 352 0 340 0 c 0
 309 0 266 -2 203 -6 c 0
 148 -10 113 -12 84 -12 c 0
 53 -12 47 -7 47 18 c 2
 47 43 l 2
 47 63 54 70 72 70 c 0
 224 68 258 110 258 303 c 2
 258 1022 l 2
 258 1184 246 1257 213 1298 c 0
 190 1325 135 1341 72 1339 c 0
 31 1339 27 1341 27 1366 c 2
 27 1391 l 2
 27 1418 33 1425 53 1425 c 0
 61 1425 61 1425 133 1419 c 0
 188 1413 231 1411 254 1411 c 0
 270 1411 293 1413 453 1423 c 0
 465 1425 481 1425 487 1425 c 0
 516 1425 522 1421 551 1372 c 1
 776 1106 l 1xcc
547 1550 m 2
 524 1571 l 2
 516 1579 510 1592 510 1602 c 0
 510 1633 534 1704 561 1751 c 0
 604 1829 653 1864 719 1864 c 0xdc
 776 1864 830 1841 918 1778 c 0
 975 1739 1005 1724 1038 1724 c 0
 1085 1724 1125 1757 1141 1810 c 0
 1153 1851 1155 1858 1167 1858 c 0
 1171 1858 1178 1853 1184 1849 c 2
 1208 1829 l 2
 1222 1817 1227 1810 1227 1796 c 0
 1227 1761 1209 1692 1186 1647 c 0
 1153 1577 1097 1538 1034 1538 c 0xec
 979 1538 930 1559 846 1614 c 0
 778 1661 744 1677 709 1677 c 0xdc
 658 1677 615 1637 592 1567 c 0
 586 1547 579 1538 569 1538 c 0xec
 563 1538 555 1542 547 1550 c 2
EndSplineSet
EndChar

StartChar: Odieresis
Encoding: 214 214 166
Width: 1775
GlyphClass: 2
Flags: HMW
HStem: -37 98<761 985 761 1090> 1364 98<698 926> 1548 303<629 711 1075 1157>
VStem: 78 297<592 918> 518 303<1659 1742 1658 1743> 965 303<1659 1742 1658 1743> 1389 297<552 734>
LayerCount: 2
Fore
SplineSet
881 1462 m 0
 1344 1462 1686 1155 1686 737 c 0
 1686 295 1329 -37 850 -37 c 0
 391 -37 78 262 78 700 c 0
 78 1134 424 1462 881 1462 c 0
844 1364 m 0
 553 1364 375 1151 375 805 c 0
 375 379 606 61 915 61 c 0
 1054 61 1188 127 1274 238 c 0
 1350 336 1389 469 1389 635 c 0
 1389 834 1335 1024 1245 1155 c 0
 1155 1288 1008 1364 844 1364 c 0
670 1851 m 0
 754 1851 821 1784 821 1700 c 0
 821 1616 754 1548 668 1548 c 0
 586 1548 518 1616 518 1702 c 0
 518 1784 588 1851 670 1851 c 0
1116 1851 m 0
 1200 1851 1268 1784 1268 1700 c 0
 1268 1616 1200 1548 1114 1548 c 0
 1032 1548 965 1616 965 1702 c 0
 965 1784 1034 1851 1116 1851 c 0
EndSplineSet
EndChar

StartChar: Oacute
Encoding: 211 211 167
Width: 1775
GlyphClass: 2
Flags: HMW
HStem: -37 98<761 985 761 1090> 1364 98<698 926>
VStem: 78 297<592 918> 1389 297<552 734>
LayerCount: 2
Fore
SplineSet
881 1462 m 0
 1344 1462 1686 1155 1686 737 c 0
 1686 295 1329 -37 850 -37 c 0
 391 -37 78 262 78 700 c 0
 78 1134 424 1462 881 1462 c 0
844 1364 m 0
 553 1364 375 1151 375 805 c 0
 375 379 606 61 915 61 c 0
 1054 61 1188 127 1274 238 c 0
 1350 336 1389 469 1389 635 c 0
 1389 834 1335 1024 1245 1155 c 0
 1155 1288 1008 1364 844 1364 c 0
1100 1708 m 2
 776 1548 l 2
 764 1542 754 1538 750 1538 c 0
 744 1538 735 1544 727 1552 c 2
 700 1581 l 2
 694 1587 690 1596 690 1602 c 0
 690 1608 695 1616 709 1628 c 2
 975 1870 l 2
 1024 1913 1057 1929 1094 1929 c 0
 1151 1929 1198 1884 1198 1825 c 0
 1198 1776 1170 1743 1100 1708 c 2
EndSplineSet
EndChar

StartChar: Ograve
Encoding: 210 210 168
Width: 1775
GlyphClass: 2
Flags: HMW
HStem: -37 98<761 985 761 1090> 1364 98<698 926>
VStem: 78 297<592 918> 1389 297<552 734>
LayerCount: 2
Fore
SplineSet
881 1462 m 0
 1344 1462 1686 1155 1686 737 c 0
 1686 295 1329 -37 850 -37 c 0
 391 -37 78 262 78 700 c 0
 78 1134 424 1462 881 1462 c 0
844 1364 m 0
 553 1364 375 1151 375 805 c 0
 375 379 606 61 915 61 c 0
 1054 61 1188 127 1274 238 c 0
 1350 336 1389 469 1389 635 c 0
 1389 834 1335 1024 1245 1155 c 0
 1155 1288 1008 1364 844 1364 c 0
799 1870 m 2
 1065 1628 l 2
 1077 1618 1083 1608 1083 1602 c 0
 1083 1596 1079 1587 1073 1581 c 2
 1047 1552 l 2
 1039 1544 1030 1538 1024 1538 c 0
 1020 1538 1009 1542 997 1548 c 2
 674 1708 l 2
 606 1743 578 1776 578 1827 c 0
 578 1884 625 1929 682 1929 c 0
 719 1929 750 1913 799 1870 c 2
EndSplineSet
EndChar

StartChar: Ocircumflex
Encoding: 212 212 169
Width: 1775
GlyphClass: 2
Flags: HMW
HStem: -37 98<761 985 761 1090> 1364 98<698 926>
VStem: 78 297<592 918> 1389 297<552 734>
LayerCount: 2
Fore
SplineSet
881 1462 m 0
 1344 1462 1686 1155 1686 737 c 0
 1686 295 1329 -37 850 -37 c 0
 391 -37 78 262 78 700 c 0
 78 1134 424 1462 881 1462 c 0
844 1364 m 0
 553 1364 375 1151 375 805 c 0
 375 379 606 61 915 61 c 0
 1054 61 1188 127 1274 238 c 0
 1350 336 1389 469 1389 635 c 0
 1389 834 1335 1024 1245 1155 c 0
 1155 1288 1008 1364 844 1364 c 0
899 1722 m 1
 690 1554 l 2
 678 1544 668 1538 662 1538 c 0
 656 1538 645 1544 633 1552 c 2
 610 1571 l 2
 600 1579 594 1587 594 1593 c 0
 594 1599 598 1608 604 1616 c 2
 754 1829 l 2
 807 1905 842 1929 899 1929 c 0
 954 1929 989 1905 1042 1829 c 2
 1192 1616 l 2
 1198 1608 1202 1599 1202 1593 c 0
 1202 1587 1196 1579 1186 1571 c 2
 1163 1552 l 2
 1153 1544 1143 1538 1135 1538 c 0
 1129 1538 1118 1544 1106 1554 c 2
 899 1722 l 1
EndSplineSet
EndChar

StartChar: Otilde
Encoding: 213 213 170
Width: 1775
GlyphClass: 2
Flags: HW
HStem: -37 98<761 985 761 1090> 1364 98<698 926> 1538 186<1042 1082 1042 1086> 1677 186<707 745>
VStem: 78 297<592 918> 1389 297<552 734>
LayerCount: 2
Fore
SplineSet
881 1462 m 0xcc
 1344 1462 1686 1155 1686 737 c 0
 1686 295 1329 -37 850 -37 c 0
 391 -37 78 262 78 700 c 0
 78 1134 424 1462 881 1462 c 0xcc
844 1364 m 0
 553 1364 375 1151 375 805 c 0
 375 379 606 61 915 61 c 0
 1054 61 1188 127 1274 238 c 0
 1350 336 1389 469 1389 635 c 0
 1389 834 1335 1024 1245 1155 c 0
 1155 1288 1008 1364 844 1364 c 0
565 1550 m 2
 543 1571 l 2
 535 1577 530 1590 530 1602 c 0
 530 1635 553 1704 580 1751 c 0
 625 1829 673 1864 739 1864 c 0xdc
 796 1864 848 1841 938 1778 c 0
 995 1739 1026 1724 1059 1724 c 0
 1106 1724 1143 1757 1159 1810 c 0
 1171 1851 1176 1856 1184 1858 c 0
 1190 1858 1196 1855 1204 1849 c 2
 1227 1829 l 2
 1245 1815 1247 1810 1247 1794 c 0
 1247 1761 1229 1694 1206 1647 c 0
 1175 1579 1118 1538 1055 1538 c 0xec
 1000 1538 948 1559 866 1614 c 0
 796 1661 762 1677 729 1677 c 0xdc
 678 1677 632 1637 612 1567 c 0
 604 1547 598 1538 590 1538 c 0xec
 582 1538 573 1542 565 1550 c 2
EndSplineSet
EndChar

StartChar: Scaron
Encoding: 352 352 171
Width: 1095
GlyphClass: 2
Flags: HW
HStem: -37 90<430 595 430 641> 1370 92<488 634> 1538 207<557 557 557 586>
VStem: 94 86 100 213<1091 1161> 801 213<272 350> 829 96
LayerCount: 2
Fore
SplineSet
926 1350 m 1xea
 926 1133 l 2
 926 1100 923 1098 905 1098 c 2
 862 1098 l 2
 833 1098 833 1097 829 1126 c 0
 798 1282 704 1370 563 1370 c 0
 413 1370 313 1282 313 1151 c 0xea
 313 1030 385 958 602 862 c 0
 770 788 854 739 911 680 c 0
 981 606 1014 517 1014 406 c 0
 1014 140 800 -37 481 -37 c 0
 348 -37 236 -10 121 45 c 1
 94 297 l 2
 92 317 97 322 117 322 c 2
 150 322 l 2
 173 322 174 319 180 303 c 0
 239 139 350 53 510 53 c 0
 680 53 801 150 801 285 c 0xf4
 801 416 736 483 496 592 c 0
 191 731 100 833 100 1038 c 0
 100 1284 295 1462 563 1462 c 0
 708 1462 846 1420 926 1350 c 1xea
557 1745 m 1
 764 1913 l 2
 778 1923 789 1929 795 1929 c 0
 801 1929 811 1923 823 1915 c 2
 846 1896 l 2
 856 1886 862 1880 862 1874 c 0
 862 1868 858 1859 852 1849 c 2
 702 1636 l 2
 649 1562 614 1538 557 1538 c 0
 502 1538 465 1562 414 1636 c 2
 264 1849 l 2
 258 1857 254 1866 254 1874 c 0
 254 1880 260 1888 270 1896 c 2
 291 1915 l 2
 303 1923 313 1929 319 1929 c 0
 325 1929 338 1923 350 1913 c 2
 557 1745 l 1
EndSplineSet
EndChar

StartChar: Udieresis
Encoding: 220 220 172
Width: 1660
GlyphClass: 2
Flags: HW
HStem: -43 150<741 923> 1341 82 1548 303<573 655 1020 1102>
VStem: 229 272<455 471 471 1139> 463 303<1660 1742 1658 1743> 909 303<1659 1742 1658 1743> 1331 121<549 1139>
LayerCount: 2
Fore
SplineSet
502 1139 m 2xf6
 502 471 l 2
 502 209 607 106 877 106 c 0
 1072 106 1204 161 1276 274 c 0
 1319 346 1331 402 1331 549 c 2
 1331 1139 l 2
 1331 1313 1313 1337 1178 1341 c 0
 1143 1343 1143 1343 1143 1366 c 2
 1143 1401 l 2
 1143 1419 1147 1423 1157 1423 c 0
 1173 1423 1196 1421 1227 1419 c 0
 1262 1415 1356 1411 1391 1411 c 0
 1430 1411 1521 1415 1552 1419 c 0
 1587 1421 1612 1423 1628 1423 c 0
 1638 1423 1642 1417 1642 1401 c 2
 1642 1366 l 2
 1642 1343 1643 1343 1608 1341 c 0
 1471 1337 1452 1315 1452 1139 c 2
 1452 549 l 2
 1452 344 1417 235 1323 137 c 0
 1210 20 1032 -43 813 -43 c 0
 590 -43 409 20 319 131 c 0
 256 211 229 305 229 455 c 2
 229 1139 l 2
 229 1313 211 1337 80 1341 c 0
 45 1343 45 1343 45 1366 c 2
 45 1401 l 2
 45 1419 47 1423 57 1423 c 0
 63 1423 70 1423 78 1421 c 0
 119 1417 292 1411 362 1411 c 0
 444 1411 514 1413 606 1419 c 0
 647 1421 668 1423 680 1423 c 0
 694 1423 696 1419 696 1401 c 2
 696 1366 l 2
 696 1343 697 1343 662 1341 c 0
 521 1339 502 1317 502 1139 c 2xf6
614 1851 m 0
 698 1851 766 1784 766 1700 c 0
 766 1616 698 1548 612 1548 c 0
 530 1548 463 1618 463 1702 c 0xee
 463 1784 532 1851 614 1851 c 0
1061 1851 m 0
 1145 1851 1212 1784 1212 1700 c 0
 1212 1616 1145 1548 1059 1548 c 0
 977 1548 909 1616 909 1702 c 0
 909 1784 979 1851 1061 1851 c 0
EndSplineSet
EndChar

StartChar: Uacute
Encoding: 218 218 173
Width: 1660
GlyphClass: 2
Flags: HMW
HStem: -43 150<741 923> 1341 82
VStem: 229 272<455 471 471 1139> 1331 121<549 1139>
LayerCount: 2
Fore
SplineSet
502 1139 m 2
 502 471 l 2
 502 209 607 106 877 106 c 0
 1072 106 1204 161 1276 274 c 0
 1319 346 1331 402 1331 549 c 2
 1331 1139 l 2
 1331 1313 1313 1337 1178 1341 c 0
 1143 1343 1143 1343 1143 1366 c 2
 1143 1401 l 2
 1143 1419 1147 1423 1157 1423 c 0
 1173 1423 1196 1421 1227 1419 c 0
 1262 1415 1356 1411 1391 1411 c 0
 1430 1411 1521 1415 1552 1419 c 0
 1587 1421 1612 1423 1628 1423 c 0
 1638 1423 1642 1417 1642 1401 c 2
 1642 1366 l 2
 1642 1343 1643 1343 1608 1341 c 0
 1471 1337 1452 1315 1452 1139 c 2
 1452 549 l 2
 1452 344 1417 235 1323 137 c 0
 1210 20 1032 -43 813 -43 c 0
 590 -43 409 20 319 131 c 0
 256 211 229 305 229 455 c 2
 229 1139 l 2
 229 1313 211 1337 80 1341 c 0
 45 1343 45 1343 45 1366 c 2
 45 1401 l 2
 45 1419 47 1423 57 1423 c 0
 63 1423 70 1423 78 1421 c 0
 119 1417 292 1411 362 1411 c 0
 444 1411 514 1413 606 1419 c 0
 647 1421 668 1423 680 1423 c 0
 694 1423 696 1419 696 1401 c 2
 696 1366 l 2
 696 1343 697 1343 662 1341 c 0
 521 1339 502 1317 502 1139 c 2
1044 1708 m 2
 721 1548 l 2
 709 1542 698 1538 694 1538 c 0
 688 1538 680 1544 672 1552 c 2
 645 1581 l 2
 639 1587 635 1596 635 1602 c 0
 635 1610 641 1616 653 1628 c 2
 920 1870 l 2
 969 1913 999 1929 1036 1929 c 0
 1093 1929 1141 1884 1141 1827 c 0
 1141 1778 1112 1741 1044 1708 c 2
EndSplineSet
EndChar

StartChar: Ugrave
Encoding: 217 217 174
Width: 1660
GlyphClass: 2
Flags: HMW
HStem: -43 150<741 923> 1341 82
VStem: 229 272<455 471 471 1139> 1331 121<549 1139>
LayerCount: 2
Fore
SplineSet
502 1139 m 2
 502 471 l 2
 502 209 607 106 877 106 c 0
 1072 106 1204 161 1276 274 c 0
 1319 346 1331 402 1331 549 c 2
 1331 1139 l 2
 1331 1313 1313 1337 1178 1341 c 0
 1143 1343 1143 1343 1143 1366 c 2
 1143 1401 l 2
 1143 1419 1147 1423 1157 1423 c 0
 1173 1423 1196 1421 1227 1419 c 0
 1262 1415 1356 1411 1391 1411 c 0
 1430 1411 1521 1415 1552 1419 c 0
 1587 1421 1612 1423 1628 1423 c 0
 1638 1423 1642 1417 1642 1401 c 2
 1642 1366 l 2
 1642 1343 1643 1343 1608 1341 c 0
 1471 1337 1452 1315 1452 1139 c 2
 1452 549 l 2
 1452 344 1417 235 1323 137 c 0
 1210 20 1032 -43 813 -43 c 0
 590 -43 409 20 319 131 c 0
 256 211 229 305 229 455 c 2
 229 1139 l 2
 229 1313 211 1337 80 1341 c 0
 45 1343 45 1343 45 1366 c 2
 45 1401 l 2
 45 1419 47 1423 57 1423 c 0
 63 1423 70 1423 78 1421 c 0
 119 1417 292 1411 362 1411 c 0
 444 1411 514 1413 606 1419 c 0
 647 1421 668 1423 680 1423 c 0
 694 1423 696 1419 696 1401 c 2
 696 1366 l 2
 696 1343 697 1343 662 1341 c 0
 521 1339 502 1317 502 1139 c 2
743 1870 m 2
 1010 1628 l 2
 1022 1618 1028 1608 1028 1602 c 0
 1028 1596 1024 1589 1016 1581 c 2
 991 1552 l 2
 983 1544 975 1538 969 1538 c 0
 965 1538 954 1542 942 1548 c 2
 618 1708 l 2
 550 1741 522 1776 522 1827 c 0
 522 1884 568 1929 627 1929 c 0
 664 1929 694 1913 743 1870 c 2
EndSplineSet
EndChar

StartChar: Ucircumflex
Encoding: 219 219 175
Width: 1660
GlyphClass: 2
Flags: HMW
HStem: -43 150<741 923> 1341 82 1722 207<842 842>
VStem: 229 272<455 471 471 1139> 1331 121<549 1139>
LayerCount: 2
Fore
SplineSet
502 1139 m 2
 502 471 l 2
 502 209 607 106 877 106 c 0
 1072 106 1204 161 1276 274 c 0
 1319 346 1331 402 1331 549 c 2
 1331 1139 l 2
 1331 1313 1313 1337 1178 1341 c 0
 1143 1343 1143 1343 1143 1366 c 2
 1143 1401 l 2
 1143 1419 1147 1423 1157 1423 c 0
 1173 1423 1196 1421 1227 1419 c 0
 1262 1415 1356 1411 1391 1411 c 0
 1430 1411 1521 1415 1552 1419 c 0
 1587 1421 1612 1423 1628 1423 c 0
 1638 1423 1642 1417 1642 1401 c 2
 1642 1366 l 2
 1642 1343 1643 1343 1608 1341 c 0
 1471 1337 1452 1315 1452 1139 c 2
 1452 549 l 2
 1452 344 1417 235 1323 137 c 0
 1210 20 1032 -43 813 -43 c 0
 590 -43 409 20 319 131 c 0
 256 211 229 305 229 455 c 2
 229 1139 l 2
 229 1313 211 1337 80 1341 c 0
 45 1343 45 1343 45 1366 c 2
 45 1401 l 2
 45 1419 47 1423 57 1423 c 0
 63 1423 70 1423 78 1421 c 0
 119 1417 292 1411 362 1411 c 0
 444 1411 514 1413 606 1419 c 0
 647 1421 668 1423 680 1423 c 0
 694 1423 696 1419 696 1401 c 2
 696 1366 l 2
 696 1343 697 1343 662 1341 c 0
 521 1339 502 1317 502 1139 c 2
842 1722 m 1
 635 1554 l 2
 623 1544 612 1538 606 1538 c 0
 598 1538 587 1544 575 1552 c 2
 555 1571 l 2
 545 1577 539 1587 539 1593 c 0
 539 1599 543 1608 549 1616 c 2
 698 1829 l 2
 751 1905 787 1929 842 1929 c 0
 899 1929 934 1905 987 1829 c 2
 1137 1616 l 2
 1143 1608 1147 1599 1147 1593 c 0
 1147 1587 1140 1579 1130 1571 c 2
 1108 1552 l 2
 1096 1544 1085 1538 1079 1538 c 0
 1073 1538 1063 1544 1049 1554 c 2
 842 1722 l 1
EndSplineSet
EndChar

StartChar: Yacute
Encoding: 221 221 176
Width: 1435
GlyphClass: 2
Flags: HMW
HStem: -12 82 1339 84<623 639>
VStem: 594 272<272 588 588 598>
LayerCount: 2
Fore
SplineSet
829 797 m 1
 1063 1155 l 2
 1108 1225 1133 1275 1133 1300 c 0
 1133 1325 1092 1337 1012 1337 c 0
 983 1337 979 1341 979 1368 c 2
 979 1395 l 2
 979 1418 983 1423 1001 1423 c 0
 1007 1423 1016 1423 1024 1421 c 0
 1081 1413 1127 1411 1190 1411 c 0
 1249 1411 1331 1415 1376 1421 c 0
 1388 1423 1401 1423 1407 1423 c 0
 1423 1423 1427 1418 1427 1395 c 2
 1427 1368 l 2
 1427 1343 1428 1343 1389 1339 c 0
 1319 1331 1255 1266 1124 1067 c 2
 911 731 l 2
 878 680 872 667 868 657 c 0
 866 649 866 645 866 598 c 2
 866 272 l 2
 866 94 883 74 1024 70 c 0
 1059 68 1059 68 1059 45 c 2
 1059 10 l 2
 1059 -8 1056 -12 1044 -12 c 0
 1028 -12 1004 -10 973 -8 c 0
 926 -4 797 0 727 0 c 0
 653 0 534 -4 487 -8 c 0
 458 -10 436 -12 420 -12 c 0
 410 -12 406 -6 406 10 c 2
 406 45 l 2
 406 68 407 68 440 70 c 0
 575 74 594 98 594 272 c 2
 594 588 l 2
 594 660 594 660 555 717 c 2
 274 1143 l 2
 168 1305 121 1343 31 1343 c 0
 15 1343 10 1348 10 1368 c 2
 10 1395 l 2
 10 1415 18 1423 45 1423 c 0
 57 1423 70 1423 84 1421 c 0
 156 1417 344 1411 383 1411 c 0
 426 1411 467 1413 510 1415 c 0
 596 1421 619 1423 627 1423 c 0
 652 1423 655 1418 655 1395 c 2
 655 1368 l 2
 655 1343 652 1339 627 1339 c 0
 527 1339 498 1332 498 1303 c 0
 498 1285 510 1262 557 1192 c 2
 829 797 l 1
930 1708 m 2
 606 1548 l 2
 594 1542 584 1538 580 1538 c 0
 574 1538 565 1544 557 1552 c 2
 530 1581 l 2
 524 1587 520 1596 520 1602 c 0
 520 1610 527 1616 539 1628 c 2
 805 1870 l 2
 856 1913 885 1929 922 1929 c 0
 979 1929 1026 1884 1026 1827 c 0
 1026 1778 998 1741 930 1708 c 2
EndSplineSet
EndChar

StartChar: Zcaron
Encoding: 381 381 177
Width: 1359
GlyphClass: 2
Flags: HMW
HStem: 0 86<640 710> 1307 90<658 709 658 874>
VStem: 90 115
LayerCount: 2
Fore
SplineSet
152 1087 m 2
 90 1120 l 1
 108 1175 115 1198 129 1249 c 0
 139 1280 140 1280 154 1339 c 0
 162 1370 170 1399 176 1430 c 0
 182 1446 186 1465 190 1483 c 1
 229 1493 l 2
 239 1495 250 1497 256 1497 c 0
 270 1497 270 1497 311 1450 c 0
 334 1421 356 1411 393 1407 c 0
 452 1403 631 1397 686 1397 c 0
 731 1397 1147 1405 1225 1409 c 2
 1247 1409 l 2
 1280 1409 1294 1400 1294 1386 c 0
 1294 1372 1282 1350 1255 1309 c 0
 1237 1284 1220 1258 1204 1231 c 2
 1075 1030 l 1
 887 748 l 1
 571 297 l 2
 475 160 440 106 440 96 c 0
 440 88 440 88 477 86 c 2
 805 86 l 2
 1014 86 1110 136 1184 283 c 0
 1202 316 1209 324 1221 324 c 0
 1223 324 1229 324 1235 322 c 2
 1270 313 l 2
 1290 309 1298 303 1298 293 c 0
 1298 281 1287 239 1264 178 c 0
 1237 106 1231 88 1223 35 c 0
 1217 -4 1211 -12 1188 -12 c 0
 1165 -12 1114 -10 1065 -8 c 0
 973 -4 752 0 668 0 c 0
 613 0 227 -8 174 -10 c 0
 141 -12 110 -12 92 -12 c 0
 65 -12 51 -2 51 14 c 0
 51 37 54 39 154 176 c 2
 852 1200 l 2
 893 1261 907 1284 907 1294 c 0
 907 1304 899 1307 874 1307 c 2
 543 1307 l 2
 344 1307 289 1277 205 1130 c 0
 185 1091 176 1081 170 1081 c 0
 164 1081 160 1083 152 1087 c 2
690 1745 m 1
 899 1913 l 2
 911 1923 922 1929 928 1929 c 0
 934 1929 944 1923 956 1915 c 2
 979 1896 l 2
 989 1888 995 1880 995 1874 c 0
 995 1868 991 1859 985 1849 c 2
 836 1636 l 2
 783 1562 747 1538 690 1538 c 0
 635 1538 600 1562 547 1636 c 2
 397 1849 l 2
 391 1857 387 1868 387 1874 c 0
 387 1880 393 1888 403 1896 c 2
 426 1915 l 2
 438 1923 449 1929 455 1929 c 0
 461 1929 471 1923 483 1913 c 2
 690 1745 l 1
EndSplineSet
EndChar

StartChar: Thorn
Encoding: 222 222 178
Width: 1284
GlyphClass: 2
Flags: HMW
HStem: -12 84<690 693 672 702> 307 98<645 779> 1059 96<632 749> 1341 82<87 99 80 100>
VStem: 252 274<342 356 356 799> 940 274<655 824>
LayerCount: 2
Fore
SplineSet
719 1393 m 2
 719 1378 l 2
 719 1347 719 1347 647 1339 c 0
 557 1329 532 1290 530 1151 c 1
 567 1153 600 1155 614 1155 c 0
 968 1155 1214 975 1214 715 c 0
 1214 596 1157 486 1055 408 c 0
 969 340 852 307 707 307 c 0
 639 307 629 311 629 334 c 2
 629 379 l 2
 629 402 632 406 657 406 c 0
 854 404 940 498 940 715 c 0
 940 934 837 1059 659 1059 c 0
 604 1059 563 1045 545 1018 c 0
 527 991 526 989 526 799 c 2
 526 356 l 2
 526 166 528 152 551 119 c 0
 574 88 613 74 672 72 c 0
 715 72 719 70 719 37 c 2
 719 18 l 2
 719 -7 712 -12 692 -12 c 0
 688 -12 689 -12 621 -8 c 0
 580 -6 428 0 389 0 c 0
 346 0 281 -2 82 -12 c 1
 76 -12 l 2
 62 -12 59 -9 59 14 c 2
 59 45 l 2
 59 65 75 70 143 72 c 0
 206 74 246 113 250 176 c 0
 252 192 252 192 252 342 c 2
 252 1090 l 2
 252 1272 252 1271 229 1300 c 0
 206 1327 168 1339 100 1341 c 0
 73 1341 59 1350 59 1364 c 2
 59 1397 l 2
 59 1415 67 1423 92 1423 c 0
 106 1423 107 1423 289 1415 c 0
 342 1413 386 1411 406 1411 c 0
 447 1411 536 1415 616 1419 c 0
 659 1421 686 1423 694 1423 c 0
 712 1423 719 1416 719 1393 c 2
EndSplineSet
EndChar

StartChar: Ydieresis
Encoding: 376 376 179
Width: 1435
GlyphClass: 2
Flags: HW
HStem: -12 82 1339 84<623 639> 1548 303<459 541 905 987>
VStem: 348 303<1659 1742 1658 1743> 594 272<272 588 588 598> 795 303<1660 1742 1658 1743>
LayerCount: 2
Fore
SplineSet
829 797 m 1xe8
 1063 1155 l 2
 1108 1225 1133 1275 1133 1300 c 0
 1133 1325 1092 1337 1012 1337 c 0
 983 1337 979 1341 979 1368 c 2
 979 1395 l 2
 979 1418 983 1423 1001 1423 c 0
 1007 1423 1016 1423 1024 1421 c 0
 1081 1413 1127 1411 1190 1411 c 0
 1249 1411 1331 1415 1376 1421 c 0
 1388 1423 1401 1423 1407 1423 c 0
 1423 1423 1427 1418 1427 1395 c 2
 1427 1368 l 2
 1427 1343 1428 1343 1389 1339 c 0
 1319 1331 1255 1266 1124 1067 c 2
 911 731 l 2
 878 680 872 667 868 657 c 0
 866 649 866 645 866 598 c 2
 866 272 l 2
 866 94 883 74 1024 70 c 0
 1059 68 1059 68 1059 45 c 2
 1059 10 l 2
 1059 -8 1056 -12 1044 -12 c 0
 1028 -12 1004 -10 973 -8 c 0
 926 -4 797 0 727 0 c 0
 653 0 534 -4 487 -8 c 0
 458 -10 436 -12 420 -12 c 0
 410 -12 406 -6 406 10 c 2
 406 45 l 2
 406 68 407 68 440 70 c 0
 575 74 594 98 594 272 c 2
 594 588 l 2
 594 660 594 660 555 717 c 2
 274 1143 l 2
 168 1305 121 1343 31 1343 c 0
 15 1343 10 1348 10 1368 c 2
 10 1395 l 2
 10 1415 18 1423 45 1423 c 0
 57 1423 70 1423 84 1421 c 0
 156 1417 344 1411 383 1411 c 0
 426 1411 467 1413 510 1415 c 0
 596 1421 619 1423 627 1423 c 0
 652 1423 655 1418 655 1395 c 2
 655 1368 l 2
 655 1343 652 1339 627 1339 c 0
 527 1339 498 1332 498 1303 c 0
 498 1285 510 1262 557 1192 c 2
 829 797 l 1xe8
500 1851 m 0
 584 1851 651 1784 651 1700 c 0
 651 1616 584 1548 498 1548 c 0
 416 1548 348 1616 348 1702 c 0xf0
 348 1784 418 1851 500 1851 c 0
946 1851 m 0
 1030 1851 1098 1784 1098 1700 c 0
 1098 1616 1030 1548 944 1548 c 0
 862 1548 795 1618 795 1702 c 0xe4
 795 1784 864 1851 946 1851 c 0
EndSplineSet
EndChar

StartChar: adieresis
Encoding: 228 228 180
Width: 944
GlyphClass: 2
Flags: HW
HStem: -33 139<227 419> -33 172<669 843> 770 162<444 457> 1137 297<224 305 224 305 639 719>
VStem: 63 227<197 287> 84 160<624 719> 117 297<1246 1325 1243 1327> 530 297<1246 1326 1244 1327> 563 227<226 283 283 428 428 428 494 578 578 633> 895 39<178 195>
LayerCount: 2
Fore
SplineSet
264 623 m 1xb4c0
 106 549 l 1
 94 572 84 610 84 637 c 0
 84 694 143 760 270 840 c 0
 346 891 385 912 444 932 c 1
 585 932 656 915 709 872 c 0
 768 825 791 760 791 633 c 2
 791 283 l 2
 791 170 798 139 829 139 c 0
 856 139 872 156 895 195 c 1
 934 178 l 1
 891 37 821 -33 717 -33 c 0x74c0
 621 -33 571 24 567 141 c 1
 426 8 354 -33 256 -33 c 0
 199 -33 144 -4 117 41 c 0xb2c0
 90 86 63 176 63 217 c 0xb840
 63 266 108 306 231 365 c 0
 311 402 461 461 563 494 c 1
 563 578 l 2
 563 721 520 770 393 770 c 0
 297 770 244 743 244 694 c 0
 244 678 244 676 264 623 c 1xb4c0
563 215 m 1
 563 428 l 1
 327 332 291 309 291 264 c 0
 291 235 301 191 311 160 c 0
 323 127 354 106 389 106 c 0xb8c0
 448 106 497 137 563 215 c 1
264 1434 m 0
 346 1434 414 1366 414 1284 c 0
 414 1202 346 1137 264 1137 c 0
 182 1137 117 1204 117 1288 c 0x3240
 117 1366 184 1434 264 1434 c 0
680 1434 m 0
 760 1434 827 1366 827 1286 c 0
 827 1202 760 1137 678 1137 c 0
 596 1137 530 1204 530 1288 c 0x3140
 530 1366 598 1434 680 1434 c 0
EndSplineSet
Substitution2: "smcpLowercasetoSmallCapitalslookup subtable" adieresis.smcp
EndChar

StartChar: aacute
Encoding: 225 225 181
Width: 944
GlyphClass: 2
Flags: HW
HStem: -33 139<227 419> -33 172<669 843> 770 162<444 457>
VStem: 63 227<197 287> 84 160<624 719> 563 227<226 283 283 428 428 428 494 578 578 633> 895 39<178 195>
LayerCount: 2
Fore
SplineSet
264 623 m 1xae
 106 549 l 1
 94 572 84 610 84 637 c 0
 84 694 143 760 270 840 c 0
 346 891 385 912 444 932 c 1
 585 932 656 915 709 872 c 0
 768 825 791 760 791 633 c 2
 791 283 l 2
 791 170 798 139 829 139 c 0
 856 139 872 156 895 195 c 1
 934 178 l 1
 891 37 821 -33 717 -33 c 0x6e
 621 -33 571 24 567 141 c 1
 426 8 354 -33 256 -33 c 0
 199 -33 144 -4 117 41 c 0
 90 86 63 176 63 217 c 0xb6
 63 266 108 306 231 365 c 0
 311 402 461 461 563 494 c 1
 563 578 l 2
 563 721 520 770 393 770 c 0
 297 770 244 743 244 694 c 0
 244 678 244 676 264 623 c 1xae
563 215 m 1
 563 428 l 1
 327 332 291 309 291 264 c 0
 291 235 301 191 311 160 c 0
 323 127 354 106 389 106 c 0xb6
 448 106 497 137 563 215 c 1
379 1122 m 2
 508 1466 l 2
 545 1560 574 1591 625 1591 c 0
 682 1591 733 1542 733 1487 c 0
 733 1454 713 1415 674 1362 c 2
 446 1071 l 2
 442 1067 436 1063 430 1063 c 0
 424 1063 418 1065 414 1067 c 2
 391 1083 l 2
 383 1089 377 1098 377 1108 c 0
 377 1112 377 1118 379 1122 c 2
EndSplineSet
Substitution2: "smcpLowercasetoSmallCapitalslookup subtable" aacute.smcp
EndChar

StartChar: agrave
Encoding: 224 224 182
Width: 944
GlyphClass: 2
Flags: HW
HStem: -33 139<227 419> -33 172<669 843> 770 162<444 457>
VStem: 63 227<197 287> 84 160<624 719> 227 225<1466 1514> 563 227<226 283 283 428 428 428 494 578 578 633> 895 39<178 195>
LayerCount: 2
Fore
SplineSet
264 623 m 1xab
 106 549 l 1
 94 572 84 610 84 637 c 0
 84 694 143 760 270 840 c 0
 346 891 385 912 444 932 c 1
 585 932 656 915 709 872 c 0
 768 825 791 760 791 633 c 2
 791 283 l 2
 791 170 798 139 829 139 c 0
 856 139 872 156 895 195 c 1
 934 178 l 1
 891 37 821 -33 717 -33 c 0x6b
 621 -33 571 24 567 141 c 1
 426 8 354 -33 256 -33 c 0
 199 -33 144 -4 117 41 c 0
 90 86 63 176 63 217 c 0xb3
 63 266 108 306 231 365 c 0
 311 402 461 461 563 494 c 1
 563 578 l 2
 563 721 520 770 393 770 c 0
 297 770 244 743 244 694 c 0
 244 678 244 676 264 623 c 1xab
563 215 m 1
 563 428 l 1
 327 332 291 309 291 264 c 0
 291 235 301 191 311 160 c 0
 323 127 354 106 389 106 c 0xb3
 448 106 497 137 563 215 c 1
516 1071 m 2
 289 1362 l 2
 246 1417 227 1454 227 1487 c 0
 227 1542 279 1591 338 1591 c 0
 389 1591 418 1560 453 1466 c 2x27
 582 1122 l 2
 584 1118 586 1112 586 1108 c 0
 586 1100 579 1089 569 1083 c 2
 549 1067 l 2
 543 1065 538 1063 532 1063 c 0
 526 1063 520 1067 516 1071 c 2
EndSplineSet
Substitution2: "smcpLowercasetoSmallCapitalslookup subtable" agrave.smcp
EndChar

StartChar: acircumflex
Encoding: 226 226 183
Width: 944
GlyphClass: 2
Flags: HW
HStem: -33 139<227 419> -33 172<669 843> 770 162<444 457> 1354 238<477 477>
VStem: 63 227<197 287> 84 160<624 719> 563 227<226 283 283 428 428 428 494 578 578 633> 895 39<178 195>
LayerCount: 2
Fore
SplineSet
264 623 m 1xb7
 106 549 l 1
 94 572 84 610 84 637 c 0
 84 694 143 760 270 840 c 0
 346 891 385 912 444 932 c 1
 585 932 656 915 709 872 c 0
 768 825 791 760 791 633 c 2
 791 283 l 2
 791 170 798 139 829 139 c 0
 856 139 872 156 895 195 c 1
 934 178 l 1
 891 37 821 -33 717 -33 c 0x77
 621 -33 571 24 567 141 c 1
 426 8 354 -33 256 -33 c 0
 199 -33 144 -4 117 41 c 0
 90 86 63 176 63 217 c 0xbb
 63 266 108 306 231 365 c 0
 311 402 461 461 563 494 c 1
 563 578 l 2
 563 721 520 770 393 770 c 0
 297 770 244 743 244 694 c 0
 244 678 244 676 264 623 c 1xb7
563 215 m 1
 563 428 l 1
 327 332 291 309 291 264 c 0
 291 235 301 191 311 160 c 0
 323 127 354 106 389 106 c 0xbb
 448 106 497 137 563 215 c 1
477 1354 m 1
 272 1075 l 2
 266 1069 258 1063 252 1063 c 0
 246 1063 240 1065 236 1069 c 2
 215 1085 l 2
 209 1091 205 1098 205 1102 c 0
 205 1106 207 1114 211 1124 c 2
 319 1415 l 2
 364 1534 364 1536 391 1563 c 0
 409 1579 442 1591 475 1591 c 0
 532 1591 567 1569 594 1516 c 0
 598 1508 613 1472 633 1415 c 2
 741 1124 l 2
 745 1116 748 1108 748 1102 c 0
 748 1098 743 1091 737 1085 c 2
 719 1069 l 2
 713 1065 706 1063 700 1063 c 0
 694 1063 686 1067 682 1075 c 2
 477 1354 l 1
EndSplineSet
Substitution2: "smcpLowercasetoSmallCapitalslookup subtable" acircumflex.smcp
EndChar

StartChar: atilde
Encoding: 227 227 184
Width: 944
GlyphClass: 2
Flags: HW
HStem: -33 139<227 419> -33 172<669 843> 770 162<444 457> 1096 186<627 640> 1237 186<334 354>
VStem: 63 227<197 287> 84 160<624 719> 563 227<226 283 283 428 428 428 494 578 578 633> 895 39<178 195>
LayerCount: 2
Fore
SplineSet
264 623 m 1xa380
 106 549 l 1
 94 572 84 610 84 637 c 0
 84 694 143 760 270 840 c 0
 346 891 385 912 444 932 c 1
 585 932 656 915 709 872 c 0
 768 825 791 760 791 633 c 2
 791 283 l 2
 791 170 798 139 829 139 c 0
 856 139 872 156 895 195 c 1
 934 178 l 1
 891 37 821 -33 717 -33 c 0x6380
 621 -33 571 24 567 141 c 1
 426 8 354 -33 256 -33 c 0
 199 -33 144 -4 117 41 c 0
 90 86 63 176 63 217 c 0xa580
 63 266 108 306 231 365 c 0
 311 402 461 461 563 494 c 1
 563 578 l 2
 563 721 520 770 393 770 c 0
 297 770 244 743 244 694 c 0
 244 678 244 676 264 623 c 1xa380
563 215 m 1
 563 428 l 1
 327 332 291 309 291 264 c 0
 291 235 301 191 311 160 c 0
 323 127 354 106 389 106 c 0xa580
 448 106 497 137 563 215 c 1
195 1104 m 2
 178 1118 l 2
 168 1124 164 1135 164 1143 c 0
 164 1166 187 1243 207 1288 c 0
 244 1378 299 1423 369 1423 c 0x2980
 422 1423 432 1417 549 1327 c 0
 590 1294 614 1282 639 1282 c 0
 676 1282 707 1319 727 1389 c 0
 733 1409 740 1417 750 1417 c 0
 756 1417 760 1415 766 1413 c 2
 793 1397 l 2
 801 1391 807 1382 807 1374 c 0
 807 1349 780 1258 762 1221 c 0
 725 1141 669 1096 610 1096 c 0x3180
 563 1096 520 1116 457 1171 c 0
 398 1222 371 1237 338 1237 c 0x2980
 301 1237 273 1207 242 1133 c 0
 232 1108 223 1098 211 1098 c 0
 207 1098 201 1100 195 1104 c 2
EndSplineSet
Substitution2: "smcpLowercasetoSmallCapitalslookup subtable" atilde.smcp
EndChar

StartChar: aring
Encoding: 229 229 185
Width: 944
GlyphClass: 2
Flags: HW
HStem: -33 139<227 419> -33 172<669 843> 770 162<444 457> 1061 104<440 515 440 545> 1436 104<442 516>
VStem: 63 227<197 287> 84 160<624 719> 240 104<1264 1339 1264 1368> 563 227<226 283 283 428 428 428 494 578 578 633> 614 104<1263 1337> 895 39<178 195>
LayerCount: 2
Fore
SplineSet
264 623 m 1xbaa0
 106 549 l 1
 94 572 84 610 84 637 c 0
 84 694 143 760 270 840 c 0
 346 891 385 912 444 932 c 1
 585 932 656 915 709 872 c 0
 768 825 791 760 791 633 c 2
 791 283 l 2
 791 170 798 139 829 139 c 0
 856 139 872 156 895 195 c 1
 934 178 l 1
 891 37 821 -33 717 -33 c 0x7aa0
 621 -33 571 24 567 141 c 1
 426 8 354 -33 256 -33 c 0
 199 -33 144 -4 117 41 c 0
 90 86 63 176 63 217 c 0xbca0
 63 266 108 306 231 365 c 0
 311 402 461 461 563 494 c 1
 563 578 l 2
 563 721 520 770 393 770 c 0
 297 770 244 743 244 694 c 0
 244 678 244 676 264 623 c 1xbaa0
563 215 m 1
 563 428 l 1
 327 332 291 309 291 264 c 0
 291 235 301 191 311 160 c 0
 323 127 354 106 389 106 c 0xbca0
 448 106 497 137 563 215 c 1
479 1540 m 0
 612 1540 719 1433 719 1300 c 0
 719 1167 612 1061 477 1061 c 0
 346 1061 240 1170 240 1305 c 0x3960
 240 1432 348 1540 479 1540 c 0
479 1436 m 0
 405 1436 344 1377 344 1303 c 0
 344 1225 403 1165 477 1165 c 0
 553 1165 614 1224 614 1300 c 0
 614 1374 553 1436 479 1436 c 0
EndSplineSet
Substitution2: "smcpLowercasetoSmallCapitalslookup subtable" aring.smcp
EndChar

StartChar: ccedilla
Encoding: 231 231 186
Width: 868
GlyphClass: 2
Flags: HMW
HStem: -442 86<368 407 368 437> -209 356<335 633> 840 92<415 493>
VStem: 63 205<425 555> 473 164<-293 -260>
LayerCount: 2
Fore
SplineSet
530 -31 m 1
 475 -92 l 1
 588 -112 637 -155 637 -233 c 0
 637 -352 518 -442 356 -442 c 0
 245 -442 186 -416 186 -367 c 0
 186 -334 215 -307 248 -307 c 0
 271 -307 282 -312 311 -332 c 0
 338 -350 354 -356 381 -356 c 0
 432 -356 473 -324 473 -283 c 0
 473 -238 424 -203 369 -207 c 0
 346 -209 346 -209 342 -209 c 0
 328 -209 321 -207 315 -197 c 2
 305 -182 l 2
 303 -176 301 -172 301 -168 c 0
 301 -162 312 -149 328 -135 c 2
 449 -33 l 1
 209 -13 63 151 63 403 c 0
 63 706 270 932 549 932 c 0
 707 932 817 864 817 766 c 0
 817 696 774 651 711 651 c 0
 668 651 637 665 610 702 c 0
 602 712 602 712 565 780 c 0
 540 823 514 840 471 840 c 0
 358 840 268 702 268 530 c 0
 268 319 416 147 594 147 c 0
 672 147 698 160 786 240 c 0
 788 242 793 244 795 244 c 0
 807 244 844 215 844 207 c 0
 844 184 768 82 725 43 c 0
 674 0 620 -21 530 -31 c 1
EndSplineSet
Substitution2: "smcpLowercasetoSmallCapitalslookup subtable" ccedilla.smcp
EndChar

StartChar: edieresis
Encoding: 235 235 187
Width: 905
GlyphClass: 2
Flags: HW
HStem: -33 190<519 530> 543 86 850 82<430 523> 1137 297<204 285 204 285 621 700>
VStem: 53 217<500 543 500 569> 96 297<1246 1325 1243 1327> 512 297<1246 1326 1244 1327> 631 231<671 700 578 741>
LayerCount: 2
Fore
SplineSet
803 551 m 2xf9
 270 543 l 1
 270 457 275 430 295 375 c 0
 340 246 459 158 580 158 c 0
 656 158 713 184 791 254 c 1
 811 244 828 229 842 215 c 1
 738 45 614 -33 446 -33 c 0
 213 -33 53 152 53 422 c 0
 53 717 248 932 518 932 c 0
 731 932 862 805 862 596 c 0
 862 559 852 553 803 551 c 2xf9
281 618 m 1
 481 629 l 2
 612 635 631 643 631 698 c 0
 631 784 565 850 481 850 c 0
 379 850 304 763 281 618 c 1
244 1434 m 0
 326 1434 393 1366 393 1284 c 0
 393 1202 326 1137 244 1137 c 0
 162 1137 96 1204 96 1288 c 0xf4
 96 1366 164 1434 244 1434 c 0
662 1434 m 0
 742 1434 809 1366 809 1286 c 0
 809 1202 741 1137 659 1137 c 0
 577 1137 512 1204 512 1288 c 0xf2
 512 1366 580 1434 662 1434 c 0
EndSplineSet
Substitution2: "smcpLowercasetoSmallCapitalslookup subtable" edieresis.smcp
EndChar

StartChar: eacute
Encoding: 233 233 188
Width: 905
GlyphClass: 2
Flags: HW
HStem: -33 190<519 530> 543 86 850 82<430 523>
VStem: 53 217<500 543 500 569> 489 225<1466 1514> 631 231<671 700 578 741>
LayerCount: 2
Fore
SplineSet
803 551 m 2xf4
 270 543 l 1
 270 457 275 430 295 375 c 0
 340 246 459 158 580 158 c 0
 656 158 713 184 791 254 c 1
 811 244 828 229 842 215 c 1
 738 45 614 -33 446 -33 c 0
 213 -33 53 152 53 422 c 0
 53 717 248 932 518 932 c 0
 731 932 862 805 862 596 c 0
 862 559 852 553 803 551 c 2xf4
281 618 m 1
 481 629 l 2
 612 635 631 643 631 698 c 0
 631 784 565 850 481 850 c 0
 379 850 304 763 281 618 c 1
360 1122 m 2
 489 1466 l 2
 524 1560 553 1591 604 1591 c 0
 663 1591 715 1542 715 1487 c 0xf8
 715 1454 696 1417 653 1362 c 2
 426 1071 l 2
 422 1067 416 1063 410 1063 c 0
 404 1063 399 1065 393 1067 c 2
 371 1083 l 2
 363 1089 356 1100 356 1108 c 0
 356 1112 358 1116 360 1122 c 2
EndSplineSet
Substitution2: "smcpLowercasetoSmallCapitalslookup subtable" eacute.smcp
EndChar

